/* XPM */
static char *ae4727c196b1485c9dd184d47d9b2962CNiQN1WjvTodCfJ6[] = {
/* columns rows colors chars-per-pixel */
"64 64 42 1 ",
"  c black",
". c gray13",
"X c gray19",
"o c #4C2B1C",
"O c #6D3E29",
"+ c #253576",
"@ c #464646",
"# c #7C795C",
"$ c #5F9B5F",
"% c #5F9C5F",
"& c #609C5F",
"* c #639E62",
"= c #649F62",
"- c #64A062",
"; c #67A265",
": c #69A366",
"> c #6BA567",
", c #6DA768",
"< c #6FA869",
"1 c #70AA6A",
"2 c #73AC6D",
"3 c #75AF6F",
"4 c #79B271",
"5 c #7BB473",
"6 c #7CB573",
"7 c #7CB574",
"8 c #7FB876",
"9 c #B28709",
"0 c #81B976",
"q c #82BB78",
"w c #87BF7B",
"e c #8AC27E",
"r c #354CA9",
"t c #B2AE84",
"y c #8DC580",
"u c #91C983",
"i c #93CB85",
"p c #96CE87",
"a c #9BD38A",
"s c #9CD48B",
"d c #9ED68D",
"f c white",
/* pixels */
"dddddddddddddddddddddddddddddddddddddddddddddddddddddddddddddddd",
"dddddddddddddddddddddddddddddddddddddddddddddddddddddddddddddddd",
"dddddddddddddddddddddddddddddddddddddddddddddddddddddddddddddddd",
"dddddddddddddddddddddddddddddddddddddddddddddddddddddddddddddddd",
"dddddddddddddddddddddddddddddddddddddddddddddddddddddddddddddddd",
"dddddddddddddddddddddddddddddddddddddddddddddddddddddddddddddddd",
"dddddddddddddddddddddddddddddddddddddddddddddddddddddddddddddddd",
"dddddddddddddddddddddddddddddddddddddddddddddddddddddddddddddddd",
"dddddddddddddddddddddddddddddddddddddddddddddddddddddddddddddddd",
"ddddddddddddddddddddddddddd          ddddddddddddddddddddddddddd",
"ddddddddddddddddddddddddddd ........ ddddddddddddddddddddddddddd",
"ddddddddddddddddddddddddddd ........ ddddddddddddddddddddddddddd",
"ddddddddddddddddddddddddddd ........ ddddddddddddddddddddddddddd",
"ddddddddddddddddddddddddddd ........ ddddddddddddddddddddddddddd",
"ddddddddddddddddddddddddddd ........ ddddddddddddddddddddddddddd",
"ddddddddddddddddd          9999999999          ddddddddddddddddd",
"ddddddddddddddddd @@@@@@@@@..........@@@@@@@@@ ddddddddddddddddd",
"ddddddddddddddddd @@@@@@@@@XXXXXXXXXX@@@@@@@@@ ddddddddddddddddd",
"ddddddddddddddddd @@@@@@@@@@@@@@@@@@@@@@@@@@@@ ddddddddddddddddd",
"ddddddddddddddddd @@@@@@@@@@@@@@@@@@@@@@@@@@@@ ddddddddddddddddd",
"ddddddddddddddddd @@@@@@@@@@@@@@@@@@@@@@@@@@@@ ddddddddddddddddd",
"ddddddddddddddddd @@@@@@@@@@@@@@@@@@@@@@@@@@@@ ddddddddddddddddd",
"ddddddddddddddddd @@@@@@@@@@@@@@@@@@@@@@@@@@@@ ddddddddddddddddd",
"ddddddddddddddddd @@@@@@@@@@@@@@@@@@@@@@@@@@@@ ddddddddddddddddd",
"ddddddddddddddddd @@@@@@@@@@@@@@@@@@@@@@@@@@@@ ddddddddddddddddd",
"ddddddddddddddddd @@@@@@@@@@@@@@@@@@@@@@@@@@@@ ddddddddddddddddd",
"ddddddddddddddddd @@@@@@@@@@@@@@@@@@@@@@@@@@@@ ddddddddddddddddd",
"ddddddddddddappad @@@@@@@@@@@@@@@@@@@@@@@@@@@@ ddddddddddddddddd",
"dddddddddddae54wp                              ddddddddddddddddd",
"dddddddddddi3**1yd ### .................. ### dddddddddddddddddd",
"dddddddddddy,$$;wa ### .................. ### dddddddddddddddddd",
"dddddddddddi4;*>5e ### XXXXXXXXXXXXXXXXXX ### dddddddddddddddddd",
"dddddddddday4>**-> ### XXXXXXXXXXXXXXXXXX ### dddddddddddddddddd",
"dddddddddae2=*$$$$ ttt @@@@@@@@@@@@@@@@@@ ttt dddddddddddddddddd",
"dddddddddi3*$$$$$$ ttt @@@@@@@@@@@@@@@@@@ ttt dddddddddddddddddd",
"dddddddddy,$$%**$* ttt                    ttt dddddddddddddddddd",
"dddddddddu2*$*;*$* ttt rrrrrrrrrrrrrrrrrr ttt dddddddddddddddddd",
"dddddddddaq:&**%$* ttt rrrrrrrrrrrrrrrrrr ttt dddddddddddddddddd",
"ddddddddddu3*%%$$$ ttt rrrrrrrrrrrrrrrrrr ttt dddddddddddddddddd",
"ddddddddddaw:&$$$$ ttt rrrrrrrrrrrrrrrrrr ttt dddddddddddddddddd",
"dddddddddddy1*$$$$ ttt r+rrrr      rrrrrr ttt dddddddddddddddddd",
"dddddddddddp7=$$$% ttt rrrrrr 0add rrrrrr ttt dddddddddddddddddd",
"dddddddddddae,%$$$     rrrrrr <idd rrrrrr     dddddddddddddddddd",
"ddddddddddddp6=$$$     r+rrrr *wad rrrrrr     dddddddddddddddddd",
"ddddddddddddae<&$$     rrrrrr &3pd rrrrrr     dddddddddddddddddd",
"dddddddddddddp0;$$     rrrrrr $;qa rrrrrr     dddddddddddddddddd",
"ddddddddddddddi3*$     rrrrrr $$>e rrrrrr     dddddddddddddddddd",
"ddddddddddddddaw-$$$$$ rrrrrr $$&3 rrrrrr dddddddddddddddddddddd",
"dddddddddddddddp3%$$$$ rrrrrr $$$- rrrrrr dddddddddddddddddddddd",
"dddddddddddddddaw-$$$$ rrrrrr $$$% rrrrrr dddddddddddddddddddddd",
"ddddddddddddddddi<$$$f rrrrrr fff$ rrrrrr dddddddddddddddddddddd",
"dddddddddddddddda5*$ff rrrrrr $$$$ rrrrrr dddddddddddddddddddddd",
"ddddddddddddddddde-$$$ rrrrrr $$$$ rrrrrr ffdddddddddddddddddddd",
"dddddddddddddddddif$$$        $$$$        dffddddddddddddddddddd",
"dddddddddddddddddff*$$ oooooo $$$$ oooooo ddfddddddddddddddddddd",
"dddddddddddddddddfy<&$ OOOOOO $$$$ OOOOOO dddddddddddddddddddddd",
"dddddddddddddddddfae2: OOOOOO -*** OOOOOO dddddddddddddddddddddd",
"dddddddddddddddddddaue        e088        dddfdddddddddddddddddd",
"dddddddddddddddddddddddddddddddssaadddddddddfddddddddddddddddddd",
"dddddddddddddddddddfdddddddddddddddddddddddffddddddddddddddddddd",
"ddddddddddddddddddddffdddddddddddddddddddddddddddddddddddddddddd",
"dddddddddddddddddddddffddddffffdddddfffffddddddddddddddddddddddd",
"dddddddddddddddddddddddddddddddddddddddddddddddddddddddddddddddd",
"dddddddddddddddddddddddddddddddddddddddddddddddddddddddddddddddd"
};
