/* XPM */
static char *f88535eadf84485f9d18c50360c67b35FOkwSx6oQGjJaMMf[] = {
/* columns rows colors chars-per-pixel */
"64 64 49 1 ",
"  c black",
". c gray9",
"X c gray13",
"o c gray19",
"O c #6D3E29",
"+ c #464646",
"@ c #7C795C",
"# c #ED1C24",
"$ c #9C5A3C",
"% c #5F9B5F",
"& c #5F9C5F",
"* c #609C5F",
"= c #629E61",
"- c #64A062",
"; c #67A264",
": c #68A365",
"> c #69A466",
", c #6DA769",
"< c #6FA96A",
"1 c #70AA6B",
"2 c #72AB6C",
"3 c #72AC6C",
"4 c #75AE6E",
"5 c #77B070",
"6 c #78B171",
"7 c #7CB573",
"8 c #7FB775",
"9 c #FFC20E",
"0 c #80B977",
"q c #82BA78",
"w c #83BC79",
"e c #86BE7B",
"r c #88C07C",
"t c #8CC47F",
"y c #4D6DF3",
"u c #B2AE84",
"i c #8FC782",
"p c #90C882",
"a c #93CB84",
"s c #94CB85",
"d c #95CD86",
"f c #97CF88",
"g c #98CF88",
"h c #9AD28A",
"j c #9CD48B",
"k c #9ED68D",
"l c #FFF9BD",
"z c gray88",
"x c white",
/* pixels */
"kkkkkkkkkkkkkkkkkkkkkkkkkkkkkkkkkkkkkkkkkkkkkkkkkkkkkkkkkkkkkkkk",
"kkkkkkkkkkkkkkkkkkkkkkkkkkkkkkkkkkkkkkkkkkkkkkkkkkkkkkkkkkkkkkkk",
"kkkkkkkkkkkkkkkkkkkkkkkkkkkkkkkkkkkkkkkkkkkkkkkkkkkkkkkkkkkkkkkk",
"kkkkkkkkkkkkkkkkkkkkkkkkkkkkkkkkkkkkkkkkkkkkkkkkkkkkkkkkkkkkkkkk",
"kkkkkkkkkkkkkkkkkkkkkkkkkkkkkkkkkkkkkkkkkkkkkkkkkkkkkkkkkkkkkkkk",
"kkkkkkkkkkkkkkkkkkkkkkkkkk           kkkkkkkkkkkkkkkkkkkkkkkkkkk",
"kkkkkkkkkkkkkkkkkkkkkkkkkk ++ +++ ++ kkkkkkkkkkkkkkkkkkkkkkkkkkk",
"kkkkkkkkkkkkkkkkkkkkkkkkkk +++ + +++ kkkkkkkkkkkkkkkkkkkkkkkkkkk",
"kkkkkkkkkkkkkkkkkkkkkkkkkk +++#+#+++ kkkkkkkkkkkkkkkkkkkkkkkkkkk",
"kkkkkkkkkkkkkkkkkkkkkkkkkk +++++++++ kkkkkkkkkkkkkkkkkkkkkkkkkkk",
"kkkkkkkkkkkkkkkkkkkkkkkkkk +       + kkkkkkkkkkkkkkkkkkkkkkkkkkk",
"kkkkkkkkkkkkkkkkkkkkkkkkkk +++++++++ kkkkkkkkkkkkkkkkkkkkkkkkkkk",
"kkkkkkkkkkkkkkkkkkkkkkkkkk +++++++++ kkkkkkkkkkkkkkkkkkkkkkkkkkk",
"kkkkkkkkkkkkkkkkkkkkkkkkkk +++++++++ kkkkkkkkkkkkkkkkkkkkkkkkkkk",
"kkkkkkkkkkkkkkkk         9           9         kkkkkkkkkkkkkkkkk",
"kkkkkkkkkkkkkkkk ++++++++99+ooooooo+99++++++++ kkkkkkkkkkkkkkkkk",
"kkkkkkkkkkkkkkkk +++++++++9+ooooooo+9+++++++++ kkkkkkkkkkkkkkkkk",
"kkkkkkkkkkkkkkkk +++++++++99+++++++99+++++++++ kkkkkkkkkkkkkkkkk",
"kkkkkkkkkkkkkkkk ++++++++++99+++++99++++++++++ kkkkkkkkkkkkkkkkk",
"kkkkkkkkkkkkkkkk +++++++++++9+++++9+++++++++++ kkkkkkkkkkkkkkkkk",
"kkkkkkkkkkkkkkkk +++++++++++99+++99+++++++++++ kkkkkkkkkkkkkkkkk",
"kkkkkkkkkkkkkkkk ++++++++++++99+99++++++++++++ kkkkkkkkkkkkkkkkk",
"kkkkkkkkkkkkkkkk +++++++++++++999+++++++++++++ kkkkkkkkkkkkkkkkk",
"kkkkkkkkkkkkkkkk ++++++++++++++9++++++++++++++ kkkkkkkkkkkkkkkkk",
"kkkkkkkkkkkkkkkk ++++++++++++xzzzx++++++++++++ kkkkkkkkkkkkkkkkk",
"kkkkkkkkkkkkkkkk ++++++++++++zzxzz++++++++++++ kkkkkkkkkkkkkkkkk",
"kkkkkkkkkkkkkkkk ++++++++++++xzzzx++++++++++++ kkkkkkkkkkkkkkkkk",
"kkkkkkkkkkkkkkkk +++++++++++++++++++++++++++++ kkkkkkkkkkkkkkkkk",
"kkkkkkkkkkkkkkkk +++++++++++++++++++++++++++++ kkkkkkkkkkkkkkkkk",
"kkkkkkkkkkkkkkkk                               kkkkkkkkkkkkkkkkk",
"kkkkkkkkkkkkkkkkk @@@ ................... @@@ kkkkkkkkkkkkkkkkkk",
"kkkkkkkkkkkkkkkkk uuu XXXXXXXXXXXXXXXXXXX uuu kkkkkkkkkkkkkkkkkk",
"kkkkkkkkkkkhstidh lll ooooooooooooooooooo lll kkkkkkkkkkkkkkkkkk",
"kkkkkkkkkkhr4>>8d lll +++++++++++++++++++ lll kkkkkkkkkkkkkkkkkk",
"kkkkkkkkkji3=%%>e lll +++++++++++++++++++ lll kkkkkkkkkkkkkkkkkk",
"kkkkkkkkkhr;%%%=, lll +++++++++++++++++++ lll kkkkkkkkkkkkkkkkkk",
"kkkkkkkkkjp4=%%%= lll +++++++++++++++++++ lll kkkkkkkkkkkkkkkkkk",
"kkkkkkkkkkhr1=%%% lll                     lll kkkkkkkkkkkkkkkkkk",
"kkkkkkkkkkki<*%%= lll yyyyyyyyy yyyyyyyyy lll kkkkkkkkkkkkkkkkkk",
"kkkkkkkkkkh0-%%&; lll yyyyyyyyy yyyyyyyyy lll kkkkkkkkkkkkkkkkkk",
"kkkkkkkkkji2=%%%= lll yyyyyyyyyyyyyyyyyyy lll kkkkkkkkkkkkkkkkkk",
"kkkkkkkkkhw-%%%%%     yyyyyyyyyyyyyyyyyyy     kkkkkkkkkkkkkkkkkk",
"kkkkkkkkkh8=%%%%%     yyyyyy       yyyyyy     kkkkkkkkkkkkkkkkkk",
"kkkkkkkkkh8=%%%%%     yyyyyy %=4pk yyyyyy     kkkkkkkkkkkkkkkkkk",
"kkkkkkkkkh8=%%%%%     yyyyyy %%=0h yyyyyy     kkkkkkkkkkkkkkkkkk",
"kkkkkkkkkke-%%%%%     yyyyyy %%%1d yyyyyy     kkkkkkkkkkkkkkkkkk",
"kkkkkkkkkka4=%%%%%%%% yyyyyy %%%:p yyyyyy kkkkkkkkkkkkkkkkkkkkkk",
"kkkkkkkkkkhr>%%%%%%%% yyyyyy %%%=e yyyyyy kkkkkkkkkkkkkkkkkkkkkk",
"kkkkkkkkkkkg7=%%%%%%% yyyyyy %%%%4 yyyyyy kkkkkkkkkkkkkkkkkkkkkk",
"kkkkkkkkkkkki,%%%%%%% yyyyyy %%%%- yyyyyy kkkkkkkkkkkkkkkkkkkkkk",
"kkkkkkkkkkkkhq-%%%%%% yyyyyy %%%%% yyyyyy kkkkkkkkkkkkkkkkkkkkkk",
"kkkkkkkkkkkkkd5=%%%%% yyyyyy %%%%% yyyyyy kkkkkkkkkkkkkkkkkkkkkk",
"kkkkkkkkkkkkkkr:%%%%% yyyyyy %%%%% yyyyyy kkkkkkkkkkkkkkkkkkkkkk",
"kkkkkkkkkkkkkkd6=%%%% yyyyyy %%%%% yyyyyy kkkkkkkkkkkkkkkkkkkkkk",
"kkkkkkkkkkkkkkkr:%%%% yyyyyy %%%%% yyyyyy kxkkkkkkkkkkkkkkkkkkkk",
"kkkkkkkkkkkkkkkf6=%%%        %%%%%        kxkkkkkkkkkkkkkkkkkkkk",
"kkkkkkkkkkkkkkkki>xx% $$$$$$ %%%%% $$$$$$ kxxkkkkkkkkkkkkkkkkkkk",
"kkkkkkkkkkkkkkkkhxx%% $$$$$$ %%%%% $$$$$$ kkxkkkkkkkkkkkkkkkkkkk",
"kkkkkkkkkkkkkkkkkxx11 OOOOOO &%%%% OOOOOO kkkkkkkkkkkkkkkkkkkkkk",
"kkkkkkkkkkkkkkkkkkfpp        641<>        kxkkkkkkkkkkkkkkkkkkkk",
"kkkkkkkkkkkkkkkkkkkkkkkkkkkjhhhdpre08thkkkxxkkkkkkkkkkkkkkkkkkkk",
"kkkkkkkkkkkkkkkkkkxxxkkkkkkkkkkkkkhhdhkkkxkkkkkkkkkkkkkkkkkkkkkk",
"kkkkkkkkkkkkkkkkkkkkxxxkkkxxkkkkkkkkkxxkkkkkkkkkkkkkkkkkkkkkkkkk",
"kkkkkkkkkkkkkkkkkkkkkkkkkkkxxxxkkkkxxkkkkkkkkkkkkkkkkkkkkkkkkkkk"
};
