/* XPM */
static char *_a01025897604616cd29c028178fba83THM1GdFjTyhYXc8R[] = {
/* columns rows colors chars-per-pixel */
"64 64 47 1 ",
"  c black",
". c gray13",
"X c gray19",
"o c #6D3E29",
"O c #464646",
"+ c #7C795C",
"@ c #ED1C24",
"# c #9C5A3C",
"$ c #5F9B5F",
"% c #5F9C5F",
"& c #609C5F",
"* c #619D60",
"= c #64A062",
"- c #67A264",
"; c #68A365",
": c #6AA567",
"> c #6DA769",
", c #6EA869",
"< c #70A96A",
"1 c #72AB6C",
"2 c #74AE6E",
"3 c #77B070",
"4 c #78B171",
"5 c #7CB573",
"6 c #7FB775",
"7 c #FFC20E",
"8 c #80B876",
"9 c #82BA78",
"0 c #83BC79",
"q c #86BE7B",
"w c #8AC37E",
"e c #8CC47F",
"r c #4D6DF3",
"t c #B2AE84",
"y c #8EC681",
"u c #91C983",
"i c #93CB84",
"p c #94CB85",
"a c #95CD86",
"s c #97CF88",
"d c #98CF88",
"f c #98D089",
"g c #9CD48B",
"h c #9ED68D",
"j c #FFF9BD",
"k c gray88",
"l c white",
/* pixels */
"hhhhhhhhhhhhhhhhhhhhhhhhhhhhhhhhhhhhhhhhhhhhhhhhhhhhhhhhhhhhhhhh",
"hhhhhhhhhhhhhhhhhhhhhhhhhhhhhhhhhhhhhhhhhhhhhhhhhhhhhhhhhhhhhhhh",
"hhhhhhhhhhhhhhhhhhhhhhhhhhhhhhhhhhhhhhhhhhhhhhhhhhhhhhhhhhhhhhhh",
"hhhhhhhhhhhhhhhhhhhhhhhhhhhhhhhhhhhhhhhhhhhhhhhhhhhhhhhhhhhhhhhh",
"hhhhhhhhhhhhhhhhhhhhhhhhhhhhhhhhhhhhhhhhhhhhhhhhhhhhhhhhhhhhhhhh",
"hhhhhhhhhhhhhhhhhhhhhhhhhhffffffffffffhhhhhhhhhhhhhhhhhhhhhhhhhh",
"hhhhhhhhhhhhhhhhhhhhhhhhhhfffffffffffhhhhhhhhhhhhhhhhhhhhhhhhhhh",
"hhhhhhhhhhhhhhhhhhhhhhhhhhfffffffffffhhhhhhhhhhhhhhhhhhhhhhhhhhh",
"hhhhhhhhhhhhhhhhhhhhhhhhhhfffffffffffhhhhhhhhhhhhhhhhhhhhhhhhhhh",
"hhhhhhhhhhhhhhhhhhhhhhhhhhfffffffffffhhhhhhhhhhhhhhhhhhhhhhhhhhh",
"hhhhhhhhhhhhhhhhhhhhhhhhhhfffffffffffhhhhhhhhhhhhhhhhhhhhhhhhhhh",
"hhhhhhhhhhhhhhhhhhhhhhhhhh           hhhhhhhhhhhhhhhhhhhhhhhhhhh",
"hhhhhhhhhhhhhhhhhhhhhhhhhh OO OOO OO hhhhhhhhfhhhhhhhhhhhhhhhhhh",
"hhhhhhhhhhhhhhhhhhhhhhhhhh OOO O OOO hhhhhhhhfhfhhhhhhhhhhhhhhhh",
"hhhhhhhhhhhhhhhhffffffffff OOO@O@OOO fffffffffffhhhhhhhhhhhhhhhh",
"hhhhhhhhhhhhhhhhffffffffff OOOOOOOOO ffffffffffhhhhhhhhhhhhhhhhh",
"hhhhhhhhhhhhhhhfffffffffff O       O fffffffffffffhhhhhhhhhhhhhh",
"hhhhhhhhhhhhhhhfffffffffff OOOOOOOOO fffffffffffhhhhhhhhhhhhhhhh",
"hhhhhhhhhhhhhhhfffffffffff OOOOOOOOO ffffffffffhhhhhhhhhhhhhhhhh",
"hhhhhhhhhhhhhhhhffffffffff OOOOOOOOO ffffffffffhhhhhhhhhhhhhhhhh",
"hhhhhhhhhhhhhhhh         7           7         hhhhhhhhhhhhhhhhh",
"hhhhhhhhhhhhhhhh OOOOOOOO77OXXXXXXXO77OOOOOOOO hhhhhhhhhhhhhhhhh",
"hhhhhhhhhhhhhhhh OOOOOOOOO7OXXXXXXXO7OOOOOOOOO hhhhhhhhhhhhhhhhh",
"hhhhhhhhhhhhhhhh OOOOOOOOO77OOOOOOO77OOOOOOOOO hhhhhhhhhhhhhhhhh",
"hhhhhhhhhhhhhhhh OOOOOOOOOO77OOOOO77OOOOOOOOOO hhhhhhhhhhhhhhhhh",
"hhhhhhhhhhhhhhhh OOOOOOOOOOO7OOOOO7OOOOOOOOOOO hhhhhhhhhhhhhhhhh",
"hhhhhhhhhhhhhhhh OOOOOOOOOOO77OOO77OOOOOOOOOOO hhhhhhhhhhhhhhhhh",
"hhhhhhhhhhhhhhhh OOOOOOOOOOOO77O77OOOOOOOOOOOO hhhhhhhhhhhhhhhhh",
"hhhhhhhhhhhhhhhh OOOOOOOOOOOOO777OOOOOOOOOOOOO hhhhhhhhhhhhhhhhh",
"hhhhhhhhhhhhhhhh OOOOOOOOOOOOOO7OOOOOOOOOOOOOO hhhhhhhhhhhhhhhhh",
"hhhhhhhhhhhhhhhh OOOOOOOOOOOOlkkklOOOOOOOOOOOO hhhhhhhhhhhhhhhhh",
"hhhhhhhhhhhhhphh OOOOOOOOOOOOkklkkOOOOOOOOOOOO hhhhhhhhhhhhhhhhh",
"hhhhhhhhhhpfpppa OOOOOOOOOOOOlkkklOOOOOOOOOOOO hhhhhhhhhhhhhhhhh",
"hhhhhhhhpppppppp OOOOOOOOOOOOOOOOOOOOOOOOOOOOO hhhhhhhhhhhhhhhhh",
"hhhhhhhhpppppppp OOOOOOOOOOOOOOOOOOOOOOOOOOOOO hhhhhhhhhhhhhhhhh",
"hhhhhhhhppp$$$$$                               hhhhhhhhhhhhhhhhh",
"hhhhhhhhhpp$$$$$* +++ ................... +++ hhhhhhhhhhhhhhhhhh",
"hhhhhhhhhpp$$*$$$ ttt XXXXXXXXXXXXXXXXXXX ttt hhhhhhhhhhhhhhhhhh",
"hhhhhhhhhph$$&$$* jjj OOOOOOOOOOOOOOOOOOO jjj hhhhhhhhhhhhhhhhhh",
"hhhhhhhhhpf$=$$%- jjj OOOOOOOOOOOOOOOOOOO jjj hhhhhhhhhhhhhhhhhh",
"hhhhhhhhhpy1*$$$* jjj OOOOOOOOOOOOOOOOOOO jjj hhhhhhhhhhhhhhhhhh",
"hhhhhhhhhp0=$$$$$                             hhhhhhhhhhhhhhhhhh",
"hhhhhhhhhp6*$$$$$     rrrrrrrrr rrrrrrrrr     hhhhhhhhhhhhhhhhhh",
"hhhhhhhhhp6*$$$$$     rrrrrrrrr rrrrrrrrr     hhhhhhhhhhhhhhhhhh",
"hhhhhhhhhf6*$$$$$     rrrrrrrrrrrrrrrrrrr     hhhhhhhhhhhhhhhhhh",
"hhhhhhhhhhq=$$$$$     rrrrrrrrrrrrrrrrrrr     hhhhhhhhhhhhhhhhhh",
"hhhhhhhhhhi2*$$$$$$$$ rrrrrr       rrrrrr hhhhhhhhhhhhhhhhhhhhhh",
"hhhhhhhhhhfw:$$$$$$$$ rrrrrr $$$*q rrrrrr hhhhhhhhhhhhhhhhhhhhhh",
"hhhhhhhhhhhd5*$$$$$$$ rrrrrr $$$$2 rrrrrr hhhhhhhhhhhhhhhhhhhhhh",
"hhhhhhhhhhhhy>$$$$$$$ rrrrrr $$$$= rrrrrr hhhhhhhhhhhhhhhhhhhhhh",
"hhhhhhhhhhhhf9=$$$$$$ rrrrrr $$$$$ rrrrrr hhhhhhhhhhhhhhhhhhhhhh",
"hhhhhhhhhhhhha3*$$$$$ rrrrrr $$$$$ rrrrrr hhhhhhhhhhhhhhhhhhhhhh",
"hhhhhhhhhhhhhhw;$$$$$ rrrrrr $$$$$ rrrrrr hhhhhhhhhhhhhhhhhhhhhh",
"hhhhhhhhhhhhhha4*$$$$ rrrrrr $$$$$ rrrrrr hhhhhhhhhhhhhhhhhhhhhh",
"hhhhhhhhhhhhhhhw;$$$$ rrrrrr $$$$$ rrrrrr hhhhhhhhhhhhhhhhhhhhhh",
"hhhhhhhhhhhhhhhs4*$$$        $$$$$        hhhhlhhhhhhhhhhhhhhhhh",
"hhhhhhhhhhhhhhlly:$$$ ###### $$$$$ ###### hhhhhllhhhlhhhhhhhhhhh",
"hhhhhhhhlhhhhllhf8=$$ ###### $$$$$ ###### hhhhhhlhhhlhhhhhhhhhhh",
"hhhhhhhlhhhhhlhhha8<< oooooo %$$$$ oooooo hhhhhhlhhhhlhhhhhhhhhh",
"hhhhhhhlhhhhlhhhhhsuu        42<,:        hhhhhhhlhhhlhhhhhhhhhh",
"hhhhhhhhhhhhlhhhhhhhhhhhhhhgfffauwq86efhhhhhhhhhhlhhhlhhhhhhhhhh",
"hhhhhhhhhhhhlhhhhhhhhhhhhhhhhhhhhhffafhhhhhhhhhhhhhhlhhhhhhhhhhh",
"hhhhhhhhhhhhhhhhhhhhhhhhhhhhhhhhhhhhhhhhhhhhhhhhhhhhhhhhhhhhhhhh",
"hhhhhhhhhhhhhhllhhhhhhhhhhhhhhhhhhhhhhhhhhhhhhhhlhhhhhhhhhhhhhhh"
};
