/* XPM */
static char *_965e4704a2b47f3e6a1cb4b16df3796r41aepFcArVa7pbJ[] = {
/* columns rows colors chars-per-pixel */
"64 64 49 1 ",
"  c black",
". c gray9",
"X c gray13",
"o c gray19",
"O c #6D3E29",
"+ c #464646",
"@ c #565440",
"# c #7C795C",
"$ c #ED1C24",
"% c #9C5A3C",
"& c #5F9B5F",
"* c #5F9C5F",
"= c #609C5F",
"- c #609C60",
"; c #649F62",
": c #65A063",
"> c #67A365",
", c #68A265",
"< c #6AA567",
"1 c #6DA768",
"2 c #6EA869",
"3 c #72AB6C",
"4 c #73AD6D",
"5 c #74AD6D",
"6 c #77B070",
"7 c #79B271",
"8 c #7BB473",
"9 c #7CB473",
"0 c #7FB775",
"q c #FFC20E",
"w c #82BA78",
"e c #86BF7B",
"r c #87BF7C",
"t c #8BC37F",
"y c #8CC47F",
"u c #354CA9",
"i c #4D6DF3",
"p c #B2AE84",
"a c #8EC681",
"s c #91C983",
"d c #92CA84",
"f c #96CE87",
"g c #97CF88",
"h c #9BD38A",
"j c #9CD38B",
"k c #9CD48B",
"l c #9ED68D",
"z c #FFF9BD",
"x c gray82",
/* pixels */
"llllllllllllllllllllllllllllllllllllllllllllllllllllllllllllllll",
"llllllllllllllllllllllllllllllllllllllllllllllllllllllllllllllll",
"llllllllllllllllllllllllllllllllllllllllllllllllllllllllllllllll",
"llllllllllllllllllllllllllllllllllllllllllllllllllllllllllllllll",
"llllllllllllllllllllllllllllllllllllllllllllllllllllllllllllllll",
"llllllllllllllllllllllllllllllllllllllllllllllllllllllllllllllll",
"llllllllllllllllllllllllllll        llllllllllllllllllllllllllll",
"llllllllllllllllllllllllllll + ++++ llllllllllllllllllllllllllll",
"llllllllllllllllllllllllllll  +++++ llllllllllllllllllllllllllll",
"llllllllllllllllllllllllllll $+++++ llllllllllllllllllllllllllll",
"llllllllllllllllllllllllllll oo++++ llllllllllllllllllllllllllll",
"llllllllllllllllllllllllllll oo++++ llllllllllllllllllllllllllll",
"llllllllllllllllllllllllllllqqqqqqqqqlllllllllllllllllllllllllll",
"llllllllllllllllllllllll                llllllllllllllllllllllll",
"llllllllllllllllllllllll XXXXXXXXXXXXXX llllllllllllllllllllllll",
"llllllllllllllllllllllll oooooooooooooo llllllllllllllllllllllll",
"llllllllllllllllllllllll ooooo+++++++++ llllllllllllllllllllllll",
"llllllllllllllllllllllll ooo+++++++++++ llllllllllllllllllllllll",
"llllllllllllllllllllllll o+++++++++++++ llllllllllllllllllllllll",
"llllllllllllllllllllllll ++++++++++++++ llllllllllllllllllllllll",
"llllllllllllllllllllllll ++++++++++++++ llllllllllllllllllllllll",
"llllllllllllllllllllllll ++++++++++++++ llllllllllllllllllllllll",
"llllllllllllllllllllllll                llllllllllllllllllllllll",
"lllllllllllllllllllllllllq .. @@@@ .. llllllllllllllllllllllllll",
"lllllllllllllllllllllllllq XX #### XX llllllllllllllllllllllllll",
"lllllllllllllllllllllllllq oo pppp oo llllllllllllllllllllllllll",
"llllllllllllllllllllllllxx oo zzzz ++ llllllllllllllllllllllllll",
"llllllllllllllllllllllllxx o+ zzzz ++ llllllllllllllllllllllllll",
"llllllllllllllllllllllllxx ++ zzzz ++ llllllllllllllllllllllllll",
"llllllllllllllllllllllllll ++ zzzz ++ llllllllllllllllllllllllll",
"llllllllllllllllllllllllll ++ zzzz ++ llllllllllllllllllllllllll",
"llllllllllllllllllllllllll ++ zzzz ++ llllllllllllllllllllllllll",
"llllllllllllllllllllllllll ++ zzzz ++ llllllllllllllllllllllllll",
"lllllllllhhlllllllllllllll ++ zzzz ++ llllllllllllllllllllllllll",
"lllllllla53tllllllllllllll ++ zzzz ++ llllllllllllllllllllllllll",
"lllllllh4&&2flllllllllllll ++ zzzz ++ llllllllllllllllllllllllll",
"lllllllg2&&,alllllllllllll ++ zzzz ++ llllllllllllllllllllllllll",
"lllllllh0--<6ahhllllllllll            llllllllllllllllllllllllll",
"lllllllld2&-&,70dlllllllll ii      ii llllllllllllllllllllllllll",
"llllllllh7=&&&-=2sllllllll ii      ii llllllllllllllllllllllllll",
"lllllllljw-&&&&&&1alllllll ii      ii llllllllllllllllllllllllll",
"llllllllla;&&&&&&&3hllllll ii      ii llllllllllllllllllllllllll",
"lllllllllh5&&&&&&&-eklllll iiuuuuuiii llllllllllllllllllllllllll",
"lllllllllla:&&&&&&&>ykllll iiiiiiiiii llllllllllllllllllllllllll",
"llllllllllh0&&&&&&&&1thlll iiiiiiiiii llllllllllllllllllllllllll",
"llllllllllls:&&&&&&&=>ehll iiiiiiiiii llllllllllllllllllllllllll",
"lllllllllllh9-&&&&&&&&1dll iiiiiiiiii llllllllllllllllllllllllll",
"lllllllllllld2*-&&&&&&:6sl iiiiiiiiii llllllllllllllllllllllllll",
"llllllllllllh7--=&&&&&&-7f iiiiiiiiii llllllllllllllllllllllllll",
"llllllllllllla2-&&&&&&&&>r iiiiiiiiii llllllllllllllllllllllllll",
"lllllllllllllka<&&&&&&&&=3 iiiiiiiiii llllllllllllllllllllllllll",
"llllllllllllllhe:&&&&&&&*> iiiiiiiiii llllllllllllllllllllllllll",
"lllllllllllllllh7=&&&&&&-; iiiiiiiiii llllllllllllllllllllllllll",
"lllllllllllllllls2=&&&&&&2 iiiiiiiiii llllllllllllllllllllllllll",
"llllllllllllllllls5-&&&&&1 iiiiiiiiii llllllllllllllllllllllllll",
"lllllllllllllllllls2&&&&&-            llllllllllllllllllllllllll",
"llllllllllllllllllla1&&&&& %%%%%%%%%% llllllllllllllllllllllllll",
"lllllllllllllllllllls2&&&& %%%%%%%%%% llllllllllllllllllllllllll",
"llllllllllllllllllllld2&&& %%%%%%%%%% llllllllllllllllllllllllll",
"lllllllllllllllllllllld2*= OOOOOOOOO% llllllllllllllllllllllllll",
"llllllllllllllllllllllld85            llllllllllllllllllllllllll",
"llllllllllllllllllllllllhfhlllllllllllllllllllllllllllllllllllll",
"llllllllllllllllllllllllllllllllllllllllllllllllllllllllllllllll",
"llllllllllllllllllllllllllllllllllllllllllllllllllllllllllllllll"
};
