/* XPM */
static char *_a828dcc99bb476cfe387212674781abvdsv043JzERqBTbA[] = {
/* columns rows colors chars-per-pixel */
"64 64 42 1 ",
"  c black",
". c gray13",
"X c gray19",
"o c #6D3E29",
"O c #464646",
"+ c #7C795C",
"@ c #ED1C24",
"# c #9C5A3C",
"$ c #5F9B5F",
"% c #5F9C5F",
"& c #609C5F",
"* c #609C60",
"= c #649F62",
"- c #65A063",
"; c #67A365",
": c #69A466",
"> c #6DA768",
", c #6EA869",
"< c #72AB6C",
"1 c #74AE6E",
"2 c #77B070",
"3 c #7AB372",
"4 c #7BB473",
"5 c #7CB473",
"6 c #7EB775",
"7 c #FFC20E",
"8 c #86BF7B",
"9 c #87BF7C",
"0 c #8BC37F",
"q c #8CC47F",
"w c #4D6DF3",
"e c #B2AE84",
"r c #8EC681",
"t c #91C882",
"y c #92CA84",
"u c #96CE87",
"i c #99D189",
"p c #9CD38B",
"a c #9CD48B",
"s c #9ED68D",
"d c #FFF9BD",
"f c gray82",
/* pixels */
"ssssssssssssssssssssssssssssssssssssssssssssssssssssssssssssssss",
"ssssssssssssssssssssssssssssssssssssssssssssssssssssssssssssssss",
"ssssssssssssssssssssssssssssssssssssssssssssssssssssssssssssssss",
"ssssssssssssssssssssssssssssssssssssssssssssssssssssssssssssssss",
"ssssssssssssssssssssssssssssssssssssssssssssssssssssssssssssssss",
"ssssssssssssssssssssssssssssssssssssssssssssssssssssssssssssssss",
"ssssssssssssssssssssssssssssssssssssssssssssssssssssssssssssssss",
"ssssssssssssssssssssssssssssssssssssssssssssssssssssssssssssssss",
"ssssssssssssssssssssssssssssssssssssssssssssssssssssssssssssssss",
"ssssssssssssssssssssssssssssssssssssssssssssssssssssssssssssssss",
"ssssssssssssssssssssssssssssssssssssssssssssssssssssssssssssssss",
"ssssssssssssssssssssssssssss        ssssssssssssssssssssssssssss",
"ssssssssssssssssssssssssssss O OOOO ssssssssssssssssssssssssssss",
"ssssssssssssssssssssssssssss  OOOOO ssssssssssssssssssssssssssss",
"ssssssssssssssssssssssssssss @OOOOO ssssssssssssssssssssssssssss",
"ssssssssssssssssssssssssssss XXOOOO ssssssssssssssssssssssssssss",
"ssssssssssssssssssssssssssss XXOOOO ssssssssssssssssssssssssssss",
"ssssssssssssssssssssssss    777777777   ssssssssssssssssssssssss",
"ssssssssssssssssssssssss .............. ssssssssssssssssssssssss",
"ssssssssssssssssssssssss XXXXXXXXXXXXXX ssssssssssssssssssssssss",
"ssssssssssssssssssssssss XXXXXOOOOOOOOO ssssssssssssssssssssssss",
"ssssssssssssssssssssssss XXXOOOOOOOOOOO ssssssssssssssssssssssss",
"ssssssssssssssssssssssss XOOOOOOOOOOOOO ssssssssssssssssssssssss",
"ssssssssssssssssssssssss OOOOOOOOOOOOOO ssssssssssssssssssssssss",
"ssssssssssssssssssssssss OOOOOOOOOOOOOO ssssssssssssssssssssssss",
"ssssssssssssssssssssssss OOOOOOOOOOOOOO ssssssssssssssssssssssss",
"ssssssssssssssssssssssss                ssssssssssssssssssssssss",
"sssssssssssssssssssssssss7 XO ++++ OO ssssssssssssssssssssssssss",
"sssssssssssssssssssssssss7 OO eeee OO ssssssssssssssssssssssssss",
"sssssssssssssssssssssssss7 OO dddd OO ssssssssssssssssssssssssss",
"ssssssssssssssssssssssssff OO dddd OO ssssssssssssssssssssssssss",
"ssssssssssssssssssssssssff OO dddd OO ssssssssssssssssssssssssss",
"ssssssssssssssssssssssssff OO dddd OO ssssssssssssssssssssssssss",
"sssssssssiisssssssssssssss OO dddd OO ssssssssssssssssssssssssss",
"ssssssssssssssssssssssssss OO dddd OO ssssssssssssssssssssssssss",
"sssssssissssssssssssssssss OO dddd OO ssssssssssssssssssssssssss",
"ssssssssssssssssssssssssss OO dddd OO ssssssssssssssssssssssssss",
"sssssssssstttsiissssssssss OO dddd OO ssssssssssssssssssssssssss",
"ssssssssstt*$tssssssssssss OO dddd OO ssssssssssssssssssssssssss",
"ssssssssitt$$$t&,tssssssss OO dddd OO ssssssssssssssssssssssssss",
"sssssssspt*$$$$$$>rsssssss OO dddd OO ssssssssssssssssssssssssss",
"sssssssssts$$$$$$$<issssss            ssssssssssssssssssssssssss",
"ssssssssss1$$$$$$$*8asssss ww      ww ssssssssssssssssssssssssss",
"ssssssssssr-$$$$$$$;qassss ww      ww ssssssssssssssssssssssssss",
"ssssssssssi6$$$$$$$$>0isss ww      ww ssssssssssssssssssssssssss",
"ssssssssssst-$$$$$$$&;8iss ww      ww ssssssssssssssssssssssssss",
"sssssssssssi5*$$$$$$$$>yss wwwwwwwwww ssssssssssssssssssssssssss",
"ssssssssssssy,%*$$$$$$-2ts wwwwwwwwww ssssssssssssssssssssssssss",
"ssssssssssssi3**&$$$$$$*3u wwwwwwwwww ssssssssssssssssssssssssss",
"sssssssssssssr,*$$$$$$$$;9 wwwwwwwwww ssssssssssssssssssssssssss",
"sssssssssssssar:$$$$$$$$&< wwwwwwwwww ssssssssssssssssssssssssss",
"ssssssssssssssi8-$$$$$$$%; wwwwwwwwww ssssssssssssssssssssssssss",
"sssssssssssssssi3&$$$$$$*= wwwwwwwwww ssssssssssssssssssssssssss",
"sssssssssssssssst,&$$$$$$, wwwwwwwwww ssssssssssssssssssssssssss",
"ssssssssssssssssst1*$$$$$> wwwwwwwwww ssssssssssssssssssssssssss",
"sssssssssssssssssst,$$$$$*            ssssssssssssssssssssssssss",
"sssssssssssssssssssr>$$$$$ ########## ssssssssssssssssssssssssss",
"sssssssssssssssssssst,$$$$ ########## ssssssssssssssssssssssssss",
"sssssssssssssssssssssy,$$$ ########## ssssssssssssssssssssssssss",
"ssssssssssssssssssssssy,%& ooooooooo# ssssssssssssssssssssssssss",
"sssssssssssssssssssssssy41            ssssssssssssssssssssssssss",
"ssssssssssssssssssssssssiuisssssssssssssssssssssssssssssssssssss",
"ssssssssssssssssssssssssssssssssssssssssssssssssssssssssssssssss",
"ssssssssssssssssssssssssssssssssssssssssssssssssssssssssssssssss"
};
