/* XPM */
static char *db14056f332e4e6eec8cde03c924a074vXUM5zBUKtu2W0Tp[] = {
/* columns rows colors chars-per-pixel */
"64 64 40 1 ",
"  c black",
". c gray13",
"X c gray19",
"o c #4C2B1C",
"O c #6D3E29",
"+ c #464646",
"@ c #5F9B5F",
"# c #5F9C5F",
"$ c #609C5F",
"% c #639E62",
"& c #649F62",
"* c #64A062",
"= c #67A265",
"- c #69A366",
"; c #6BA567",
": c #6DA768",
"> c #6FA869",
", c #70AA6A",
"< c #73AC6D",
"1 c #75AF6F",
"2 c #79B271",
"3 c #7BB473",
"4 c #7CB573",
"5 c #7CB574",
"6 c #7FB876",
"7 c #B28709",
"8 c #81B976",
"9 c #82BB78",
"0 c #87BF7B",
"q c #8AC27E",
"w c #354CA9",
"e c #B2AE84",
"r c #8DC580",
"t c #91C983",
"y c #93CB85",
"u c #96CE87",
"i c #9BD38A",
"p c #9CD48B",
"a c #9ED68D",
"s c white",
/* pixels */
"aaaaaaaaaaaaaaaaaaaaaaaaaaaaaaaaaaaaaaaaaaaaaaaaaaaaaaaaaaaaaaaa",
"aaaaaaaaaaaaaaaaaaaaaaaaaaaaaaaaaaaaaaaaaaaaaaaaaaaaaaaaaaaaaaaa",
"aaaaaaaaaaaaaaaaaaaaaaaaaaaaaaaaaaaaaaaaaaaaaaaaaaaaaaaaaaaaaaaa",
"aaaaaaaaaaaaaaaaaaaaaaaaaaaaaaaaaaaaaaaaaaaaaaaaaaaaaaaaaaaaaaaa",
"aaaaaaaaaaaaaaaaaaaaaaaaaaaaaaaaaaaaaaaaaaaaaaaaaaaaaaaaaaaaaaaa",
"aaaaaaaaaaaaaaaaaaaaaaaaaaaaaaaaaaaaaaaaaaaaaaaaaaaaaaaaaaaaaaaa",
"aaaaaaaaaaaaaaaaaaaaaaaaaaaaaaaaaaaaaaaaaaaaaaaaaaaaaaaaaaaaaaaa",
"aaaaaaaaaaaaaaaaaaaaaaaaaaaaaaaaaaaaaaaaaaaaaaaaaaaaaaaaaaaaaaaa",
"aaaaaaaaaaaaaaaaaaaaaaaaaaaaaaaaaaaaaaaaaaaaaaaaaaaaaaaaaaaaaaaa",
"aaaaaaaaaaaaaaaaaaaaaaaaaaaiiiiiiiiiiaaaaaaaaaaaaaaaaaaaaaaaaaaa",
"aaaaaaaaaaaaaaaaaaaaaaaaaaaiiiiiiiiiiaaaaaaaaaaaaaaaaaaaaaaaaaaa",
"aaaaaaaaaaaaaaaaaaaaaaaaaaaiiiiiiiiiiaaaaaaaaaaaaaaaaaaaaaaaaaaa",
"aaaaaaaaaaaaaaaaaaaaaaaaaaaiiiiiiiiiiaaaaaaaaaaaaaaaaaaaaaaaaaaa",
"aaaaaaaaaaaaaaaaaaaaaaaaaaa          aaaaaaaaaaaaaaaaaaaaaaaaaaa",
"aaaaaaaaaaaaaaaaaaaaaaaaaaa ........ aaaaaaaaaaaaaaaaaaaaaaaaaaa",
"aaaaaaaaaaaaaaaaaiiiiiiiiii ........ iiiiiiiiiiaaaaaaaaaaaaaaaaa",
"aaaaaaaaaaaaaaaaaiiiiiiiiii ........ iiiiiiiiiiaaaaaaaaaaaaaaaaa",
"aaaaaaaaaaaaaaaaaiiiiiiiiii ........ iiiiiiiiiiaaaaaaaaaaaaaaaaa",
"aaaaaaaaaaaaaaaaaiiiiiiiiii ........ iiiiiiiiiiaaaaaaaaaaaaaaaaa",
"aaaaaaaaaaaaaaaaa          7777777777          aaaaaaaaaaaaaaaaa",
"aaaaaaaaaaaaaaaaa +++++++++..........+++++++++ aaaaaaaaaaaaaaaaa",
"aaaaaaaaaaaaaaaaa +++++++++XXXXXXXXXX+++++++++ aaaaaaaaaaaaaaaaa",
"aaaaaaaaaaaaaaaaa ++++++++++++++++++++++++++++ aaaaaaaaaaaaaaaaa",
"aaaaaaaaaaaaaaaaa ++++++++++++++++++++++++++++ aaaaaaaaaaaaaaaaa",
"aaaaaaaaaaaaaaaaa ++++++++++++++++++++++++++++ aaaaaaaaaaaaaaaaa",
"aaaaaaaaaaaaaaaaa ++++++++++++++++++++++++++++ aaaaaaaaaaaaaaaaa",
"aaaaaaaaaaaaaaaaa ++++++++++++++++++++++++++++ aaaaaaaaaaaaaaaaa",
"aaaaaaaaaaaaiuuia ++++++++++++++++++++++++++++ aaaaaaaaaaaaaaaaa",
"aaaaaaaaaaaiq320u ++++++++++++++++++++++++++++ aaaaaaaaaaaaaaaaa",
"aaaaaaaaaaay1%%,r ++++++++++++++++++++++++++++ aaaaaaaaaaaaaaaaa",
"aaaaaaaaaaar:@@=0 ++++++++++++++++++++++++++++ aaaaaaaaaaaaaaaaa",
"aaaaaaaaaaay2=%;3 ++++++++++++++++++++++++++++ aaaaaaaaaaaaaaaaa",
"aaaaaaaaaair2;%%*                              aaaaaaaaaaaaaaaaa",
"aaaaaaaaaiq<&%@@@@ eee .................. eee aaaaaaaaaaaaaaaaaa",
"aaaaaaaaay1%@@@@@@ eee XXXXXXXXXXXXXXXXXX eee aaaaaaaaaaaaaaaaaa",
"aaaaaaaaar:@@#%%@% eee ++++++++++++++++++ eee aaaaaaaaaaaaaaaaaa",
"aaaaaaaaat<%@%=%@% eee ++++++++++++++++++ eee aaaaaaaaaaaaaaaaaa",
"aaaaaaaaai9-$%%#@% eee ++++++++++++++++++ eee aaaaaaaaaaaaaaaaaa",
"aaaaaaaaaat1%##@@@ eee ++++++++++++++++++ eee aaaaaaaaaaaaaaaaaa",
"aaaaaaaaaai0-$@@@@ eee ++++++++++++++++++ eee aaaaaaaaaaaaaaaaaa",
"aaaaaaaaaaar,%@@@@ eee ++++++++++++++++++ eee aaaaaaaaaaaaaaaaaa",
"aaaaaaaaaaau5&@@@# eee                    eee aaaaaaaaaaaaaaaaaa",
"aaaaaaaaaaaiq:#@@@     wwwwwwwwwwwwwwwwww     aaaaaaaaaaaaaaaaaa",
"aaaaaaaaaaaau4&@@@     wwwwwwwwwwwwwwwwww     aaaaaaaaaaaaaaaaaa",
"aaaaaaaaaaaaiq>$@@     wwwwww      wwwwww     aaaaaaaaaaaaaaaaaa",
"aaaaaaaaaaaaau8=@@     wwwwww @=9i wwwwww     saaaaaaaaaaaaaaaaa",
"aaaaaaaaaaaaaay1%@     wwwwww @@;q wwwwww     ssaaaaaaaaaaaaaaaa",
"aaaaaaaaaaaaaai0*@@@@@ wwwwww @@$1 wwwwww aaaaasaaaaaaaaaaaaaaaa",
"aaaaaaaaaaaaaaau1#@@@@ wwwwww @@@* wwwwww aaaaaasaaaaaaaaaaaaaaa",
"aaaaaaaaaaaaaaass*@@@@ wwwwww @@@# wwwwww aaaaaaasaaaaaaaaaaaaaa",
"aaaaaaaaaaaaaassy>@@@@ wwwwww @@@@ wwwwww aaaaaaaaaaaaaaaaaaaaaa",
"aaaaaaaaaaaaassai3%@@@ wwwwww @@@@ wwwwww aaaaaaaaaaaaaaaaaaaaaa",
"aaaaaaaaaaaaasaaaq*@@@ wwwwww @@@@ wwwwww aaaaaaaasaaaaaaaaaaaaa",
"aaaaaaaaaaaaaaaaay>@@@        @@@@        aaaaaaaasaaaaaaaaaaaaa",
"aaaaaaaaaaaaaaaaai5%@@ oooooo @@@@ oooooo aaaaaaaasaaaaaaaaaaaaa",
"aaaaaaaaaaaasaaaaar>$@ OOOOOO @@@@ OOOOOO aaaaaaaasaaaaaaaaaaaaa",
"aaaaaaaaaaaasaaaaaiq<- OOOOOO *%%% OOOOOO aaaaaaaasaaaaaaaaaaaaa",
"aaaaaaaaaaaasaaaaaaitq        q866        aaaaaaasaaaaaaaaaaaaaa",
"aaaaaaaaaaaasaaaaaaaaaaaaaaaaaappiiaaaaaaaaaaaaaaaaaaaaaaaaaaaaa",
"aaaaaaaaaaaasaaaaaaaaaaaaaaaaaaaaaaaaaaaaaaaaaaaaaaaaaaaaaaaaaaa",
"aaaaaaaaaaaassaaaaaaaaaaaaaaaaaaaaaaaaaaaaaaaaaaaaaaaaaaaaaaaaaa",
"aaaaaaaaaaaaassaaaaaaaaaaaaaaaaaaaaaaaaaaaaaaaasaaaaaaaaaaaaaaaa",
"aaaaaaaaaaaaaasaaaaaaaaaaaaaaaaaaaaaaaaaaaaaasssaaaaaaaaaaaaaaaa",
"aaaaaaaaaaaaaaaaassaaaaaaaaaaaaaaaaaaaaaaaaassaaaaaaaaaaaaaaaaaa"
};
