/* XPM */
static char * ball_xpm[] = {
"64 64 99 2",
"  	c #9ED68D",
". 	c #9DD58C",
"+ 	c #9DD58D",
"@ 	c #9DD48C",
"# 	c #9ED58D",
"$ 	c #9BD38B",
"% 	c #93CA85",
"& 	c #99D18A",
"* 	c #94CB86",
"= 	c #86BD7B",
"- 	c #8AC17E",
"; 	c #85BC7B",
"> 	c #84BB7A",
", 	c #87BE7C",
"' 	c #95CC86",
") 	c #98CF88",
"! 	c #82B878",
"~ 	c #6EA56B",
"{ 	c #76AD70",
"] 	c #6BA369",
"^ 	c #58925C",
"/ 	c #5B945E",
"( 	c #5E9660",
"_ 	c #FF7E00",
": 	c #94CC86",
"< 	c #73AA6E",
"[ 	c #58915C",
"} 	c #57915C",
"| 	c #548E5A",
"1 	c #538D59",
"2 	c #669E66",
"3 	c #FFC20E",
"4 	c #9BD28A",
"5 	c #8BC27F",
"6 	c #6CA369",
"7 	c #528C59",
"8 	c #528D59",
"9 	c #99D089",
"0 	c #80B677",
"a 	c #629A62",
"b 	c #548D5A",
"c 	c #8FC682",
"d 	c #7CB274",
"e 	c #59925D",
"f 	c #8CC380",
"g 	c #639B63",
"h 	c #FFCD9E",
"i 	c #97CF88",
"j 	c #72A96D",
"k 	c #9CD48C",
"l 	c #7DB374",
"m 	c #558F5B",
"n 	c #649C64",
"o 	c #538D5A",
"p 	c #83BA7A",
"q 	c #568F5B",
"r 	c #8DC581",
"s 	c #5A935E",
"t 	c #83B979",
"u 	c #7DB375",
"v 	c #9BD18A",
"w 	c #6AA368",
"x 	c #90C883",
"y 	c #629A63",
"z 	c #000000",
"A 	c #8EC581",
"B 	c #303030",
"C 	c #679E66",
"D 	c #73AB6F",
"E 	c #A51319",
"F 	c #78AF72",
"G 	c #86BD7C",
"H 	c #8DC381",
"I 	c #79AF73",
"J 	c #5D9660",
"K 	c #8BC17F",
"L 	c #70A86C",
"M 	c #5F9761",
"N 	c #99D189",
"O 	c #81B877",
"P 	c #5D955F",
"Q 	c #659D64",
"R 	c #9AD28A",
"S 	c #83BA79",
"T 	c #90C782",
"U 	c #639C64",
"V 	c #689F66",
"W 	c #B28709",
"X 	c #7FB576",
"Y 	c #69A167",
"Z 	c #98D089",
"` 	c #7EB576",
" .	c #5F9760",
"..	c #71A86C",
"+.	c #464646",
"@.	c #81B878",
"#.	c #86B677",
"$.	c #B2B2B2",
"%.	c #979797",
"                                                                                                    . . . .                     ",
"                                                                                                    . . . .                     ",
"                                                                                                    . . . .                     ",
"                                                                                                    . . . .                     ",
"                                                                                                    . . . .                     ",
"                                                                                                    . . . .                     ",
"                                                                                                    . . . .                     ",
"                                                                                                    . . . .                     ",
"                                                . . .                                                                           ",
"                                                . . .                                                                           ",
"                                            +   @ @ @ #                                                                         ",
"                                  + $ % & * = - ; > > , ' .                                                                     ",
"                                ) , ! ~ { ] ^ / / / / ( _ _ _ _ _ _ _ _ _                                                       ",
"                            @ : < [ } } | | 1 1 2 _ _ _ _ _ _ _ _ _ _ _ _ _ 3 3                                                 ",
"                          4 5 6 | 7 7 7 8 7 1 _ _ _ _ _ 3 _ _ _ _ _ _ _ _ 3 3 _ _ _                                             ",
"                        9 0 a b 7 7 7 7 7 7 _ _ _ _ 3 3 _ _ _ _ _ _ 3 _ _ 3 3 3 _ _ _                                           ",
"                    $ c d e 1 7 7 7 7 7 _ _ _ _ _ _ 3 3 3 3 _ _ _ _ 3 _ _ _ _ 3 _ _ _ 3 3                                       ",
"                    f g ^ 8 7 7 7 7 1 _ 3 3 _ _ _ _ _ _ _ 3 3 _ _ 3 3 _ h h h h _ _ _ _ 3 _                                     ",
"                  i j | 7 7 7 1 7 7 _ _ _ 3 _ _ _ _ _ _ 3 3 _ 3 3 3 _ _ h h h h h h _ _ 3 3 _                                   ",
"                k l m [ 7 7 7 1 7 _ _ _ _ _ 3 _ _ 3 3 3 _ _ _ 3 3 _ _ _ _ h h h h h h _ 3 _ _ _                                 ",
"                * n 7 o 7 7 7 7 7 _ _ _ 3 3 _ _ _ 3 3 _ _ _ _ _ 3 3 _ _ _ h h h h h h h _ _ _ _                                 ",
"              + p q 7 7 7 7 7 1 _ _ _ _ 3 3 _ _ _ _ 3 3 _ _ _ _ _ 3 _ _ _ h h h h h h h h _ _ _ 3                               ",
"              4 ~ 8 7 7 7 7 7 _ _ _ _ _ _ 3 3 3 3 3 3 _ 3 3 3 3 3 _ _ _ _ _ _ h h h h h h h 3 3 3 _                             ",
"              r s 7 7 7 7 7 7 _ _ _ _ _ _ _ _ 3 _ _ _ 3 _ _ _ 3 3 _ _ _ _ 3 3 _ _ h h h h h h _ _ _                             ",
"              t q 7 7 7 7 7 _ _ 3 _ _ _ _ _ _ 3 3 _ _ _ _ _ _ 3 3 3 3 3 3 _ 3 _ _ _ _ 3 h h h _ _ _ _                           ",
"              u | 7 7 7 7 7 _ _ 3 3 3 3 _ _ 3 3 3 _ _ _ _ _ _ 3 _ _ _ _ 3 3 3 _ _ _ 3 _ _ h h _ _ _ _                           ",
"            v w 7 7 7 7 7 7 _ _ _ _ 3 3 _ 3 3 _ _ _ _ _ _ _ _ 3 _ _ _ _ _ _ _ _ _ 3 _ _ _ _ _ _ 3 3 3 3                         ",
"            x y 1 7 7 7 7 _ _ _ _ _ 3 _ _ _ 3 _ _ z z z z z z z z z z z z z z z z _ _ _ _ _ _ _ 3 _ _ _                         ",
"            A y 1 7 7 7 7 _ _ _ _ _ 3 _ 3 3 _ _ _ z B B B z B B B B B B z B B B z _ _ _ _ _ _ _ 3 _ _ _                         ",
"            x C | 7 7 7 7 _ _ _ _ _ 3 3 3 3 3 _ _ z B B B B z B B B B z B B B B z 3 3 _ 3 3 3 3 _ _ _ _                         ",
"            & D 7 7 7 7 7 _ _ _ _ _ _ _ _ 3 _ _ _ z B B B E E B B B B E E B B B z _ _ 3 3 _ _ _ _ _ _ _                         ",
"            & F 1 7 7 7 7 _ _ _ _ _ _ _ _ 3 _ _ _ z B B B E E B B B B E E B B B z _ _ 3 3 3 3 _ _ _ _ _                         ",
"            . G } 7 7 7 7 _ _ _ _ _ 3 3 3 3 3 _ _ z B B B B z z B B z z B B B B z _ _ 3 3 _ _ 3 _ _ _ _                         ",
"              H ( 1 7 7 7 _ 3 3 3 _ 3 _ _ _ 3 _ _ z B B B z B B z z B B z B B B z _ _ _ 3 _ _ 3 _ 3 3 3                         ",
"              ) I J 1 7 7 _ 3 _ 3 _ 3 _ _ _ 3 _ _ z B B z z z z z z z z z z B B z _ _ _ 3 _ _ 3 3 3 _ _                         ",
"              $ K L M 1 7 _ _ _ 3 3 3 _ _ _ 3 _ _ z B B B B B B B B B B B B B B z _ _ _ 3 3 _ _ _ _ _ _                         ",
"              + N O P e 7 7 _ _ _ _ _ _ _ _ _ 3 _ z B B B B B B z z B B B B B B z _ _ _ _ 3 _ _ _ _ _                           ",
"                # 5 Q Q q 7 _ _ _ _ _ _ _ _ _ _ 3 z B B B B B B B B B B B B B B z _ _ _ 3 3 _ _ _ _ _                           ",
"                  R f S C e _ _ _ z z z z z z z z z B B B B B B B B B B B B B B z z z z z z z z z _ _                           ",
"                    . T 6 U V _ _ z B B B B B B W W B B B B B B B B B B B B B B W W B B B B B B z _                             ",
"                      4 X M Y _ _ z B B B B B B B W W B B B B B B B B B B B B W W B B B B B B B z _                             ",
"                        Z G `  ._ z B B B B B B B B W W B B B B B B B B B B W W B B B B B B B B z                               ",
"                          . : ..e z B B B B B B B B B W W B B +.B B B B B W W B B B B B B B B B                                 ",
"                            . * @.z B B B B B B B B B B W W B B B B B B W W B B B B B B B B B B                                 ",
"                                + Z B B B B B B B B B B B W W B B B B W W B B B B B B B B B _                                   ",
"                                    + B B B B B B B B B B B W W B B W W B B B B B B B B B B                                     ",
"                                        B B B B B B B B B B B W W W W B B B B B B B B B B                                       ",
"                                            B B B B B B B B B B W W +.+.+.+.+.+.+.+.+.                                          ",
"                                            #.B B B B B B B B $.%.%.$.+.+.+.+.+.+.+.. . . .                                     ",
"                                                  B B B B B %.%.%.%.%.%.+.+.+.+.    . . . .                                     ",
"                                                        B B $.%.%.%.%.$.+.          . . . .                                     ",
"                                                                                    . . . .                                     ",
"                                                                                    . . . .                                     ",
"                                                                                    . . . .                                     ",
"                                                                                    . . . .                                     ",
"                                                                                    . . . .                                     ",
"                                                                                                                                ",
"                                                                                                                                ",
"                                                                                                                                ",
"                                                                                                                                ",
"                                                                                                                                ",
"                                                                                                                                ",
"                                                                                                                                ",
"                                                                                                                                "};
