/* XPM */
static char * ball_xpm[] = {
"64 64 109 2",
"  	c #9ED68D",
". 	c #9DD58C",
"+ 	c #FF7E00",
"@ 	c #87002B",
"# 	c #FF9633",
"$ 	c #5E001E",
"% 	c #B25800",
"& 	c #990030",
"* 	c #410014",
"= 	c #9BD38B",
"- 	c #94CC85",
"; 	c #9CD48C",
"> 	c #7C3D00",
", 	c #86BE7A",
"' 	c #98D088",
") 	c #77B06F",
"! 	c #8FC781",
"~ 	c #9CD48B",
"{ 	c #6CA668",
"] 	c #99D189",
"^ 	c #67A265",
"/ 	c #7FB775",
"( 	c #96CE87",
"_ 	c #9DD58D",
": 	c #5F9B5F",
"< 	c #66A164",
"[ 	c #7DB674",
"} 	c #7EB775",
"| 	c #95CD86",
"1 	c #68A265",
"2 	c #81B977",
"3 	c #97CF87",
"4 	c #5F9C5F",
"5 	c #6AA466",
"6 	c #82BA78",
"7 	c #97CF88",
"8 	c #83BB78",
"9 	c #83BC79",
"0 	c #609C5F",
"a 	c #6BA667",
"b 	c #87BF7B",
"c 	c #9AD28A",
"d 	c #609C60",
"e 	c #6FA96A",
"f 	c #8CC47F",
"g 	c #629E61",
"h 	c #76AF6F",
"i 	c #92CA84",
"j 	c #80B876",
"k 	c #98CF88",
"l 	c #6EA869",
"m 	c #8BC37E",
"n 	c #639F62",
"o 	c #79B271",
"p 	c #6AA567",
"q 	c #86BE7B",
"r 	c #639E62",
"s 	c #77B070",
"t 	c #91C983",
"u 	c #619C60",
"v 	c #6DA769",
"w 	c #85BD7A",
"x 	c #69A365",
"y 	c #7CB574",
"z 	c #78B170",
"A 	c #8CC480",
"B 	c #67A264",
"C 	c #75AF6E",
"D 	c #8AC37E",
"E 	c #75AE6E",
"F 	c #8AC27E",
"G 	c #98D089",
"H 	c #6BA567",
"I 	c #79B171",
"J 	c #93CB84",
"K 	c #639E61",
"L 	c #619D60",
"M 	c #90C882",
"N 	c #69A466",
"O 	c #65A063",
"P 	c #71AB6B",
"Q 	c #8FC782",
"R 	c #7BB372",
"S 	c #64A062",
"T 	c #629D61",
"U 	c #8DC580",
"V 	c #649F62",
"W 	c #68A365",
"X 	c #8BC37F",
"Y 	c #9AD289",
"Z 	c #67A164",
"` 	c #82BB78",
" .	c #99D18A",
"..	c #70AA6B",
"+.	c #65A163",
"@.	c #6CA667",
"#.	c #72AB6C",
"$.	c #7BB472",
"%.	c #85BE7A",
"&.	c #90C782",
"*.	c #9BD38A",
"=.	c #8AC27D",
"-.	c #6FA869",
";.	c #6EA86A",
">.	c #75AF6F",
",.	c #78B171",
"'.	c #7EB774",
").	c #82BA77",
"!.	c #88C17C",
"                                                                                                    . . . .                     ",
"                                                                                                    . . . .                     ",
"                                                                                                    . . . .                     ",
"                                                    + + + + + + + + + + +                           . . . .                     ",
"                                            + + + + @ + + @ + @ @ @ @ @ @ + + + +                   . . . .                     ",
"                                        + + @ @ @ + @ + + + + + + + @ @ @ @ @ @ @ + +               . . . .                     ",
"                                    + + @ @ @ @ @ + + + + + + + + @ + + + @ + + @ + @ + +           . . . .                     ",
"                                + + @ @ @ + + + + + + + + + + + + + + + + + + + + + + + @ + +       . . . .                     ",
"                              + @ @ @ + + + + + + + + + + + + + + + + + + + + + + + + + @ @ @ +                                 ",
"                            + @ @ @ + + + + + + + + + + + + + + + + + + + + + + + + + + + + @ @ +                               ",
"                        + + @ @ + + + + + + + + + + + + + + + + + + + + + + + + + + + + + + + @ @ + +                           ",
"                      + @ @ @ + + + + # + # # # # # # # # # + + + + + + + + + + + + + + + + + @ @ @ @ +                         ",
"                    + @ @ @ + @ + + # # # # # # + + + + + + + + + + + + + + + + + + + + + + + @ @ @ @ @ +                       ",
"                    + @ @ @ + + # # # # # # # + + + + + + + + + + + + + + + + + + + + + + + + + @ @ @ @ +                       ",
"                  + @ @ @ + @ + # # # # # # + + + + + + + + + + + + + + + + + + + + + + + + + + @ @ @ @ @ +                     ",
"                + @ @ @ @ + + + # # # # + + + + + + + + + + + + + + + + + + + + + + + + + + + + + + @ @ @ @ +                   ",
"              + @ @ @ @ + + + # # # + + + + + + + + + + + + + + + + + + + + + + + + + + + + + + + + @ @ $ $ @ +                 ",
"              + @ @ @ @ + + + # # + + + + + + + + + + + + + + + + + + + + + + + + + + + + + + + + + @ @ $ $ $ +                 ",
"            + @ @ @ @ + + + + # # + + + + + + + + + + + + + + + + + + + + + + + + + + + + + + + + + + + $ $ $ @ +               ",
"            + @ @ @ @ + + + + # + + + + + + + + + + + + + + + + + + + + + + + + + + + + + + + + + + + % $ $ $ $ +               ",
"          + @ @ @ @ @ + + + # # + + + + + + + + + + + + + + + + + + + + + + + + + + + + + + + + + + + % % $ $ $ $ +             ",
"          + @ @ @ @ + + + + # # + + + + + + + + + + + + + + + + + + + + + + + + + + + + + + + + + + % % % $ $ $ $ +             ",
"        + @ @ @ @ @ + + + + # + + + + + + + + + + + + + + + + & + + + + + + + + + + + + + + + + + + % % % % $ $ $ $ +           ",
"        + @ @ @ @ + + + + + # + + + + + + + + + + + + + + + & & + + + + + + + + + + + + + + + + + + % % % % % $ $ $ +           ",
"        + @ @ @ @ + + + + + + + + + + + + + + + + + + + + + & & & + + + + + + + + + + + + + + + + + % % % % % $ $ $ +           ",
"        + @ @ @ + + + + + + + + + + + + + + + + + + + + + & & & & + + + + + + + + + + + + + + + + + % % % % % $ $ $ %           ",
"      + @ @ @ @ + + + + + + + + + + + + + + + + + + + + & & & & & & + + + + + + + + + + + + + + + % % % % % % $ $ $ * %         ",
"      + @ @ @ @ + + + + + + + + + + + + + + + + + + + + & & & & & & + + + + + + + + + + + + + + + % % % % % % % * $ $ %         ",
"      + @ @ @ @ + + + + + + + + + + + + + + + + + & & & & & & & & & & & & & + + + + + + + + + + + % % % % % % @ $ $ $ %         ",
"      + @ @ @ @ + + + + + + + + + + + + + + + + & & & & & & & & & & & & & & & + + + + + + + + + + % % % % % % % $ $ $ %         ",
"      + @ @ @ @ @ + + + + + + + + + + + + + + & & & & & & & & & & & & & & & & + + + + + + + + + + % % % % % % % $ $ $ %         ",
"      + @ @ @ @ @ + + + + + + + + + + + + + + + & & & & & & & & & & & & & & + + + + + + + + + + % % % % % % % % $ $ $ % =       ",
"      + @ @ @ @ @ + + + + + + + + + + + + + + + + & & & & & & & & & & & + + + + + + + + + + + + % % % % % % % % $ $ $ % - ;     ",
"      + @ @ @ @ @ + + + + + + + + + + + + + + + + + + + & & & & & & & + + + + + + + + + + + + + % % > % % % % $ $ $ $ % , '     ",
"      + @ @ @ @ @ @ + + + + + + + + + + + + + + + + + + + & & & & + + + + + + + + + + + + + + + % % > % % % % $ $ $ $ % ) ! ~   ",
"      + @ @ @ @ + + + + + + + + + + + + + + + + + + + + + & & & & + + + + + + + + + + + + + + + % % % % % % % $ * $ $ % { , ]   ",
"      + @ @ @ @ @ @ + + + + + + + + + + + + + + + + + + + + & & + + + + + + + + + + + + + + + + % % % % % % % * $ $ * % ^ / ( _ ",
"        + @ @ @ + + + + + + + + + + + + + + + + + + + + + + & & + + + + + + + + + + + + + + + + % % % % % % % $ * * % : < [ - . ",
"        + @ @ @ + + + + + + + + + + + + + + + + + + + + + + + + + + + + + + + + + + + + + + + % % % % % % % $ * * * % : < } | . ",
"        + @ @ @ @ @ + + + + + + + + + + + + + + + + + + + + + + + + + + + + + + + + + + + + + % % % % % % % $ * $ $ % : 1 2 3 . ",
"        + @ @ @ @ + + + + + + + + + + + + + + + + + + + + + + + + + + + + + + + + + + + + + % % % % % % % $ $ * $ $ % 4 5 6 7   ",
"          + @ @ @ @ + + + + + + + + + + + + + + + + + + + + + + + + + + + + + + + + + + + + % % % % % % % $ $ * $ % : : 5 8 '   ",
"          + @ @ @ @ @ + + + + + + + + + + + + + + + + + + + + + + + + + + + + + + + + + + % % % % % % % % $ * $ $ % : 4 5 9 ]   ",
"            + @ @ @ @ @ @ + + + + + + + + + + + + + + + + + + + + + + + + + + + + + + + + % % % % % % % % $ * @ % : : 0 a b c   ",
"            + @ @ @ @ @ @ + + + + + + + + + + + + + + + + + + + + + + + + + + + + + + + + % % % % % % $ $ $ $ @ % : : d e f ~   ",
"              + @ @ @ @ @ + + + + + + + + + + + + + + + + + + + + + + + + + + + + + + + + % % % % % % $ $ $ $ % : : : g h i .   ",
"              + @ @ @ @ @ + + + + + + + + + + + + + + + + + + + + + + + + + + + + + + + + % % % % % $ $ $ $ $ % : : : < j k     ",
"                + @ @ @ @ + @ + + + + + + + + + + + + + + + + + + + + + + + + + + + + % % % % @ % % $ $ $ $ % : : : d l m =     ",
"                  + @ @ @ @ @ + + + + + + + + + + + + + + + + + + + + + + + + + + + + % % % % % $ $ $ $ $ % : : : : n o - _     ",
"                    + @ @ @ @ @ @ + + + + + + + + + + + + + + + + + + + + + + + + % % % % % % $ $ $ $ $ % : : : : 0 p q c       ",
"                    + @ @ @ @ @ @ + + + + + + + + + + + + + + + + + + + + + + % % % % % % $ $ $ $ $ $ $ % : : : : r s t ;       ",
"                      + @ @ @ @ @ @ + + + + + + + + + + + + + + + + + % % % % % % % $ $ $ $ $ $ * $ $ % : : : : u v w 7 .       ",
"                        + + @ @ @ @ @ + + @ + + + + + + + + + + + + % % % % % % % % % $ $ $ $ $ $ % % : : : : d x y t ~         ",
"                            + @ @ @ @ @ @ @ @ @ + + + + + + + + + % % % % % % $ $ $ $ $ $ $ $ $ % : : : : : 0 1 z A ] .         ",
"                              + @ @ @ @ @ @ @ @ @ @ @ + + + + + + $ $ $ $ $ * $ $ $ $ $ $ $ $ % : : : : : 4 B C D ' .           ",
"                              _ + + @ @ @ @ @ @ @ @ @ @ @ @ @ @ @ $ $ $ $ $ $ $ $ $ $ $ $ % % : : : : : 0 < E F G .             ",
"                                = F + + @ @ @ @ @ @ @ @ @ @ @ $ $ $ $ $ $ $ $ $ $ $ $ % % : : : : : 4 g H I f ' .               ",
"                                . J z K + + @ @ @ @ @ @ @ @ @ $ $ $ $ $ $ $ $ $ $ % % : : : : : : L 1 E 6 M ] _                 ",
"                                  c w N 0 : + + + + @ @ @ @ $ $ $ $ $ $ $ + + + + : : : : : : d O P 6 Q 7 ;                     ",
"                                  . J R S : : : : : + + + + + + + + + + + : : : : : : : d T < l [ U ' ;                         ",
"                                    c U h V 0 : : : : : : : : : : : : : : : : : 4 0 r W l ) j X ( ~                             ",
"                                      Y f ) Z L : : : : : : : : : : : : : 0 d K Z l h ` m J 7 ~ _                               ",
"                                      .  .! j ..B g d 4 : 4 d T n O O +.< W @.#.$.%.&.' = .                                     ",
"                                        . *.- =./ E -.H p a ;.#.>.,.o o R '.).!.Q 7 =                                           "};
