/* XPM */
static char *_0a4efefa8bd4149c06f9976cccbf11crzaFz82Rsw2vQVel[] = {
/* columns rows colors chars-per-pixel */
"32 32 19 1 ",
"  c None",
". c #1F0E1C",
"X c #1B2632",
"o c #3E2137",
"O c #70377F",
"+ c #17434B",
"@ c #584563",
"# c #9A6348",
"$ c #E4943A",
"% c #D79B7D",
"& c #83769C",
"* c #964BA8",
"= c #9E73EB",
"- c #CB5CCF",
"; c #8C8FAE",
": c #F5EDBA",
"> c #C2C3C7",
", c #F5C4FF",
"< c #FFF1E8",
/* pixels */
"                                ",
"                                ",
"             ######             ",
"           .#%%%%%%#.           ",
"          @;$#%%%%#$;@          ",
"         @:%#$####$#%:@         ",
"          @@@######@@@          ",
"          @:;@@@@@@;:@          ",
"          @>:%%%%%%:>@          ",
"          +@>>>>>>>>@+          ",
"         +;@;>>>>>>;@;+         ",
"        +@&;>;>>>>;>;&@+        ",
"       +@&><>>>>>>>><>&@+       ",
"       @<><><>>><>><><>&@       ",
"       @#<><>>><><>><>>#@       ",
"       @###@>>>>< >>@###@       ",
"       @::%##########%%%@       ",
"       @:.%%%%%%%%%%%%%%@       ",
"       @:%.%%%%%%%%ooo%%@       ",
"       @:%%..%ooo%%o%%o%@       ",
"       @:%..%o%%oooo%%%%@       ",
"       @@#%%%%%%%%%%%%#@@       ",
"       @<@############@>@       ",
"       @<<<>>X===--X>>>;@       ",
"       @<<>;OX*=-,-XO>>;@       ",
"       @<><&OX**==,XO&>;@       ",
"       @<<&;OOX***XOO&&;@       ",
"       @<&<&&OOXXXOO&&&@@       ",
"       +@<&;&&OOOOO&&&@@+       ",
"        +@<&;&&&&&&&&@@+        ",
"         +@@@@@@@@@@@@+         ",
"                                "
};
