/* XPM */
static char *bottle_resized[] = {
/* columns rows colors chars-per-pixel */
"64 64 230 2 ",
"   c #1E0E1C",
".  c #362332",
"X  c #432A2F",
"o  c #432833",
"O  c #56383B",
"+  c #55453C",
"@  c #2B2941",
"#  c #382D4C",
"$  c #32314F",
"%  c #352F50",
"&  c #3D2E52",
"*  c #2E3E53",
"=  c #543341",
"-  c #5E3B46",
";  c #483957",
":  c #603C47",
">  c #523364",
",  c #573068",
"<  c #5C316C",
"1  c #653576",
"2  c #364150",
"3  c #384558",
"4  c #355857",
"5  c #365A59",
"6  c #3F635D",
"7  c #394E62",
"8  c #4F4854",
"9  c #48445D",
"0  c #694643",
"q  c #714A4D",
"w  c #6E554E",
"e  c #66485B",
"r  c #654A5C",
"t  c #724E54",
"y  c #7B5454",
"u  c #516049",
"i  c #40655D",
"p  c #776D5F",
"a  c #584967",
"s  c #57516B",
"d  c #614D6C",
"f  c #6A5268",
"g  c #735566",
"h  c #755768",
"j  c #765A6A",
"k  c #614E71",
"l  c #684B78",
"z  c #635374",
"x  c #6B5C79",
"c  c #715F71",
"v  c #426B69",
"b  c #5A6566",
"n  c #66656C",
"m  c #68676C",
"M  c #69686C",
"N  c #686175",
"B  c #786476",
"V  c #7D6C79",
"C  c #727E73",
"Z  c #8E5A3F",
"A  c #B6743F",
"S  c #845749",
"D  c #885A4E",
"F  c #845A55",
"G  c #9A5C5E",
"H  c #9A6247",
"J  c #9C664A",
"K  c #866651",
"L  c #956353",
"P  c #95675C",
"I  c #9A7D57",
"U  c #9B745D",
"Y  c #A76B44",
"T  c #B4764B",
"R  c #A76E51",
"E  c #A96E52",
"W  c #AA7154",
"Q  c #A5745B",
"!  c #B67C5B",
"~  c #935E65",
"^  c #9A6868",
"/  c #9A7468",
"(  c #8B6D76",
")  c #83787A",
"_  c #A36A6B",
"`  c #A47A66",
"'  c #AC7966",
"]  c #B57C63",
"[  c #B27E6C",
"{  c #4F8266",
"}  c #508367",
"|  c #748772",
" . c #659671",
".. c #7FB17D",
"X. c #CA823D",
"o. c #B18158",
"O. c #8D9175",
"+. c #AC8267",
"@. c #B8846A",
"#. c #BB8573",
"$. c #B98575",
"%. c #B08B79",
"&. c #84A973",
"*. c #83B27B",
"=. c #9BB97B",
"-. c #A0A873",
";. c #CA8341",
":. c #CA8E57",
">. c #C48869",
",. c #C88D6F",
"<. c #C08973",
"1. c #CA8E71",
"2. c #CC9172",
"3. c #CB957A",
"4. c #D29778",
"5. c #D1967A",
"6. c #DA9E7F",
"7. c #743A83",
"8. c #754386",
"9. c #774788",
"0. c #78438A",
"q. c #6E5786",
"w. c #76568A",
"e. c #7B5B90",
"r. c #6B6784",
"t. c #7A6A85",
"y. c #78698E",
"u. c #607788",
"i. c #7B6B93",
"p. c #7B799A",
"a. c #7A57B2",
"s. c #874B91",
"d. c #816D84",
"f. c #87798B",
"g. c #806A97",
"h. c #826B99",
"j. c #82759C",
"k. c #8A739D",
"l. c #857A9D",
"z. c #9A4BA8",
"x. c #8C56A7",
"c. c #9B54B9",
"v. c #B55FB2",
"b. c #857BA1",
"n. c #9676A2",
"m. c #A666B8",
"M. c #C15CAF",
"N. c #9C5CC7",
"B. c #9D6FC5",
"V. c #9C66D7",
"C. c #AD69DA",
"Z. c #9F70EA",
"A. c #A771E9",
"S. c #D46EDC",
"D. c #CB75E0",
"F. c #8B8499",
"G. c #98899C",
"H. c #999091",
"J. c #A99493",
"K. c #89A180",
"L. c #8CB282",
"P. c #8CB682",
"I. c #86BD81",
"U. c #93BB85",
"Y. c #B4A896",
"T. c #B5B195",
"R. c #8B88A6",
"E. c #968DA9",
"W. c #9A93AB",
"Q. c #9B9BB5",
"!. c #A298AE",
"~. c #A29CB1",
"^. c #9FA1B6",
"/. c #ACA6AD",
"(. c #B6ABAB",
"). c #B8ABAA",
"_. c #BDB2AA",
"`. c #A9A6B7",
"'. c #A2A3B8",
"]. c #B4A7B8",
"[. c #AEB0BE",
"{. c #B8B5B7",
"}. c #C19884",
"|. c #DB9F80",
" X c #DCA181",
".X c #D5A68F",
"XX c #CAA991",
"oX c #D4B99B",
"OX c #E0A281",
"+X c #E5B58F",
"@X c #CBB6A9",
"#X c #C9BAB5",
"$X c #C5B4BD",
"%X c #99CB87",
"&X c #9ED68D",
"*X c #9FD88E",
"=X c #9FDB90",
"-X c #A0DA8E",
";X c #A2DC90",
":X c #D3C39A",
">X c #D2C6A7",
",X c #D2C4B2",
"<X c #DEDABE",
"1X c #E8D6AA",
"2X c #C5E3B3",
"3X c #F3E2B1",
"4X c #B88CD9",
"5X c #B8AFC0",
"6X c #B5B3C2",
"7X c #B7B9C2",
"8X c #BABCC4",
"9X c #C6BEC6",
"0X c #DF9CF3",
"qX c #BFC2C5",
"wX c #C2C3C7",
"eX c #C3C4C9",
"rX c #CAC5CA",
"tX c #CDCCCD",
"yX c #D5C7C8",
"uX c #D5D1CE",
"iX c #DAD5D4",
"pX c #DBD7D6",
"aX c #E4D7C5",
"sX c #E7D9D7",
"dX c #E6DEDB",
"fX c #E3E6D3",
"gX c #EBE2DE",
"hX c #ECE5E2",
"jX c #F8EDE5",
"kX c #FFF5EB",
/* pixels */
"&X&X&X&X&X&X&X-X&X&X&X&X&X&X&X&X&X*X&X&X&X&X&X&X&X&X&X*X&X&X&X&X&X&X&X&X&X&X&X&X&X*X&X&X*X&X&X&X&X&X&X&X&X-X&X&X&X&X&X&X&X&X-X&X",
"&X&X&X&X&X*X&X&X&X&X&X-X&X&X&X&X&X&X&X&X&X&X&X&X&X&X&X*X*X*X*X*X&X*X*X&X*X&X&X&X&X&X&X&X&X&X&X*X&X&X&X&X&X&X&X&X&X&X&X&X&X&X&X&X",
"&X&X&X&X&X&X*X&X&X&X&X&X&X&X-X&X&X&X&X&X&X&X&X&X-X-X*X*X*X*X&X&X=X=X*X=X*X&X=X&X*X&X&X&X&X&X&X&X&X&X&X&X&X&X*X&X&X-X&X&X&X&X&X&X",
"&X&X&X&X&X&X&X&X&X&X&X&X&X&X&X&X&X&X&X&X&X*X-X*X-X%X%X=.=.=.=.=.=.=.=.=.=.%X%X&X*X*X&X&X&X&X&X&X&X&X&X*X&X&X&X&X&X&X&X&X&X&X&X&X",
"-X&X&X&X&X&X&X&X&X&X&X&X&X&X-X&X&X&X&X&X&X*X*X*X-XU.O.I I o.+.I O.o.o.o.I O.=.;X*X*X*X&X&X&X*X&X&X&X&X&X&X&X&X&X&X-X&X&X-X&X&X&X",
"&X&X&X-X&X&X*X&X&X&X&X&X&X&X&X&X&X&X&X*X*X%X*.&.=.-.o.E R J E E H R K W R o.-.=.....%X&X*X&X&X&X&X&X&X&X&X&X&X&X&X&X&X&X&X&X&X&X",
"&X&X&X&X&X&X*X&X&X&X&X&X&X&X&X&X*X&X*X*X*X*.u + K o.@.1.,.1.,.,.>.>.,.,.,.>.o.p + u *.;X*X&X&X&X&X*X&X&X*X&X&X&X&X&X&X&X&X-X&X&X",
"&X&X&X&X&X&X&X&X&X&X-X&X&X&X&X&X&X*X*X%X%X| 8 O Z T >.3.4.6.6.6.6.6.6.6.2.@.T Z O 8 | U.%X*X*X*X&X&X&X&X&X&X&X&X&X&X&X&X&X&X&X&X",
"&X-X&X&X&X&X&X&X&X&X&X&X&X&X&X&X&X&X=XU.| N r.) o.X.T ! 3.|.|.|.6.6.6.2.! T ;.o.) r.N | U.=X=X*X&X&X&X&X&X&X&X&X&X&X&X&X&X&X&X&X",
"&X&X&X&X&X&X&X-X-X&X&X&X&X&X&X-X&X%XU.K.O.t.G.J.:.X.T T @.,.,.,.>.,.1.>.W A X.:.J.H.f.) K.U.%X=X&X&X&X&X&X&X&X&X&X&X&X&X&X-X&X&X",
"&X&X&X&X&X&X&X&X&X&X&X&X&X&X&X&X*XU.C ) Y.>XXX<.T A X.X.T W W W W Q W T ;.X.A o.3.XXoXT.V | U.*X-X&X&X-X&X&X&X&X&X&X&X&X-X&X&X&X",
"&X&X&X&X&X&X&X&X&X&X&X&X&X&X&X-X*XU.C ) Y.@X}.' L Y T ;.Y H H H H H H Y ;.X.H P ' }.oXT.) C P.*X-X&X&X&X&X&X&X&X-X&X&X&X&X&X&X&X",
"&X&X&X&X&X&X&X&X&X&X&X&X&X&X&X&X&X%XU.K.) ( j g r y J Y Y H H H H H H J A H y r f j V ) &.U.%X*X&X&X&X&X&X&X&X&X-X&X&X&X&X&X&X&X",
"&X&X&X&X&X&X&X&X&X&X&X&X&X&X&X&X&X-X-XL.n a M M x f y D D D D D D D D D D y z N B c a n L.;X-X&X&X&X&X&X&X&X&X-X&X&X&X&X&X&X&X&X",
"&X-X&X&X&X&X&X&X&X&X&X&X&X&X&X&X-X-X;XL.n N Y._.G.t.x r e r e d r r r r r f y.H._.Y.c n L.-X=X&X&X&X&X&X&X&X&X&X&X&X&X&X&X&X&X&X",
"&X&X&X&X&X&X&X&X-X&X&X&X&X&X-X&X-X-X-X*.n V >X<X8XW.V g h h g j j j j g g V W.{.aX>XB n L.=X*X*X&X&X&X&X&X&X&X&X&X&X&X&X&X&X-X&X",
"&X&X&X&X;X&X&X&X&X&X*X&X&X&X&X&X&X-X-XL.n B {.uX<X>XY.#.[ $.$.$.$.$.$.%.$.}.>X<XuX{.B n L.-X-X&X&X&X&X&X&X=X&X&X&X&X&X&X&X&X&X&X",
"&X&X&X&X&X&X&X&X&X&X&X&X&X&X&X&X&X-X-XL.b s F.{.aX1X+X.X.X.X.X.X.X.X.X.X.XoX1X<X{.F.s b L.-X-X&X&X&X&X&X&X&X&X&X&X&X&X&X-X&X&X&X",
"&X&X&X&X&X&X&X&X&X&X&X&X&X&X&X&X&X-X;XI.i 3 b f.{.tX,X#X#X#X#X#X#X#X#X#X#X,XtX{.F.b 3 6 L.*X;X-X&X&X&X-X&X&X&X&X-X&X&X&X&X-X&X&X",
"&X&X&X&X&X&X&X&X&X&X&X&X-X&X&X-X-X%XI. .v 7 9 x Q.8XqXqXeXeXeXqXeXeXeXqXeXqX8XW.x 9 7 v  .I.%X-X&X&X&X&X&X&X&X&X&X&X&X&X&X&X&X&X",
"&X&X&X&X;X&X&X&X&X&X&X*X&X&X&X*X-XI.} v u.r.s z F.'.8XqXeXeXqXeXeXqXeXeXeXqX'.F.k s r.u.v } I.;X-X&X&X&X&X&X&X&X&X&X&X&X&X&X&X&X",
"&X&X&X&X&X&X&X&X&X&X&X&X&X*X-X&XI. .5 7 p.l.r.r.R.'.6X7X8XeXeXeXeXeXeX8X7X[.'.R.B r.p.p.7 5  .I.%X-X=X&X&X&X&X&X&X&X&X&X&X&X&X&X",
"&X&X&X&X&X&X&X&X&X&X&X&X&X-X-XI.} 5 3 s y.b.l.R.`.[.^.'.7XeXeXqXeXeXeX7X'.^.[.'.R.p.b.i.s 3 5 } U.;X;X&X&X&X&X&X&X&X&X&X&X-X&X&X",
"&X&X&X;X&X&X&X&X&X&X&X*X*X%XI. .5 * a x l.W.'.[.8X7X'.'.7XeXeXeXwXeXeX7X'.'.7XqX6X'.W.l.x a * 5  .I.%X&X&X&X&X&X&X&X&X&X&X&X&X&X",
"&X&X&X&X&X&X&X&X&X&X&X;X-XI.v 6 3 a q.l.~.9XiXpXtX8X7X7XqXeXeXqX9XqXwX8X7X7X8XtXpXiX8X~.l.x a 3 5 v P.-X;X&X&X&X&X-X&X&X&X&X&X&X",
"&X&X&X&X&X&X&X&X&X&X&X&X-X..i 3 N f.F.~.wXpXgXgXiXtXrXwXeXeXqXrXtXtXeXeXeXrXtXiXgXgXpXwX~.l.r.a 3 v ..-X&X&X&X&X&X&X&X&X&X&X&X-X",
"&X;X&X&X&X&X&X&X&X&X&X;X-XL.b N ].yX7X9XdXgXiXiXgXgXtXwXqXqXqXtXdXdXtXqXqXtXgXgXiXiXgXsXrX~.b.q.a b L.;X&X&X&X&X&X&X&X&X&X&X&X&X",
"&X&X&X&X&X&X&X&X&X&X&X&X-XL.n B @XaXiXpXgXgXiXiXgXdXtXwXqXqXtXiXgXgXiXtXwXtXdXgXiXiXgXgXuX{.G.B k M K.;X;X&X&X&X&X&X&X&X&X&X&X&X",
"&X&X&X&X&X&X&X;X&X&X&X&X;XH.n f ^ XXsXhXsXiXgXgXiXtXeXwXwXtXdXgXiXiXgXsXtXwXtXpXhXhXpXtXtX_.[ F d n L.-X;X&X&X&X&X&X&X&X&X&X&X&X",
"&X&X&X&X&X&X&X&X&X&X&X;X;XP.n e S ' oX,X$X_.rXyXwXwXeXeXeXtXgXgXiXiXfXsXtXwXwXrXtX,X$X).(.J./ S e n L.-X&X&X&X&X&X=X&X&X&X&X&X&X",
"&X&X&X&X&X&X&X&X&X&X&X&X=XL.N e S Y ' +.` / ( F.{.rXrXeXeXeXtXpXgXfX2X2XqXeXeX[.F.( / ` ` / J D e M L.-X;X&X&X&X&X&X&X&X&X&X&X&X",
"&X&X&X&X&X&X&X&X&X&X&X;X=XL.M f P @.+.o.W L t j H.).(.(.).).).@X<X>X%XU.T.).).J.j t L W E E E L f n L.-X=X&X&X&X&X&X&X&X&X&X&X-X",
"&X&X&X&X*X&X&X&X&X&X&X*X-XL.n B T.1X1X:X6.] L D P ` ` ` ` ` ` ` [ +.Q I / ` ` U L L ] 1.1.,.1.' g n L.-X*X&X&X&X&X&X&X&X&X&X&X&X",
"&X&X*X&X&X&X&X&X&X&X&X*X-X*.n V :X3X:XXX X4.! W E R R R R E E E R R R R W W E E W ] 2.|.6.6.|.$.j n L.-X-X&X&X&X&X&X&X&X&X&X&X&X",
"&X&X&X&X&X&X&X&X&X&X&X*X*XL.n V >X:Xp w $.6.4.,.,.,.,.,.<.,.,.>.,.>.1.<.,.,.,.2.1.2.6.6.6.6.6.$.h N L.*X&X&X&X&X&X&X&X&X&X&X&X&X",
"-X&X&X&X&X*X-X&X&X&X&X*X*XL.n V >X:Xy O K +.4.6.|.6.6.6.6.6.|.|.|.|.|.|.6.4.#.[ [ [ ' #.5.6.6.$.h n L.*X&X&X&X&X&X&X&X&X&X&X&X&X",
"&X&X&X&X&X&X&X&X&X&X&X-X-XL.f V >X1X%.K O 0 >.6.OX6.6.6.|.|.|.|.6.6.6.6.6.#.F : : - - y #.|.|.$.h n L.=X&X&X&X&X&X&X&X&X&X&X&X%X",
"&X&X&X&X&X&X&X&X&X&X&X-X-XL.n V >X3X+X@.0 + P ' ' [ 3.4.$.' ' [ [ #.4.6.6.[ - o = - - q ^ $.|.$.h n L.=X-X&X&X&X&X&X&X&X&X&X&X&X",
"&X&X&X&X&X&X&X&X&X&X&X-X-XL.n V >X3X+X4.@.L 0 X X 0 @.<.y - - - : F #.6.|.[ - = G [ [ Q q y <.$.j n L.-X&X&X&X&X%X*X&X%X%X&X&X&X",
"&X&X-X&X-X&X&X&X&X&X&X&X-X*.n V >X3X+X3.@.S .   . 0 P _ q - - O o = ^ [ [ P = - [ OXOX[ y y $.<.h n L.=X-X&X&X&X&X&X&X&X&X&X&X&X",
"&X&X&X&X&X&X-X&X&X&X&X-X-XL.n V >X3X+X@.0 .   . D U q q ^ [ [ ^ = . = : : = o : [ OX6.4.#.#.4.$.j M *.*X*X&X&X&X&X&X&X&X%X&X&X&X",
"&X&X&X&X&X&X&X&X&X&X&X-X*XL.n B Y.oX XQ 0 X X 0 #.<.y y #.OXOX,.F - : : : - - y #.|.|.4.4.1.#./ f M *.*X&X&X%X&X&X&X&X&X&X&X&X&X",
"&X&X-X&X&X&X&X&X&X&X&X*X*XL.m a f ( P W Q ' +.@.4.4.#.#.5.6.6.4.<.[ [ [ [ [ @.#.5.|.|.2.o.Q j f a M ..*X*X&X&X&X&X&X%X&X&X&X&X&X",
"&X&X&X&X&X&X&X&X&X&X&X*X-XL.m d N ( F L >.2.2.2.,.,.2.2.,.,.,.,.1.1.1.1.1.2.2.2.1.1.1.] L F j x a M I.*X&X&X&X&X&X&X*X&X&X%X&X&X",
"&X&X&X&X-X&X&X&X&X&X&X*X-XL.n B ].@XB t L W W E E W W W E Q W Q E E E T E W T W E E R L t c H.G.n n L.-X&X&X&X&X&X&X%X&X&X*X&X&X",
"&X&X&X&X&X&X&X&X&X&X&X-X*XL.n d.yXsXW.( ` @.` ` ` U D S ~ _ ^ ^ ^ _ _ _ _ G S S U ` ` / B f.`.~.x M *.-X&X%X&X&X&X&X&X&X&X%X&X&X",
"&X&X&X&X&X&X&X&X&X&X&X*X-XL.n t.yXjXsXyXaX,X#X).).H.8 ; x.B.B.B.B.N.v.M.M.s.: 8 H.).).(./.'.^.R.z m L.;X&X&X&X&X&X&X&X&X&X&X&X&X",
"&X&X-X&X&X&X&X&X&X&X&X*X*XL.f d.yXkXkXkXjXdXeX6X{.F.2 * a.Z.Z.Z.A.A.S.S.S.z.> # F.{.eXrXeX8XQ.p.l M L.-X&X&X&X&X&X&X&X&X&X%X&X&X",
"&X&X&X&X&X&X&X&X&X&X&X-X-XL.N d.yXkXkXjXpX9X5XR.x.l $ $ 0.V.Z.A.C.D.0X0XS.z.% @ l n.{.eXqX7X^.p.z m *.-X&X&X&X&X&X&X&X&X&X&X%X&X",
"&X&X&X-X&X&X&X&X-X&X&X&X-XK.n d.9XkXjXhXpX8XQ.p.9., . $ 7.c.N.C.C.D.0X0X0Xm.; @ , s.!.6XqX7XQ.p.z M L.-X&X&X&X&X&X%X&X%X&X&X&X&X",
"&X&X&X&X&X&X&X&X&X&X&X-X-X*.n t.yXjXiXiXhXiX!.i.0., @ $ 0.c.c.N.C.A.4X0X0X4X9 . , 0.k.Q.qX8X^.p.k M L.-X*X&X&X&X&X&X&X&X&X&X&X&X",
"&X&X&X&X&X&X&X&X&X&X&X-X-XL.n d.9XjXsXiXpX9X!.x.0.< & % 1 0.z.c.V.Z.C.C.4XE.a & < 8.i.R.^.6XQ.p.l M L.-X*X*X%X&X&X&X&X&X&X&X&X&X",
"&X&X&X&X&X&X&X-X&X&X&X-X-XL.f t.yXkXjXsX5XE.R.k.9.1 1 > & > 0.c.c.N.c.x.k 9 < < 1 0.i.b.R.E.E.b.z M L.-X-X-X&X&X&X&X&X&X&X&X&X&X",
"&X&X&X&X&X&X&X&X&X&X&X-X-XL.n d.yXjXgX9X~.Q.R.b.e.8.7.< & % 1 7.7.7.0.1 & # 1 7.7.w.g.b.j.l.p.y.k M L.-X&X&X&X&X&X&X&X&X%X&X&X&X",
"&X&X&X&X&X&X&X&X&X&X&X&X-XL.n d.yXgX].].9X9XW.b.i.e.7.7.< > & % # # # & > < 1 7.e.h.h.j.l.i.q.k a M P.-X-X-X&X%X&X&X&X%X&X&X&X%X",
"&X&X&X-X&X&X&X&X&X&X-X-X-X*.b N ].9X].].sX9XW.b.b.i.w.7.7.1 & @ . @ @ & 1 7.0.w.h.b.j.j.y.t.d 9 ; b *.-X&X%X&X&X&X&X&X&X&X&X&X&X",
"&X*X&X&X&X&X&X*X&X&X&X-X-X*.5 3 x G.9XyX].E.R.R.l.j.h.e.8.1 < < , , , < 7.7.e.i.j.l.l.i.x d a 9 4 5 *.=X*X&X&X&X%X&X&X&X&X&X&X&X",
"&X&X&X&X&X&X&X&X&X&X&X-X-XI.v 5 3 N ).yX].W.R.R.R.b.l.h.w.9.9.0.9.9.0.0.8.w.h.b.l.j.i.r.a a 9 9 4 { I.=X&X%X&X&X&X&X&X&X%X*X*X%X",
"&X&X&X&X*X&X&X&X&X-X&X&X=X%X%X .4 3 N G.9X9X!.R.R.R.b.k.h.h.h.h.i.i.i.i.g.i.b.b.l.i.x d a 9 2 5 } I.I.=X&X&X&X&X&X%X&X&X&X&X*X&X",
"&X&X&X&X&X&X&X*X&X&X&X&X*X*X-XI.{ 4 3 N ].$Xn.i.i.p.y.y.y.y.y.y.i.i.i.i.y.y.y.y.i.w.a 8 ; 9 5 } I.=X&X&X&X&X&X&X&X&X&X&X&X&X=X%X",
"&X&X&X&X&X*X&X&X&X&X&X*X&X*X*X&XI. .4 3 x V x k z z k k k k k k k k k k k k k k s s r 9 4 4  .I.&X*X*X&X&X&X&X*X&X&X&X&X&X&X&X&X",
"&X&X&X-X&X&X&X&X&X&X&X&X&X&X&X&X&X%X{ 6 b n n M n M M M M M M M M M M M n m m m M M M b 4 { I.=X*X*X&X&X&X&X&X%X&X&X&X&X%X=X%X&X",
"&X&X&X&X*X&X&X*X&X&X&X&X&X&X&X&X-X%XI.*.L.L.P.L.L.P.L.P.P.L.P.P.P.L.L.L.L.L.L.L.*.=.I.*.*.I.%X*X&X&X%X*X&X&X&X&X%X&X%X*X&X&X*X&X",
"&X&X&X&X&X&X&X&X&X&X&X&X&X&X&X&X&X&X=X-X*X*X-X-X-X-X-X-X-X-X-X-X-X-X-X;X;X-X-X;X-X*X*X*X*X*X*X&X%X&X&X&X&X%X&X&X&X&X&X&X&X&X&X&X"
};
