/* XPM */
static char *pixil_frame_0_resized[] = {
/* columns rows colors chars-per-pixel */
"64 64 106 2 ",
"   c #83482F",
".  c #824930",
"X  c #824931",
"o  c #834931",
"O  c #834B33",
"+  c #874B32",
"@  c #874C32",
"#  c #874D35",
"$  c #874E35",
"%  c #874E36",
"&  c #874E37",
"*  c #894C31",
"=  c #884C32",
"-  c #894D32",
";  c #894E34",
":  c #884E35",
">  c #8A4E34",
",  c #8A4F35",
"<  c #884F37",
"1  c #8D4F34",
"2  c #8E4F34",
"3  c #8D5035",
"4  c #8A5139",
"5  c #89513A",
"6  c #8A513A",
"7  c #8E5239",
"8  c #8D553E",
"9  c #8D553F",
"0  c #905236",
"q  c #915236",
"w  c #915337",
"e  c #935437",
"r  c #945437",
"t  c #945438",
"y  c #975639",
"u  c #975739",
"i  c #94563A",
"p  c #98573A",
"a  c #94593F",
"s  c #99583A",
"d  c #99583B",
"f  c #9A583B",
"g  c #9A593B",
"h  c #9B593B",
"j  c #9C593B",
"k  c #9C5A3B",
"l  c #9B5A3C",
"z  c #9A5A3D",
"x  c #98593E",
"c  c #9B5B3E",
"v  c #9C5A3C",
"b  c #9D5A3C",
"n  c #9D5B3C",
"m  c #9C5A3D",
"M  c #9C5B3D",
"N  c #9D5B3D",
"B  c #9E5B3D",
"V  c #9C5B3E",
"C  c #9C5B3F",
"Z  c #9C5C3F",
"A  c #8E5640",
"S  c #905740",
"D  c #915942",
"F  c #915943",
"G  c #945C45",
"H  c #945D46",
"J  c #945D47",
"K  c #9B5D41",
"L  c #9C5C40",
"P  c #9C5D41",
"I  c #9C5D42",
"U  c #9C5E42",
"Y  c #9C5E43",
"T  c #9D5E43",
"R  c #9D5F43",
"E  c #9A5E45",
"W  c #985E47",
"Q  c #9C5F44",
"!  c #9C5F45",
"~  c #9C5F46",
"^  c #9C6046",
"/  c #9C6047",
"(  c #98604A",
")  c #98614B",
"_  c #9C6048",
"`  c #9C6148",
"'  c #9D6148",
"]  c #9C6149",
"[  c #9E6249",
"{  c #9C624A",
"}  c #9C624B",
"|  c #9C634B",
" . c #9A624C",
".. c #9B634D",
"X. c #9B634E",
"o. c #9C634C",
"O. c #9D634C",
"+. c #9C634D",
"@. c #9D644C",
"#. c #9C644D",
"$. c #9C644E",
"%. c #9C644F",
"&. c #9C654F",
"*. c #9D654F",
"=. c #9D6550",
"-. c #9E6650",
/* pixels */
"v v v v k j j j j j j j j j j j j j j j j j j j j j j j j j j j j j j j j j j j j j j j j j j j j j j k v v v v v v v v v v v v ",
"v v v v v v v v v v v v v v v v v v v v v v v v v v v v v v v v v v v v v v v v v v v v v v v v v v v v v v v v v v v v v v v v ",
"v v v M M V C C C C C C C C C C C C C C C C C C C C C C C C C C C C C C C C C C C C C C C C C C C C V M M v v v v v v v v v v v ",
"v v M V L I U Y U U U U U U U U U U U U U U U U U U U U U U U U U U U U U U U U U U U U U U U Y Y Y I L C M v v v v v v v v v v ",
"k v M L Y ~ / _ / / / / / / / / / / / / / / / / / / / / / / / / / / / / / / / / / / / / / / / _ ` _ ^ Y L M v v v v v v v v v v ",
"j v V I ~ ] | o.o.o.o.o.o.o.o.o.o.o.o.o.o.o.o.o.o.o.o.o.o.o.o.o.o.o.o.o.o.o.o.o.o.o.o.o.o.o.o.o.o.| ] ~ I V v k v v v v v v v v ",
"j v C U / | $.%.%.$.$.$.$.$.$.$.$.$.$.$.$.$.$.$.$.$.$.$.$.$.$.$.$.$.$.$.$.$.$.$.$.$.$.$.$.$.#.#.+.o.] ~ I V v k v v v v v v v v ",
"j v C Y _ o.%.&.&.%.%.%.%.%.%.%.%.%.%.%.%.%.%.%.%.%.%.%.%.%.%.%.%.%.%.%.%.%.%.%.%.%.%.&.&.&.$.+.} ] ^ Y L M v v b n n n v v v v ",
"j v C U / o.%.&.&.%.%.%.%.%.%.%.%.%.%.%.%.%.%.%.%.%.%.%.%.%.%.%.%.%.%.%.%.%.%.%.%.%.%.&.&.&.#.} _ ! U L V M v b n N N n b v v v ",
"j v C U / o.$.%.%.$.$.$.$.$.$.$.$.$.$.$.$.$.$.$.$.$.$.$.$.$.$.$.$.$.$.$.$.$.$.$.$.$.$.%.%.$.o.` Q P V M m v v v v v v v v v v v ",
"j v C U / o.$.%.%.$.$.$.$.$.$.$.$.$.$.$.$.$.$.$.$.$.$.$.$.$.$.$.$.$.$.$.$.$.$.$.$.$.$.#.+.o.] ~ I V v v v v l g s p p s g l v v ",
"j v C U / o.$.%.%.$.$.$.$.$.$.$.$.$.$.$.$.$.$.$.$.$.$.$.$.$.$.$.$.$.$.$.$.$.$.%.%.%.#.o.{ ` ~ Y L M v b b b h u e q q e y g v n ",
"j v C U / o.$.%.%.$.$.$.$.$.$.$.$.$.$.$.$.$.$.$.$.$.$.$.$.$.$.$.$.$.$.$.$.$.$.%.%.%.+.{ / Q I L V m v b B n f r 1 * * 1 e s v N ",
"j v C U / o.$.%.%.$.$.$.$.$.$.$.$.$.$.$.$.$.$.$.$.$.$.$.$.$.$.$.$.$.$.$.$.$.$.%.%.$.o.` Q L V M m v v b n v p 0 =     - 0 p v B ",
"j v C U / o.$.%.%.$.$.$.$.$.$.$.$.$.$.$.$.$.$.$.$.$.$.$.$.$.$.$.$.$.$.$.$.$.$.#.+.o.] ~ I V v v v v v h f p t 3 @ . o ; w p v B ",
"j v C U / o.$.%.%.$.$.$.$.$.$.$.$.$.$.$.$.$.$.$.$.$.$.$.$.$.$.$.$.$.$.%.%.%.#.o.{ ` ~ Y L M v b b b h p r q 3 , : % < 7 i d v N ",
"j v C U / o.$.%.%.$.$.$.$.$.$.$.$.$.$.$.$.$.$.$.$.$.$.$.$.$.$.$.$.$.$.%.%.%.+.{ / Q I L V m v b B n f r 2 * + $ 6 8 S a x z v b ",
"j v C U / o.$.%.%.$.$.$.$.$.$.$.$.$.$.$.$.$.$.$.$.$.$.$.$.$.$.$.$.$.$.%.%.$.o.` Q L V M m v v b n v p q *   X & 9 G W E K c v k ",
"j v C U / o.$.%.%.$.$.$.$.$.$.$.$.$.$.$.$.$.$.$.$.$.$.$.$.$.$.$.$.$.$.#.+.o.] ~ I V v v v v v h f p t 3 + X O 5 F ( } ' T C v j ",
"j v C U / o.$.%.%.$.$.$.$.$.$.$.$.$.$.$.$.$.$.$.$.$.$.$.$.$.$.%.%.%.#.o.{ ` ~ Y L M v b b b h p r q 3 > # % 5 A J  .@.[ R Z v j ",
"j v C U / o.$.%.%.$.$.$.$.$.$.$.$.$.$.$.$.$.$.$.$.$.$.$.$.$.$.%.%.%.+.{ / Q I L V m v b B n f r 2 * + # 4 8 D J ) ..O.' T Z v j ",
"j v C U / o.$.%.%.$.$.$.$.$.$.$.$.$.$.$.$.$.$.$.$.$.$.$.$.$.$.%.%.$.o.` Q L V M m v v b n v p q *   X % 8 G (  .X.#.o./ Y C v j ",
"j v C U / o.$.%.%.$.$.$.$.$.$.$.$.$.$.$.$.$.$.$.$.$.$.$.$.$.$.#.+.o.] ~ I V v v v v v h f p t 3 + X O 5 D ( #.*.*.$.o./ U C v j ",
"j v C U / o.$.%.%.$.$.$.$.$.$.$.$.$.$.$.$.$.$.$.$.$.$.%.%.%.#.o.{ ` ~ Y L M v b b b h p r q 3 > # % 5 A H  .*.-.=.$.o./ U C v j ",
"j v C U / o.$.%.%.$.$.$.$.$.$.$.$.$.$.$.$.$.$.$.$.$.$.%.%.%.+.{ / Q I L V m v b B n f r 2 * + # 4 8 D H ( ..*.=.*.$.o./ U C v j ",
"j v C U / o.$.%.%.$.$.$.$.$.$.$.$.$.$.$.$.$.$.$.$.$.$.%.%.$.o.` Q L V M m v v b n v p q *   X % 8 G (  ...#.$.%.&.$.o./ U C v j ",
"j v C U / o.$.%.%.$.$.$.$.$.$.$.$.$.$.$.$.$.$.$.$.$.$.#.+.o.] ~ I V v v v v v h f p t 3 + X O 5 D ( #.*.*.$.$.%.%.$.o./ U C v j ",
"j v C U / o.$.%.%.$.$.$.$.$.$.$.$.$.$.$.$.$.$.%.%.%.#.o.{ ` ~ Y L M v b b b h p r q 3 > # % 5 A H  .*.-.*.$.$.%.%.$.o./ U C v j ",
"j v C U / o.$.%.%.$.$.$.$.$.$.$.$.$.$.$.$.$.$.%.%.%.+.{ / Q I L V m v b B n f r 2 * + # 4 8 D H ( ..*.*.*.$.$.%.%.$.o./ U C v j ",
"j v C U / o.$.%.%.$.$.$.$.$.$.$.$.$.$.$.$.$.$.%.%.$.o.` Q L V M m v v b n v p q *   X % 8 G (  ...#.$.$.$.$.$.%.%.$.o./ U C v j ",
"j v C U / o.$.%.%.$.$.$.$.$.$.$.$.$.$.$.$.$.$.#.+.o.] ~ I V v v v v v h f p t 3 + X O 5 D ( #.*.*.$.$.$.$.$.$.%.%.$.o./ U C v j ",
"j v C U / o.$.%.%.$.$.$.$.$.$.$.$.$.$.%.%.%.#.o.{ ` ~ Y L M v b b b h p r q 3 > # % 5 A H  .*.-.*.$.$.$.$.$.$.%.%.$.o./ U C v j ",
"j v C U / o.$.%.%.$.$.$.$.$.$.$.$.$.$.%.%.%.+.{ / Q I L V m v b B n f r 2 * + # 4 8 D H ( ..*.*.*.$.$.$.$.$.$.%.%.$.o./ U C v j ",
"j v C U / o.$.%.%.$.$.$.$.$.$.$.$.$.$.%.%.$.o.` Q L V M m v v b n v p q *   X % 8 G (  ...#.$.$.$.$.$.$.$.$.$.%.%.$.o./ U C v j ",
"j v C U / o.$.%.%.$.$.$.$.$.$.$.$.$.$.#.+.o.] ~ I V v v v v v h f p t 3 + X O 5 D ( #.*.*.$.$.$.$.$.$.$.$.$.$.%.%.$.o./ U C v j ",
"j v C U / o.$.%.%.$.$.$.$.$.$.%.%.%.#.o.{ ` ~ Y L M v b b b h p r q 3 > # % 5 A H  .*.-.*.$.$.$.$.$.$.$.$.$.$.%.%.$.o./ U C v j ",
"j v C U / o.$.%.%.$.$.$.$.$.$.%.%.%.+.{ / Q I L V m v b B n f r 2 * + # 4 8 D H ( ..*.*.*.$.$.$.$.$.$.$.$.$.$.%.%.$.o./ U C v j ",
"j v C U / o.$.%.%.$.$.$.$.$.$.%.%.$.o.` Q L V M m v v b n v p q *   X % 8 G (  ...#.$.$.$.$.$.$.$.$.$.$.$.$.$.%.%.$.o./ U C v j ",
"j v C U / o.$.%.%.$.$.$.$.$.$.#.+.o.] ~ I V v v v v v h f p t 3 + X O 5 D ( #.*.*.$.$.$.$.$.$.$.$.$.$.$.$.$.$.%.%.$.o./ U C v j ",
"j v C U / o.$.%.%.$.$.%.%.%.#.o.{ ` ~ Y L M v b b b h p r q 3 > # % 5 A H  .*.-.*.$.$.$.$.$.$.$.$.$.$.$.$.$.$.%.%.$.o./ U C v j ",
"j v C U / o.$.%.%.$.$.%.%.%.+.{ / Q I L V m v b B n f r 2 * + # 4 8 D H ( ..*.*.*.$.$.$.$.$.$.$.$.$.$.$.$.$.$.%.%.$.o./ U C v j ",
"j v C U / o.$.%.%.$.$.%.%.$.o.` Q L V M m v v b n v p q *   X % 8 G (  ...#.$.$.$.$.$.$.$.$.$.$.$.$.$.$.$.$.$.%.%.$.o./ U C v j ",
"j v C U / o.$.%.%.$.$.#.+.o.] ~ I V v v v v v h f p t 3 + X O 5 D ( #.*.*.$.$.$.$.$.$.$.$.$.$.$.$.$.$.$.$.$.$.%.%.$.o./ U C v j ",
"j v C U / o.$.&.&.%.#.o.{ ` ~ Y L M v b b b h p r q 3 > # % 5 A H  .*.-.*.$.$.$.$.$.$.$.$.$.$.$.$.$.$.$.$.$.$.%.%.$.o./ U C v j ",
"j v C U / o.$.&.&.%.+.{ / Q I L V m v b B n f r 2 * + # 4 8 D H ( ..*.*.*.$.$.$.$.$.$.$.$.$.$.$.$.$.$.$.$.$.$.%.%.$.o./ U C v j ",
"j v C U / o.$.&.&.$.o.` Q L V M m v v b n v p q *   X % 8 G (  ...#.$.$.$.$.$.$.$.$.$.$.$.$.$.$.$.$.$.$.$.$.$.%.%.$.o./ U C v j ",
"j v C U / o.#.$.#.o.] ~ I V v v v v v h f p t 3 + X O 5 D ( #.*.*.$.$.$.$.$.$.$.$.$.$.$.$.$.$.$.$.$.$.$.$.$.$.%.%.$.o./ U C v j ",
"j v C Y _ o.#.+.} ` ~ Y L M v b b b h p r q 3 > # % 5 A H  .*.-.*.$.$.$.$.$.$.$.$.$.$.$.$.$.$.$.$.$.$.$.$.$.$.%.%.$.o./ U C v j ",
"j v C Y ` o.+.} _ Q I L V m v b B n f r 2 * + # 4 8 D H ( ..*.*.*.$.$.$.$.$.$.$.$.$.$.$.$.$.$.$.$.$.$.$.$.$.$.%.%.$.o./ U C v j ",
"j v C Y _ | o.] ! P V M m v v b n v p q *   X % 8 G (  ...#.$.$.$.$.$.$.$.$.$.$.$.$.$.$.$.$.$.$.$.$.$.$.$.$.$.%.%.$.o./ U C v j ",
"j v V I ^ ] ] ^ U V v v v v v h f p t 3 + X O 5 D ( #.*.*.$.$.$.$.$.$.$.$.$.$.$.$.$.$.$.$.$.$.$.$.$.$.$.$.$.$.%.%.$.o./ U C v j ",
"k v M L Y ~ ~ Y L M v b b b h p r q 3 > # % 5 A H  .*.-.*.$.$.$.$.$.$.$.$.$.$.$.$.$.$.$.$.$.$.$.$.$.$.$.$.$.$.%.%.$.o./ U C v j ",
"v v M C L I I L V m v b B n f r 2 * + # 4 8 D H ( ..*.*.*.$.$.$.$.$.$.$.$.$.$.$.$.$.$.$.$.$.$.$.$.$.$.$.$.$.$.%.%.$.o./ U C v j ",
"v v v M M V V M M v v b n v p q *   X % 8 G (  ...#.$.$.$.$.$.$.$.$.$.$.$.$.$.$.$.$.$.$.$.$.$.$.$.$.$.$.$.$.$.%.%.$.o./ U C v j ",
"v v v v v v v v v v l h f p t 3 + X O 5 D ( #.*.*.$.$.$.$.$.$.$.$.$.$.$.$.$.$.$.$.$.$.$.$.$.$.$.$.$.$.$.$.$.$.%.%.$.o./ U C v j ",
"v v v v v k k v b v g u r 0 3 , $ & 5 A J  .*.-.=.%.%.%.%.%.%.%.%.%.%.%.%.%.%.%.%.%.%.%.%.%.%.%.%.%.%.%.%.%.%.&.&.%.o./ U C v j ",
"v v v v v v v b n v s e 1 = @ : 6 9 F J ) X.*.=.*.&.%.%.%.%.%.%.%.%.%.%.%.%.%.%.%.%.%.%.%.%.%.%.%.%.%.%.%.%.%.&.&.%.o._ Y C v j ",
"v v v v v v v n N v p q *   . % 8 G (  ...#.$.$.$.$.$.$.$.$.$.$.$.$.$.$.$.$.$.$.$.$.$.$.$.$.$.$.$.$.$.$.$.$.$.%.%.$.| / U C v j ",
"v v v v v v v n N v p q *   o < S W } @.O.o.o.o.o.o.o.o.o.o.o.o.o.o.o.o.o.o.o.o.o.o.o.o.o.o.o.o.o.o.o.o.o.o.o.o.o.| ] ~ I V v j ",
"v v v v v v v n n v s e 1 - ; 7 a E ' [ ' / / / / / / / / / / / / / / / / / / / / / / / / / / / / / / / / / / / _ / ~ Y L M v k ",
"v v v v v v v v b v g y e 0 w i x K T R T Y U U U U U U U U U U U U U U U U U U U U U U U U U U U U U U U U U U Y U I L V M v v ",
"v v v v v v v v v v l g s p p d z c C Z Z C C C C C C C C C C C C C C C C C C C C C C C C C C C C C C C C C C C C C V M M v v v ",
"v v v v v v v v v v v v v v v v v v v v v v v v v v v v v v v v v v v v v v v v v v v v v v v v v v v v v v v v v v v v v v v v ",
"v v v v v v v v v v v n N B B N b k j j j j j j j j j j j j j j j j j j j j j j j j j j j j j j j j j j j j j j j j j k v v v v "
};
