/* XPM */
static char *efde289de9d843479c7365851406b947nvYWJHuAvFYowmhk[] = {
/* columns rows colors chars-per-pixel */
"32 32 2 1 ",
"  c #4D2C0C",
". c #905823",
/* pixels */
"                                ",
"  ............................  ",
" . .......................... . ",
" .. ........................ .. ",
" ... ...................... ... ",
" .... .................... .... ",
" ..... .................. ..... ",
" ...... ................ ...... ",
" ....... .............. ....... ",
" ........ ............ ........ ",
" ......... .......... ......... ",
" .......... ........ .......... ",
" ........... ...... ........... ",
" ............ .... ............ ",
" ............. .. ............. ",
" ..............  .............. ",
" ..............  .............. ",
" ............. .. ............. ",
" ............ .... ............ ",
" ........... ...... ........... ",
" .......... ........ .......... ",
" ......... .......... ......... ",
" ........ ............ ........ ",
" ....... .............. ....... ",
" ...... ................ ...... ",
" ..... .................. ..... ",
" .... .................... .... ",
" ... ...................... ... ",
" .. ........................ .. ",
" . .......................... . ",
"  ............................  ",
"                                "
};
