/* XPM */
static char *bush_resized[] = {
/* columns rows colors chars-per-pixel */
"64 64 121 2 ",
"   c #1F1515",
".  c #1E1D19",
"X  c #200E14",
"o  c #211415",
"O  c #211817",
"+  c #251519",
"@  c #231C19",
"#  c #1C2617",
"$  c #1B2917",
"%  c #1C271C",
"&  c #1E2D1A",
"*  c #103F14",
"=  c #1C351E",
"-  c #1B3D1C",
";  c #21221C",
":  c #202B1C",
">  c #142D20",
",  c #1E2A20",
"<  c #153625",
"1  c #1A3525",
"2  c #1C3926",
"3  c #153E2A",
"4  c #1A3E2A",
"5  c #322F26",
"6  c #253426",
"7  c #213B29",
"8  c #293929",
"9  c #343529",
"0  c #31382A",
"q  c #134417",
"w  c #154619",
"e  c #18451B",
"r  c #164A1A",
"t  c #18491B",
"y  c #0E5F1C",
"u  c #13521B",
"i  c #096217",
"p  c #0A6619",
"a  c #0E6B1C",
"s  c #14641F",
"d  c #10691D",
"f  c #0C711E",
"g  c #057B1A",
"h  c #0B7C1E",
"j  c #164822",
"k  c #1F4E21",
"l  c #15442C",
"z  c #134B2D",
"x  c #0F5C2F",
"c  c #115A26",
"v  c #11542E",
"b  c #10582F",
"n  c #2E4027",
"m  c #204D21",
"M  c #2E4229",
"N  c #245325",
"B  c #235F27",
"V  c #3B4D37",
"C  c #355C31",
"Z  c #0D6D23",
"A  c #0D632F",
"S  c #0B6A2F",
"D  c #186922",
"F  c #0A7321",
"G  c #0B7B22",
"H  c #09752E",
"J  c #077F2A",
"K  c #087C2B",
"L  c #0D6430",
"P  c #0B6D30",
"I  c #0A7030",
"U  c #28662B",
"Y  c #3A6336",
"T  c #424C36",
"R  c #485C3F",
"E  c #47613E",
"W  c #4B5C41",
"Q  c #535D45",
"!  c #4A6040",
"~  c #516144",
"^  c #526A49",
"/  c #5C6D4E",
"(  c #4D7045",
")  c #527749",
"_  c #5D714F",
"`  c #07871E",
"'  c #08871E",
"]  c #06891E",
"[  c #03951E",
"{  c #039B1E",
"}  c #01A11F",
"|  c #068626",
" . c #088322",
".. c #058C25",
"X. c #078229",
"o. c #049422",
"O. c #039A20",
"+. c #658659",
"@. c #68855B",
"#. c #658859",
"$. c #718C61",
"%. c #739264",
"&. c #769866",
"*. c #779B68",
"=. c #799B69",
"-. c #7FA970",
";. c #85AD75",
":. c #87B277",
">. c #8EBD7E",
",. c #90BF7F",
"<. c #8FC07F",
"1. c #90C07F",
"2. c #92C382",
"3. c #98CC87",
"4. c #98CD88",
"5. c #9ED68D",
"6. c #A0D98F",
"7. c #A2DD91",
"8. c #A6E295",
"9. c #A8E697",
"0. c #AAE898",
/* pixels */
"5.5.5.5.5.5.5.5.5.6.5.7.7.7.8.9.0.7.2.&.Q 5 @ X X + + + + + + + + + + + + + + o o + 5 ~ &.2.7.0.0.8.7.6.6.6.5.5.5.5.5.5.5.6.5.5.",
"5.5.5.5.5.5.5.5.5.5.5.5.5.5.5.6.6.5.,.%.~ 9 @ O O @ @ @ @ ; @ @ @ @ @ ; @ @ @ o o ; 9 ~ $.,.5.6.6.5.5.6.5.5.5.5.6.5.5.5.5.5.5.5.",
"5.5.5.5.5.5.5.5.6.5.5.3.2.2.>.,.1.>.;.#.E n : # # & & & & : : & & & & & & & : $ # : n E #.;.>.1.,.>.1.2.3.6.5.6.5.5.5.5.6.5.5.5.",
"5.6.5.5.5.5.6.6.7.6.4.2.;.=.%.$.%.$.+.) Y N t q w t t t t t r t r r t t t t t w r r N Y ) @.$.%.$.&.=.;.1.4.6.6.6.5.6.5.5.5.5.5.",
"5.5.5.5.5.5.5.7.8.5.3.:.$._ Q Q Q Q E Y U D a a a a a d d a d a d d d d a a a a a a D U Y E Q Q Q Q _ $.;.3.6.8.6.5.5.5.5.5.5.5.",
"5.5.5.5.5.5.5.7.5.5.>.*._ T 9 5 5 9 n N D G ] ] ] ' ' ] ' ' '  .' ' ' ' ` ` ] ] ] | h D N n 9 5 5 9 T _ *.1.5.6.6.6.5.5.5.5.5.5.",
"5.6.5.5.6.5.5.4.4.<.-.#.E 0 : # # & - u f ' { { { { { o.o.o.o.o.o.o.o.o.o.o.[ { o.o. .Z u - & # # : n E #.-.<.3.4.6.6.5.6.5.5.6.",
"5.5.5.7.7.7.5.,.;.*.#.( C k q q q q u p h [ O.} } { { o.o.o...o...o.......o.....o... .F i r q q q q m C ( +.&.;.2.4.6.6.6.5.5.5.",
"5.5.5.7.7.7.3.;.$./ E C B s d p p a f g ] { O.{ O.O.O.o...| X.X.X.X.X.X.X.X.X.X.X.X.J G F a p p p p s U C R / $.;.3.6.6.6.6.6.5.",
"5.5.5.7.7.5.,.*./ T M t s h ' ` ]  .] ] [ [ [ { O.O.o...X.K H I H H K H H H H H I K K K  .| ] ] ] ' g s m n T / &.1.5.6.6.6.5.5.",
"6.5.5.4.3.>.-.+.R n - u a ' [ { o.o.o.o.[ { { { O.O.o...X.H I I I I I I H H H H H H H X.....o.O.{ [ ' a u - n R #.;.,.3.3.5.5.6.",
"7.5.4.,.;.*.#.( C m u i g [ { O.o.o.o.o.o.{ { { { { o...X.H P P P I I I H K J K J J X.X.| ....O.{ { [ g i u m C ( #.*.;.1.3.5.6.",
"7.5.2.;.$._ E C B d a g ] [ { o...X.X...o.o.{ { } { o...K I I P P I I K X.........| ..| X.X.| ..o.{ { ] g a d B C E _ $.;.2.6.6.",
"7.5.2.=._ T n k s h ] [ [ { o...X.K K X...o.[ { { { o...X.K I I P I I K | ..o.O.o.o...| J K K X...o.[ [ [ ] h s m n T _ &.1.6.8.",
"8.5.>.%.Q 9 & q p ' { { { { o...J H H J | ..o.[ [ o...| K I I P P I I X...o.O.{ { { o...J H H K | ..[ O.{ { ` p e : 9 ~ %.,.5.7.",
"9.7.,.$.Q 5 # * p ] { } } { o.| J H H H X.| ........| X.K I I P P I H X...o.{ { { { [ ..J H I K J | o.o.{ { ] p * # 5 Q $.1.6.9.",
"9.7.,.%.Q 5 # * p ] { } } { o...K H I H K K X.J X.K K K K I I P P P H J ..[ { { { { o...X.H I I H J | ..o.O...p * # 5 Q %.1.7.9.",
"7.5.>.%.Q 9 : q p ' { O.} { o...J H I I I H H H K I H I I I I I P H H J ..o.{ { { { o...X.H I I I H K | o.o.` p q & 0 ~ $.,.6.7.",
"2.>.-.+.! n - r a  .o.O.O.o...| J H H P I I I I I I I I I I I P P I H K | ..o.o.O.o.o.X.K I I P I I H X..... .p u - 0 E +.;.>.2.",
"&.%.+.) Y N u i F G ........| J H H P P P P P I I P P I I I I I I I H K J ..........| X.K I I I P I H H X.|  .F y u N Y ) #.$.&.",
"~ E E Y U D Z F G K J K J J J H H I I P I P I P P I I P P I I I I I I H H X.X.X.J X.J K H I I I I I I H H K J K f d D U Y E E ~ ",
"9 9 n N D G  . .X.H H H H H H H I I I I I I I I I I I I I I I I I I I H H H H H H H H H I I I I I I I I H H K X...]  .s N 0 9 9 ",
"+ @ & t d ' o.o.| K H H H H H H I I I I I I I I I P I I I I P I I P I I I I I I I I P P I I I I I I I I H H K X.o.o.` d r : @ + ",
"X + $ w d ..O.o...X.J K J J J H K I I P I I I I I I I I I I I I I I I I P I P I P P I P P I I I P I I H H X.X...o.o.] a w # O X ",
"+ o # w d ] { O.o...........| J K H I I I I I I I I I I I I I I I I I I P I P I P P I I P I I P I I I K X.X.o.o.O.O.] d t # O o ",
"+ @ : t d ] { { O.o.o.o.o.o.....K I I I P I I I I I I P I I I I I I I I I I I I I I I I I I I I I I H K X.o.o.O.} o.] d t : O + ",
"+ @ : w d ] [ } { { [ { { [ o...X.K I I I I I I I I I I I I I I I I I I I I I I I I I I I I I I I I H X.| o.o.o.O.{ ] d r & @ + ",
"+ ; & t d ] [ { { { { { { [ [ ..K I I P P P I I P I I I P I I I I I I P I I I P I P I P P I P P I I I H X.| ..o.O.o.] d t : @ + ",
"+ @ : r a ` { } } { { { { { [ ..X.H I P P I I I I I I I I I I I I I I I I I P I I I P I I I I I P I I I K X.X.o.[ { ` a t & ; + ",
"+ @ : t d ` [ } O.{ { [ { { o...X.H I P I I I I I I I I I I I I I I I I I I I I I I I I I I I I I I I I I I K | o.[ ` a t : @ + ",
"+ ; : r d ` [ { O.o.o.o.o.o...| K H I I I I K I I I I I I I I I I I I I I I I I H H H H H H I I I I I I P I H X...o.` a t & @ + ",
"+ @ : r a ` [ [ o.............J K I I K K K K K H I I I I I I I I P I P I I H H H K X.X.X.X.K K K I I I P P H X...o.` a t : @ + ",
"+ @ & r d ' o.o...X.X.X.X.X.X.H H I I K X...| X.X.I I P I I I I I I I I I I I K X.| ........| X.K H P P P I I X...o.] d t : ; + ",
"+ ; & r d  .o.o...K I I I H I I I I H X.| ......X.I I I P I P I I I I P P I H K | o.o.o.o.o.....K H I P P I H X...o.] d t : ; + ",
"+ @ & r a ] o...X.I I I I I I I I I I X.....o.| K I I P I I I I I I I I I I H X...[ [ { [ { o...X.H I P I I H X...o...d t & @ + ",
"+ @ & r d ' o...X.I I P P I P P I I I K X.| ..X.X.I I I P I I I I I I I I I H X...[ { } } [ [ ..X.H I P I P K X...o...d t : @ + ",
"+ @ & t d ' [ ..X.H I I P I P I I I I K X.K X.K H I I I I I I I I I I I I I H X. .o.} } { { o...J H I P P I H X.o.[ ' a t & ; + ",
"+ @ & t d ' o.o.X.H I I P I I I I I I I H H I I I I I I I I I I I I P P I I I X...o.[ { { O.o...X.H I P P I K X...[ ' a t & @ + ",
"+ @ & t d ..o...X.H I I I I I I I I I I I I I I I I I I I I I P P P S S S S H K | ..o.o.o.o.o.X.J H I P P I H X.o.o.] a t & @ + ",
"+ ; & t d ..o.o.| I I I P I I I I I I I I I I I I I I I I I P L L A A A b A S S K | ....o...| X.H H I I P P H X...o.] a t & @ + ",
"+ @ & r a ] [ [ X.H I I P I I I I I I I I I I I I I I I I I P L A v v v v v x A H K G X.X.X.X.X.K I I P I I H X...o.` d t & ; + ",
"+ ; : t a ` o.o.X.H I P I I I P I I I I I I I I P P I I I I P L b v z z z z v b A H H H H I I I I I I P I I H X...o.' d t & @ + ",
"+ @ : e s G  ...J H I I P I I P P P P P P P P P P P P P I I P L v z l l l l z v A P I I P P P P P P P P P P H K ....h s w : @ O ",
"+ @ : - c Z G K K I I I I I P P L L A b b A A b x L L L P I P x v z l l l l z v x L P P L L x x A x A L P P H K K G D c - : @ + ",
"@ @ ; 2 e c A S S H I I I P P L L b v v b b b v b b b x L P L L v z l l l l z v A L P L x b v v v v x x L P H S S Z c j = : @ @ ",
"@ ; ; , 2 j v A A P I I I P P A b v z z z z z z z z v b L P L L v z l l l l z b A P P L b v z l z z z x A S P A x v z 2 : ; @ @ ",
"+ @ ; , 1 l z c L P I I I I P x v z z l l l l l l l z b L P P L b v z z z z v b A S S A v z z l l l z x A P S A b z 3 1 : ; @ @ ",
"@ @ @ , 1 3 l b L I I H I I P L v z l l l l l l l l z b L P P L A b v v v v b A S P S x v z l l l l l b A S S A b z 4 1 % ; @ + ",
"O @ ; : 1 3 l b L P I H H I P L v z l l l l l l l z z v L L P P A x A A x A A S P S P x v z l 3 l l z v A P P L v z 3 1 , ; @ @ ",
"@ @ ; % 1 l z b x P P I I I P x b z l l l z z l z l z v L P P P I P P S P S P P P P P A v z l l l l z b A P S A b z 3 1 , ; @ @ ",
"@ @ ; , 1 3 z b x L P P I P P x b z z l l l z l l z z v L P I I I I I P P S P P I I P x b v z z z z v v A L L x v z 3 1 , ; @ + ",
"    @ % 1 l l b b x L P P P P L b z l l l l l l l l z b L I I I I I I P L A A S S P P P L b b v v v b x x A x b v z 3 < , . o o ",
"    . % < l z z z v x x P P P x b z l l l l l l l z z b L P I I H H I P L b b x S P P P A A A A L L L x x b v v z z 3 1 % .     ",
"@ @ ; , 1 3 l l z z v x L P P L b z z l z l z l l l z b L L P I I I P L b z v b A P S P P S P P P P L x b v z z z l l 1 , ; @ @ ",
"9 9 9 8 7 4 l l l l z b L L L x v z z l l l z l l l z v x L L P P P L b v z z v x L P P P P P S P P L x v z l l l 3 4 7 8 0 9 9 ",
"~ ~ W V M 2 1 < 3 l z z x x x b v z l z l z l z z z z z b L L L L L x b v l z v b x A A L A A A L x x x z z l 3 < < 2 M V W ~ ~ ",
"*.$.@.^ V 6 > > < l z v v v v v z z z z l z z l l z z z v v b v v v v z z z z z v v b b b b b b b b v v z z l < > > 6 V ^ @.$.*.",
"2.>.-.@.W 9 % , < l l l z z z z z l l l l l l l l l z l z z z z z z z z z l l z z z z z z z z z z z z z z l 3 1 , , 0 W @.-.>.2.",
"7.5.<.=._ T 0 6 1 4 l 3 l 3 3 3 l 4 l l l l 3 l l l l 4 4 l 3 l l l l 4 4 l l 3 4 3 l 3 3 l 4 l 3 l 3 l l l 4 2 6 0 T _ *.<.5.7.",
"8.7.3.:.%._ W V M 2 2 1 1 1 1 1 1 1 1 2 1 1 1 1 1 1 1 1 1 1 1 1 1 1 1 1 1 1 1 1 1 1 1 1 1 1 1 1 1 1 1 1 1 1 4 M V W _ %.:.3.7.8.",
"7.7.5.2.:.=.@.^ V 8 , % , , , , % , , , , , , , , , , , : , , , , , , % , , , , , , , , , , , , , , , , , , 8 V ^ +.=.:.2.4.7.7.",
"6.5.5.4.3.<.-.+.W 0 @ . . ; ; ; ; ; ; ; ; ; ; ; ; ; ; ; ; ; ; ; ; ; ; ; ; ; ; ; ; ; ; ; ; ; @ % ; @ % . . ; 9 W +.-.2.3.5.5.5.6.",
"5.5.5.6.7.5.<.$.W 0 @ . . @ @ @ @ @ @ @ @ @ @ @ @ @ @ @ @ @ @ @ @ @ @ @ @ @ @ @ @ @ @ @ @ @ @ @ @ @ @   o @ 9 W $.>.5.7.7.5.5.5.",
"5.5.6.7.9.7.2.=.~ 9 @ X   + @ + + @ @ @ @ @ + @ @ @ @ @ + @ @ @ @ @ + @ @ @ @ @ @ @ + @ @ @ + @ @ @ + o o @ 9 ~ *.2.7.8.7.6.5.5."
};
