/* XPM */
static char *floor_resized[] = {
/* columns rows colors chars-per-pixel */
"64 64 2 1 ",
"  c #9DD58C",
". c #9ED68D",
/* pixels */
"................................................................",
"................................................................",
"................................................................",
"................................................................",
"................................................................",
"................................................................",
"................................................................",
"................................................................",
"................................................................",
"................................................................",
"................................................................",
"................................................................",
"................................................................",
"................................................................",
"................................................................",
"................................................................",
"................................................................",
"................................................................",
"................................................................",
"................................................................",
"........................ .......................................",
"................................................................",
"................................................................",
"................................................................",
"................................................................",
"................................................................",
"................................................................",
"................................................................",
"................................................................",
"................................................................",
"................................................................",
"................................................................",
"................................................. ..............",
".............................................         ..........",
"............................................           .........",
"...........................................             ........",
"...........................................              .......",
"..........................................                ......",
"..........................................                ......",
"..........................................                 .....",
"..........................................                  ....",
"..........................................                   ...",
".........................................                    ...",
"........................................                      ..",
"........................................                      ..",
"......................................                        ..",
"......................................                          ",
".....................................                           ",
".....................................                           ",
"....................................                            ",
"...................................                             ",
"...................................                             ",
"..................................                              ",
"..................................                              ",
".................................                               ",
".................................                               ",
"................................                                ",
"................................                                ",
"................................                                ",
"................................                                ",
"................................                                ",
".................................                               ",
".................................                              .",
"..................................                           ..."
};
