/* XPM */
static char * hole_xpm[] = {
"64 64 176 2",
"  	c #9ED68D",
". 	c #A2D792",
"+ 	c #AEDCA1",
"@ 	c #AFDCA2",
"# 	c #A3D794",
"$ 	c #9FD68F",
"% 	c #A8D99A",
"& 	c #C2E3BA",
"* 	c #AAD99C",
"= 	c #9ED58D",
"- 	c #9FD68E",
"; 	c #D4EBCF",
"> 	c #E2F1DF",
", 	c #DBEED6",
"' 	c #D0E9CA",
") 	c #CEE8C7",
"! 	c #C9E6C1",
"~ 	c #A9DA9B",
"{ 	c #C4E4BC",
"] 	c #F2F9F1",
"^ 	c #DEEFDA",
"/ 	c #BDE1B4",
"( 	c #A4D895",
"_ 	c #A5D896",
": 	c #BDE1B3",
"< 	c #BCE1B2",
"[ 	c #E0F0DB",
"} 	c #F9FCF8",
"| 	c #FCFDFB",
"1 	c #FAFCF9",
"2 	c #F5FAF4",
"3 	c #C5E5BD",
"4 	c #B3DDA7",
"5 	c #E9F4E6",
"6 	c #FAFDFA",
"7 	c #F3F9F1",
"8 	c #CFE9C8",
"9 	c #A6D998",
"0 	c #C6E5BE",
"a 	c #F3F9F2",
"b 	c #EDF6EB",
"c 	c #BBE1B1",
"d 	c #A2D793",
"e 	c #CBE7C3",
"f 	c #F4FAF3",
"g 	c #F8FCF7",
"h 	c #EAF5E7",
"i 	c #E2F1DE",
"j 	c #DCEED7",
"k 	c #B2DDA7",
"l 	c #A1D792",
"m 	c #D6EBD0",
"n 	c #FBFDFA",
"o 	c #FDFEFC",
"p 	c #D6ECD1",
"q 	c #A6D997",
"r 	c #B8DFAE",
"s 	c #FEFFFE",
"t 	c #F5FAF3",
"u 	c #C0E2B7",
"v 	c #F0F8EF",
"w 	c #F1F8F0",
"x 	c #AEDBA1",
"y 	c #ABDB9E",
"z 	c #A1D791",
"A 	c #9DD58C",
"B 	c #ACDB9F",
"C 	c #D6EBD1",
"D 	c #F4F9F2",
"E 	c #FFFFFE",
"F 	c #CDE8C7",
"G 	c #BAE0B0",
"H 	c #F1F9F0",
"I 	c #FDFEFD",
"J 	c #DEEFD9",
"K 	c #C0E2B6",
"L 	c #F0F7EE",
"M 	c #A0D68F",
"N 	c #BFE2B6",
"O 	c #F6FBF5",
"P 	c #F1F8EF",
"Q 	c #F7FBF6",
"R 	c #D9EDD4",
"S 	c #ADDBA0",
"T 	c #CDE7C5",
"U 	c #C2E3B9",
"V 	c #000000",
"W 	c #9DD58D",
"X 	c #B8E0AE",
"Y 	c #FFFFFF",
"Z 	c #D7EDD2",
"` 	c #A4D894",
" .	c #F2F8F0",
"..	c #E7F3E4",
"+.	c #F4F9F3",
"@.	c #F0F8EE",
"#.	c #EFF7EE",
"$.	c #EAF5E8",
"%.	c #E5F2E2",
"&.	c #FAFDF9",
"*.	c #C8E7BF",
"=.	c #B6DFAC",
"-.	c #E5F2E1",
";.	c #FAFCFA",
">.	c #C0E3B7",
",.	c #B1DDA6",
"'.	c #EEF7EC",
").	c #B5DEAA",
"!.	c #C1E2B7",
"~.	c #A1D691",
"{.	c #A0D690",
"].	c #A2D691",
"^.	c #A1D690",
"/.	c #FFC20E",
"(.	c #A7D998",
"_.	c #E3F2DF",
":.	c #D5EBD0",
"<.	c #FEFEFE",
"[.	c #E7F4E5",
"}.	c #ABDA9D",
"|.	c #DAEDD5",
"1.	c #CEE8C8",
"2.	c #D2EBCE",
"3.	c #DFF0DC",
"4.	c #C4E4BD",
"5.	c #CAE7C2",
"6.	c #A1D790",
"7.	c #D5ECD0",
"8.	c #F9FCF9",
"9.	c #C9E6C2",
"0.	c #F4FAF4",
"a.	c #FBFDFB",
"b.	c #A0D790",
"c.	c #D8EDD3",
"d.	c #FEFEFD",
"e.	c #C8E5C1",
"f.	c #E5F3E2",
"g.	c #EBF6E9",
"h.	c #BBE0B2",
"i.	c #B2DDA5",
"j.	c #C5E4BD",
"k.	c #AADA9D",
"l.	c #D5EBCF",
"m.	c #E8F4E5",
"n.	c #BEE2B4",
"o.	c #B1DCA5",
"p.	c #B5DEA9",
"q.	c #C7E5BF",
"r.	c #B9DFAF",
"s.	c #B6DFAB",
"t.	c #A0D78F",
"u.	c #B4DEA9",
"v.	c #D2EACC",
"w.	c #D4EBCE",
"x.	c #B2DDA6",
"y.	c #DCEFD8",
"z.	c #DAEED5",
"A.	c #D0E9C9",
"B.	c #CFE9C9",
"C.	c #AADA9C",
"D.	c #C8E6C0",
"E.	c #B4DEA8",
"F.	c #A8D999",
"G.	c #BEE2B5",
"H.	c #9ED68E",
"I.	c #A6D897",
"J.	c #D3EBCD",
"K.	c #D7ECD1",
"L.	c #EFF7ED",
"M.	c #D1EACB",
"N.	c #DDEFD9",
"O.	c #F4FAF2",
"P.	c #FCFDFC",
"Q.	c #CBE7C4",
"R.	c #ACDB9E",
"S.	c #9FD78F",
"    . + @ # $ $ $ $ $ $ $ $                                                                         % & * =             - -     ",
"    + ; > , ' ) ) ) ) ) ) ! ~                                                                     - { ] ^ / (         _ : < _   ",
"    @ [ } | 1 } } } } } } 2 3 -                                                                     4 5 6 7 8 9     - 0 a b c - ",
"    d e f g h > i i i i i j k                                                                       l m n o g p q   r ] s t < - ",
"    - u v w ! x x x x x x y z                                                                       A B C D E 1 F G H s I J q   ",
"    - K L L K M - - - - -                                                                           A A l N 7 s O P s Q R S     ",
"    - K L L T 0 U K K K c _                             V V V V V V V V V                           A A A W X D Y s | Z `       ",
"    - K L  ...+.w @.L #.$.< -                   V V V V V V V V V V V V V V V V V                   A A A A _ %.s Y &.*.        ",
"    - K L  ...+.w @.L #.$.< -           V V V V V V V V V V V V V V V V V V V V V V V                     =.-.P ;.Y Y ;.>.      ",
"    - K L L T 0 U K K K c _             V V V V V V V V V V V V V V V V V V V V V V V V V               ,.] Y s '.n Y Y 2 ).    ",
"    - K L L !.~.{.{.{.].^.          V V V V V V V V /.V V V V V V V V V V V V V V V V V V V V         (._.E Y 6 { :.I Y <.[.}.  ",
"    - K L w |.1.) ) 2.3.:.S       V V V V V V V V /././.V V V V V V V V V V V V V V V V V V V V     - 4.} Y } 5.6.q 7.8.<.6 9.- ",
"    - K #.0.g } } } a.I 6 F M   V V V V V V V V /././././.V V V V V V V V V V V V V V V V V V V V   b.c.d.g e.-     (.R &.Q ! - ",
"    - c $.'.f.i i i g.} '.h.  V V V V V V V V /././././././.V V V V V V V V V V V V V V V V V V V V   i.R j._         k.l.m.n.- ",
"      _ < n.o.x x x p.q.r.# V V V V V V V V V /././././././.V V V V V V V V V V V V V V V V V V V V V   b.-             q s._   ",
"        - -           -   V V V V V V V V V V V /././././.V V V V V V V V V V V V V V V V V V V V V V V                   -     ",
"                        V V V V V V V V V V V V V /././.V V V V V V V V V V V V V V V V V V V V V V V V V                       ",
"                      V V V V V V V V V V V V V V V /.V V V V V V V V V V V V V V V V V V V V V V V V V V V                     ",
"                      V V V V V V V V V V V V V V V V V V V V V V V V V V V V V V V V V V V V V V V V V V V                     ",
"                    V V V V V V V V V V V V V V V V V V V V V V V V V V V V V V V V V V V V Y V V V V V V V V                   ",
"                    V V V V V V V V V V V V V V V V V V V V V V V V V V V V V V V V V V V Y Y Y V V V V V V V                   ",
"                  V V V V V V V V V V V V V V V V V V V V V V V V V V V V V V V V V V V Y Y Y Y Y V V V V V V V                 ",
"                  V V V V V V V V V V V V V V V V V V V V V V V V V V V V V V V V V V Y Y Y Y Y Y Y V V V V V V                 ",
"                V V V V V V V V V V V V V V V V V V V V V V V V V V V V V V V V V V V Y Y Y Y Y Y Y V V V V V V V               ",
"                V V V V V V V V V V V V V V V V V V V V V V V V V V V V V V V V V V V V Y Y Y Y Y V V V V V V V V               ",
"                V V V V V V V V V V V V V V V V V V V V V V V Y V V V V V V V V V V V V V Y Y Y V V V V V V V V V               ",
"                V V V V V V V V V V V V V V V V V V V V V V Y Y Y V V V V V V V V V V V V V Y V V V V V V V V V V               ",
"              V V V V V V V V V V V V V V V V V V V V V V Y Y Y Y Y V V V V V V V V V V V V V V V V V V V V V V V V             ",
"              V V V V V V V V V /.V V V V V V V V V V V Y Y Y Y Y Y Y V V V V V V V V V V V V V V V V V V V V V V V             ",
"              V V V V V V V V /././.V V V V V V V V V V Y Y Y Y Y Y Y V V V V V V V V V V V V V V V V V V V V V V V             ",
"              V V V V V V V /././././.V V V V V V V V V V Y Y Y Y Y V V V V V V V V V V V V V V V V V V V V V V V V             ",
"              V V V V V V /././././././.V V V V V V V V V V Y Y Y V V V V V V V V V V V V V V V V V V V V V V V V V             ",
"              V V V V V V /././././././.V V V V V V V V V V V Y V V V V V V V V V V V V V V V V V V V V V V V V V V             ",
"              V V V V V V V /././././.V V V V V V V V V V V V V V V V V V V V V V V V V V V V V V V V V V V V V V V             ",
"              V V V V V V V V /././.V V V V V V V V V V V V V V V V V V V V V V V V V V V V V V V V V V V V V V V V             ",
"              V V V V V V V V V /.V V V V V V V V V V V V V V V V V V V V V V V V V V V V V /././.V V V V V V V V V             ",
"                V V V V V V V V V V V V V V V V V V V V V V V V V V V V V V V V V V V V V /././././.V V V V V V V               ",
"                V V V V V V V V V V V V V V V V V V V V V V V V V V V V V V V V V V V V /././././././.V V V V V V               ",
"                V V V V V V V V V V V V V V V V V V V V V V V V V V V V V V V V V V V V /././././././.V V V V V V               ",
"                V V V V V V V V V V V V V V V V V V V V V V V V V V V V V V V V V V V V V /././././.V V V V V V V               ",
"                  V V V V V V V V V V V V V V V V V V V Y V V V V V V V V V V V V V V V V V /././.V V V V V V V                 ",
"          t.t.    V V V V V V V V V V V V V V V V V V Y Y Y V V V V V V V V V V V V V V V V V /.V V V V V V V V                 ",
"      z u.v.w.x.t.  V V V V V V V V V V V V V V V V Y Y Y Y Y V V V V V V V V V V V V V V V V V V V V V V V V                   ",
"      ~ y.a.a.z.q   V V V V V V V V V V V V V V V Y Y Y Y Y Y Y V V V V V V V V V V V V V V V V V V V V V V V                   ",
"      . A.} t B._     V V V V V V V V V V V V V V Y Y Y Y Y Y Y V V V V V V V V V V V V V V V V V V V V V V                     ",
"        C.D.U y $     V V V V V V V V V V V V V V V Y Y Y Y Y V V V V V V V V V V V V V V V V V V V V V V V                     ",
"          $ M           V V V V V V V V V V V V V V V Y Y Y V V V V V V V V V V V V V V V V V V V V V V V                       ",
"        $ ~ E.`           V V V V V V V V V V V V V V V Y V V V V V V V V V V V V V V V V V V V V V V V                         ",
"        F.B.m.G.-           V V V V V V V V V V V V V V V V V V V V V V V V V V V V V V V V V V V V V H.- - - {.I.I.{.- - -     ",
"      H.u.$.6 J.t.            V V V V V V V V V V V V V V V V V V V V V V V V V V V V V V V V V V V + E./ K K 0 K.K.0 K >.< _   ",
"      - n.L.D 3 -               V V V V V V V V V V V V V V V V V V V V V V V V V V V V V V V V V + M.N.b L L a 6 6 a P a #.>.- ",
"      - K L @.K -                 V V V V V V V V V V V V V V V V V V V V V V V V V V V V V V V   + M.N.b L L O.P.P.f 7 1 g Q.$ ",
"      - K L L K -                   V V V V V V V V V V V V V V V V V V V V V V V V V V V V V     . + E./ K u w.+.+.w.{ M.1.R.  ",
"      - K L L K -                       V V V V V V V V V V V V V V V V V V V V V V V V V A           H.- - M u L L u M t.S.    ",
"      - K L L K -                           V V V V V V V V V V V V V V V V V V V V V A A A                 - K L L K -         ",
"      - K L L K -                               V V V V V V V V V V V V V V V V V   A A A A                 - K L L K -         ",
"      - K L L K -                                       V V V V V V V V V                                   - K L L K -         ",
"      - K L L K -                                                                                           - K L L K -         ",
"      - K L L K -                                                                                           - K L L K -         ",
"      - K L L K -                                                                                           - K L L K -         ",
"      - K #.#.K -                                                                                           - K L L K -         ",
"      - c $.$.c -                                                                                           - K L L K -         ",
"        _ < < _                                                                                             - K L L K -         ",
"          - -                                                                                               - K L L K -         "};
