/* XPM */
static char * hole_xpm[] = {
"64 64 63 1",
" 	c #9ED68D",
".	c #4D4D4D",
"+	c #535353",
"@	c #797979",
"#	c #434343",
"$	c #494949",
"%	c #777777",
"&	c #171717",
"*	c #1F1F1F",
"=	c #6D6D6D",
"-	c #111111",
";	c #181818",
">	c #5A5A5A",
",	c #6C6C6C",
"'	c #7F7F7F",
")	c #808080",
"!	c #121212",
"~	c #191919",
"{	c #1A1A1A",
"]	c #6A6A6A",
"^	c #7D7D7D",
"/	c #686868",
"(	c #444444",
"_	c #484848",
":	c #767676",
"<	c #222222",
"[	c #131313",
"}	c #1E1E1E",
"|	c #7A7A7A",
"1	c #656565",
"2	c #161616",
"3	c #6B6B6B",
"4	c #525252",
"5	c #787878",
"6	c #545454",
"7	c #3B3B3B",
"8	c #828282",
"9	c #4E4E4E",
"0	c #3C3C3C",
"a	c #515151",
"b	c #676767",
"c	c #454545",
"d	c #505050",
"e	c #464646",
"f	c #4A4A4A",
"g	c #696969",
"h	c #666666",
"i	c #5B5B5B",
"j	c #4F4F4F",
"k	c #424242",
"l	c #717171",
"m	c #1D1D1D",
"n	c #212121",
"o	c #9DD58C",
"p	c #1B1B1B",
"q	c #6F6F6F",
"r	c #7E7E7E",
"s	c #6E6E6E",
"t	c #838383",
"u	c #575757",
"v	c #1C1C1C",
"w	c #3D3D3D",
"x	c #474747",
"                                                                ",
"                                                                ",
"                                                                ",
"                                                                ",
"                                                                ",
"                                                                ",
"                        .+@                                     ",
"                        #$%                                     ",
"                        &*=                                     ",
"                        -;>,      ')          ')                ",
"                        -!~{    .+@         .+@   -~]           ",
"                 ^=/    {~!-    (_:         #_:   &*,           ",
"                 =<;[-  ,>~!   ]};          &;    #$%           ",
"                |1~!2;   ,{-   3{-          !!    .45           ",
"                6_&27$% 83{-   ,{!!{3    ,{-!!  99..            ",
"                (02&(ab,51~!  3>~!!{15,],>~!&;  (cda  /,%@      ",
"                &&!&(e}*f_&2#c}~[!!;_f*{{~[&0f@,}}gg{!~*$+      ",
"                !!!&00220022002-!!!&002-!!!&0$hi;;ii~!-&#.      ",
"              jk&!![&&[[&&[[&&[!!!![&&[!!!![&;{~[!;;!-          ",
"              9(&!!!!!!!!!!!!!!!!!!!!!!!!!!!!!-!&;~~{{          ",
"             5+(&!!!!!!!!!!!!!!!!!!!!!!!!!!!!!!&0$h,,,          ",
"            5l$7&!!!!!!!!!!!!!!!!!!!!!!!!!!!!!!&0$h,,g          ",
"   )   3{&(j+$m2[!!!!!!!!!!!!!!!!!!!!!!!!!!!!!![&;{{{~!&#9      ",
"   )   /~20((72-!!!!!!!!!!!!!!!!!!!!!!!!!!!!!!!!!!-!2&~}(9      ",
"        [[&&&&[!!!!!!!!!!!!!!!!!!!!!!!!!!!!!!!!!!!!&0$h,        ",
"        !!!!!!!!!!!!!!!!!!!!!!!!!!!!!!!!!!!!!!!!!!!&0$h,        ",
"          !!!!!!!!!!!!!!!!!!!!!!!!!!!!!!!!!!!!!!!!![&;~}(9      ",
"          !!!!!!!!!!!!!!!!!!!!!!!!!!!!!!!!!!!!!!!!!!![;}(9      ",
"    9#&--!!!!!!!!!!!!!!!!!!!!!!!!!!!!!!!!!!!!!!!!!!!-;>3        ",
"    9(}{{~[!!!!!!!!!!!!!!!!!!!!!!!!!!!!!!!!!!!!!!!![;n,         ",
"      ]3,>~-!!!!!!!!!!!!!!!!!!!!!!!!!!!!!!!!!!!!!!!~i=          ",
"         3}2[!!!!!!!!!!!!!!!!!!!!!!!!!!!!!!!!!!!!!!~i3          ",
"          c0&!!!!!!!!!!!!!!!!!!!!!!!!!!!!!!!!!!!!!![;~[&(9      ",
"          c0&!!!!!!!!!!!!!!!!!!!!!!!!!!!!!!!!!!!!!![;~[&#9      ",
"         ]}2[!!!!!!!!!!!!!!!!!!!!!!!!!!!!!!!!!!!!!!~i3o         ",
"         /~-!!!!!!!!!!!!!!!!!!!!!!!!!!!!!!!!!!!!!!!~i=oo        ",
"          [!!!!!!!!!!!!!!!!!!!!!!!!!!!!!!!!!!!!!!!![~}c9o       ",
"          !!!!!!!!!!!!!!!!!!!!!!!!!!!!!!!!!!!!!!!!!!-20(oo      ",
"            !!!!!!!!!!!!!!!!!!!!!!!!!!!!!!!!!!!!!!!!![2&oo      ",
"            [!!!!!!!!!!!!!!!!!!!!!!!!!!!!!!!!!!!!!!!![;pooo     ",
"   ) @+#&&c(&!!!!!!!!!!!!!!!!!!!!!!!!!!!!!!!!!!!!!!!!~iqrooo    ",
"   ) 54#&200&!!!!!!!!!!!!!!!!!!!!!!!!!!!!!!!!!!!!!!!!~is%@ooo   ",
"      9#&!22!!!!!!!!!!!!!!!!!!!!!!!!!!!!!!!!!!!!!!!!!!;*$+ooo   ",
"      9(}{{{{~[!!!!!!!!!!!!!!!!!!!!!!!!!!!!!!!!!!!![~{~}(.oooo  ",
"        ]333,>~-!!!!!!!!!!!!!!!!!!!!!!!!!!!!!!!!!!!~>,3]oooooo  ",
"            t=*2[!!!!!!!!!!!!!!!!!!!!!!!!!!!!!!!!!!~gooooooooo  ",
"             %f0&!!!!!!!!!!!!!!!!!!!!!!!!!!!!!!!!!![oooooooooooo",
"            @lf0&!!!!!!!!!!!!!!!!!!!!!!!!!!!!!![&&[[oooooooooooo",
"           @u$v2[!!!!!!!!!!!!!!!!!!!!!!!!!!!!!!&0022#joooooooooo",
"           %$0p2[[~~[!!!!!!!!!![&&&&[!!!![~{{~[;f$&20(oooooooooo",
"           ,*pw#  gi;-!!!!!!!!!&0((0&!!!-~>,3/oo%1~!2&oooooooooo",
"           ={&$6   ,n~;&[[~{{~[;_++_;!![2}3oooooo]}&~{oooooooooo",
"          )^  :@    31_02~>,,>;~1||1{--20coooooooo(x13oooooooooo",
"                     5f02~g  g~~/ o/~!2vwcoooooooo.+|ooooooooooo",
"                     ,*2[[    !! ooo!20wp}]ooooooooooooooooooooo",
"                     ]~-!!    {{ ooo~}cc2{=ooooooooooooooooooooo",
"                              ]]oooo]]oooo^)oooooooooooooooooooo",
"                              8 ooooo8oooooooooooooooooooooooooo",
"                           ) )) ooooo))ooooooooooooooooooooooooo",
"                           )    oooooo)ooooooooooooooooooooooooo",
"                                oooooooooooooooooooooooooooooooo",
"                                 ooooooooooooooooooooooooooooooo",
"                                 oooooooooooooooooooooooooooooo ",
"                                  ooooooooooooooooooooooooooo   "};
