/* XPM */
static char *d63e5f07d3044f9bc8974ace48c18729ZhYy8kcYIW73Z1Ub[] = {
/* columns rows colors chars-per-pixel */
"64 64 5 1 ",
"  c #9ED68D",
". c #ED1C24",
"X c #FF5E1F",
"o c #9ED68D",
"O c #FFC20E",
/* pixels */
"oooooooooooooooooooooooooooooooooooooooooooooooooooooooooooooooo",
"oooooooooooooooooooooooooooo       ooooooooooooooooooooooooooooo",
"oooooooooooooooooooooooooooo XXXXX ooooooooooooooooooooooooooooo",
"ooooooooooooooooooooooooooo  XXXXX ooooooooooooooooooooooooooooo",
"ooooooooooooooooooooooooooo XXXXXX  oooooooooooooooooooooooooooo",
"ooooooooooooooooooooooooooo XXXXXXX oooooooooooooooooooooooooooo",
"oooooooooooooooooooooooooo  XXXXXXX oooooooooooooooooooooooooooo",
"oooooooooooooooooooooooooo XXXXXXXXX ooooooooooooooooooooooooooo",
"ooooooooooooooooooooooooo  XXXXXXXXX ooooooooooooooooooooooooooo",
"ooooooooooooooooooooooo  XXXXXXXXXXXX  ooooooooooooooooooooooooo",
"oooooooooooooooooooooo  XXXXXXXXXXXXXX       ooooooooooooooooooo",
"oooooooooooooooooooo  XXXXXXXXXXXXXXXXXXXXXXX    ooooooooooooooo",
"oooooooooooooooooo   XXXXXXXXXXXXXXXXXXXXXXXXXXX   ooooooooooooo",
"oooooooooooooooo   XXXXXXXXXXXXXXXXXXXXXXXXXXXXXXXX  ooooooooooo",
"ooooooooooooooo  XXXXXXXXXXXXXXXXXXXXXXXXXXXXXXXXXXX  oooooooooo",
"ooooooooooooo   XXXXXXXXXXXXXXXXX.X....XXXXXXXXXXXXXXX ooooooooo",
"oooooooooooo  XXXXXXXXXXXXXXXXXX........XXXXXXXXXXXXXXX oooooooo",
"ooooooooooo  XXXXXXXXXXXXXXXXXX..........XXXXXXXXXXXXXXX ooooooo",
"oooooooooo  XXXXXXXXXXXXXXXXXX....OOO....XXXXXXXXXXXXXXX  oooooo",
"oooooooooo XXXXXXXXXXXXXXXXXX....OOOO....XXXXXXXXXXXXXXXX oooooo",
"oooooooooo XXXXXXXXXXXXXXXXX.....OOOO....XXXXXXXXXXXXXXXX  ooooo",
"ooooooooo  XXXXXXXXXXXXXXXXX......O......XXXXXXXXXXXXXXXXX ooooo",
"ooooooooo XXXXXXXXXXXXXXXXXX............XXXXXXXXXXXXXXXXXX  oooo",
"ooooooooo XXXXXXXXXXXXXXXXXXX..........XXXXXXXXXXXXXXXXXXXX  ooo",
"ooooooooo XXXXXXXXXXXXXXXXXXXX.........XXXXXXXXXXXXXXXXXXXXX ooo",
"ooooooooo XXXXXXXXXXXXXXXXXXXXX.........XXXXXXXXXXXXXXXXXXXX  oo",
"oooooooo  XXXXXXXXXXXXXXXXXXXXXX.........XXXXXXXXXXXXXXXXXXXX oo",
"oooooooo XXXXXXXXXXXXXXXXXXXXXXXX.........XXXXXXXXXXXXXXXXXXXX o",
"oooooooo XXXXXXXXX....XXXXXXXXXXXX........XXXXXXXXXXXXXXXXXXXX o",
"oooooooo XXXXXXX........XXXXXXXXXX...OOO...XXXXXXXXXXXXXXXXXXX  ",
"oooooooo XXXXXX....OO....XXXXXXXXXX..OOOO...XXXXXXXXXXXXXXXXXX  ",
"oooooooo XXXXXXX...OOOO...XXXXXXXXX..OOOO...XXXXXXXXXXXXXXXXXX o",
"oooooooo XXXXXXXX..OOO.....XXXXXXXX..OOOO...XXXXXXXXXXXXXXXXX  o",
"oooooooo XXXXXXXX..OOO.....XXXXXXXX..OOOO...XXXXXXXXXXXXXXX   oo",
"ooooooo  XXXXXXXX...........XXXXXXX..O......XXXXXXXXXXXXXX  oooo",
"ooooooo XXXXXXXXX...........XXXXXXX.......XXXXXXXXXXXXXX  oooooo",
"ooooooo XXXXXXXX...........XXXXXXXXX....XXXXXXXXXXXXXXX oooooooo",
"ooooooo XXXXXXX....O.......XXXXXXXXXXXXXXXXXXXXXXXXXXX ooooooooo",
"oooooo  XXXXXX...OOOO......XXXXXXXXXXXXXXXXXXXXXXXXXXX ooooooooo",
"ooooo  XXXXXX..OOOOOO.....XXXXXXXXXXXXX.......XXXXXXX  ooooooooo",
"ooooo XXXXXX...OOOOOO....XXXXXXXXXXXX.........XXXXXXX oooooooooo",
"oooo  XXXXX....OOOO....XXXXXXXXXXXXX.....OO...XXXXXXX oooooooooo",
"ooo  XXXXXX...OOOO...XXXXXXXXXXXXXX.....OOO...XXXXXXX  ooooooooo",
"ooo XXXXXXX...OOOO..XXXXXXXXXXXXXX.......OO...XXXXXXXX ooooooooo",
"ooo XXXXXXX...OOO..XXXXXXXXXXXXXXX............XXXXXXXX ooooooooo",
"ooo XXXXXXX...OO..XXXXXXXXXXXXXXX...OOOO....XXXXXXXXXX ooooooooo",
"ooo XXXXXXXX..O...XXXXXXXXXXXXXXX...OOOOO..XXXXXXXXXXX ooooooooo",
"ooo XXXXXXXX.....XXXXXXXXXXXXXXXX...OOOOO..XXXXXXXXXXX ooooooooo",
"ooo  XXXXXXX....XXXXXXXXXXXXXXXXX...OOOO...XXXXXXXXXXX ooooooooo",
"oooo XXXXXXXX...XXXXXXXXXXXXXXXXX...OOOO...XXXXXXXXXXX ooooooooo",
"oooo  XXXXXXXX.XXXXXXXXXXXXXXXXXX....OOOO...XXXXXXXXX oooooooooo",
"ooooo XXXXXXXXXXXXXXXXXXXXXXXXXXXX...OOOOO..XXXXXXXXX oooooooooo",
"oooooo XXXXXXXXXXXXXXXXXXXXXXXXXXX....OOO...XXXXXXXXX oooooooooo",
"oooooo  XXXXXXXXXXXXXXXXXXXXXXXXXXX.........XXXXXXXXX oooooooooo",
"ooooooo  XXXXXXXXXXXXXXXXXXXXXXXXXXX.......XXXXXXXXXX oooooooooo",
"oooooooo  XXXXXXXXXXXXXXXXXXXXXXXXXXXXX...XXXXXXXXXXX oooooooooo",
"ooooooooo  XXXXXXXXXXXXXXXXXXXXXXXXXXXXXXXXXXXXXXXXXX oooooooooo",
"oooooooooo   XXXXXXXXXXXXXXXXXXXXXXXXXXXXXXXXXXXXXXXX oooooooooo",
"oooooooooooo    XXXXXXXXXXXXXXXXXXXXXXXXXXXXXXXXXXXXX oooooooooo",
"ooooooooooooooo   XXXXXXXXXXXXXXXXXXXXXXXXXXXXXXXXXX ooooooooooo",
"oooooooooooooooooo                       XXXXXXXXXXX ooooooooooo",
"ooooooooooooooooooooooooooooooooooooooooo   XXXXXXX oooooooooooo",
"ooooooooooooooooooooooooooooooooooooooooooo   XXXX  oooooooooooo",
"ooooooooooooooooooooooooooooooooooooooooooooo     oooooooooooooo"
};
