/* XPM */
static char * player_xpm[] = {
"64 64 99 2",
"  	c #9ED68D",
". 	c #9DD58C",
"+ 	c #000000",
"@ 	c #464646",
"# 	c #ED1C24",
"$ 	c #FFC20E",
"% 	c #303030",
"& 	c #FFFFFF",
"* 	c #E0E0E0",
"= 	c #7C795C",
"- 	c #171717",
"; 	c #9CD48C",
"> 	c #9DD58D",
", 	c #B2AE84",
"' 	c #212121",
") 	c #9BD38B",
"! 	c #94CB85",
"~ 	c #8CC47F",
"{ 	c #8DC580",
"] 	c #95CD86",
"^ 	c #FFF9BD",
"/ 	c #99D189",
"( 	c #89C17D",
"_ 	c #75AE6E",
": 	c #69A466",
"< 	c #6AA567",
"[ 	c #7FB775",
"} 	c #94CC85",
"| 	c #9CD48B",
"1 	c #8FC782",
"2 	c #72AC6C",
"3 	c #619D60",
"4 	c #5F9B5F",
"5 	c #6AA466",
"6 	c #84BC79",
"7 	c #9AD28A",
"8 	c #88C07C",
"9 	c #67A264",
"0 	c #629E61",
"a 	c #6CA668",
"b 	c #90C882",
"c 	c #639E61",
"d 	c #609C60",
"e 	c #8AC27D",
"f 	c #70AA6B",
"g 	c #8EC681",
"h 	c #6FA96A",
"i 	c #609C5F",
"j 	c #619D61",
"k 	c #4D6DF3",
"l 	c #98D088",
"m 	c #80B977",
"n 	c #64A062",
"o 	c #5F9C5F",
"p 	c #72AB6C",
"q 	c #83BC79",
"r 	c #66A163",
"s 	c #639E62",
"t 	c #9BD38A",
"u 	c #7DB674",
"v 	c #629D61",
"w 	c #76AF6F",
"x 	c #91C983",
"y 	c #7EB675",
"z 	c #639F62",
"A 	c #80B976",
"B 	c #86BE7B",
"C 	c #65A063",
"D 	c #71AA6B",
"E 	c #96CE87",
"F 	c #93CB84",
"G 	c #74AE6E",
"H 	c #68A365",
"I 	c #8AC37E",
"J 	c #85BE7A",
"K 	c #98CF88",
"L 	c #7CB573",
"M 	c #6DA769",
"N 	c #82BA78",
"O 	c #65A163",
"P 	c #77B070",
"Q 	c #8AC27E",
"R 	c #97CF87",
"S 	c #78B171",
"T 	c #8BC37E",
"U 	c #97CF88",
"V 	c #7BB372",
"W 	c #6AA566",
"X 	c #9C5A3C",
"Y 	c #80B876",
"Z 	c #81B977",
"` 	c #70A96A",
" .	c #6D3E29",
"..	c #71AB6B",
"+.	c #6EA869",
"@.	c #98D089",
"#.	c #90C883",
"$.	c #84BD79",
"%.	c #97CE87",
"                                                                                                    . . . .                     ",
"                                                                                                    . . . .                     ",
"                                                                                                    . . . .                     ",
"                                                                                                    . . . .                     ",
"                                                                                                    . . . .                     ",
"                                                    + + + + + + + + + + +                           . . . .                     ",
"                                                    + @ @ + @ @ @ + @ @ +                           . . . .                     ",
"                                                    + @ @ @ + @ + @ @ @ +                           . . . .                     ",
"                                                . . + @ @ @ # @ # @ @ @ +                                                       ",
"                                                . . + @ @ @ @ @ @ @ @ @ +                                                       ",
"                                                . . + @ + + + + + + + @ +                                                       ",
"                                                . . + @ @ @ @ @ @ @ @ @ +                                                       ",
"                                                . . + @ @ @ @ @ @ @ @ @ +                                                       ",
"                                                . . + @ @ @ @ @ @ @ @ @ +                                                       ",
"                                + + + + + + + + + $ + + + + + + + + + + + $ + + + + + + + + +                                   ",
"                                + @ @ @ @ @ @ @ @ $ $ @ % % % % % % % @ $ $ @ @ @ @ @ @ @ @ +                                   ",
"                                + @ @ @ @ @ @ @ @ @ $ @ % % % % % % % @ $ @ @ @ @ @ @ @ @ @ +                                   ",
"                                + @ @ @ @ @ @ @ @ @ $ $ @ @ @ @ @ @ @ $ $ @ @ @ @ @ @ @ @ @ +                                   ",
"                                + @ @ @ @ @ @ @ @ @ @ $ $ @ @ @ @ @ $ $ @ @ @ @ @ @ @ @ @ @ +                                   ",
"                                + @ @ @ @ @ @ @ @ @ @ @ $ @ @ @ @ @ $ @ @ @ @ @ @ @ @ @ @ @ +                                   ",
"                                + @ @ @ @ @ @ @ @ @ @ @ $ $ @ @ @ $ $ @ @ @ @ @ @ @ @ @ @ @ +                                   ",
"                                + @ @ @ @ @ @ @ @ @ @ @ @ $ $ @ $ $ @ @ @ @ @ @ @ @ @ @ @ @ +                                   ",
"                                + @ @ @ @ @ @ @ @ @ @ @ @ @ $ $ $ @ @ @ @ @ @ @ @ @ @ @ @ @ +                                   ",
"                                + @ @ @ @ @ @ @ @ @ @ @ @ @ @ $ @ @ @ @ @ @ @ @ @ @ @ @ @ @ +                                   ",
"                                + @ @ @ @ @ @ @ @ @ @ @ @ & * * * & @ @ @ @ @ @ @ @ @ @ @ @ +                                   ",
"                                + @ @ @ @ @ @ @ @ @ @ @ @ * * & * * @ @ @ @ @ @ @ @ @ @ @ @ +                                   ",
"                                + @ @ @ @ @ @ @ @ @ @ @ @ & * * * & @ @ @ @ @ @ @ @ @ @ @ @ +                                   ",
"                                + @ @ @ @ @ @ @ @ @ @ @ @ @ @ @ @ @ @ @ @ @ @ @ @ @ @ @ @ @ +                                   ",
"                                + @ @ @ @ @ @ @ @ @ @ @ @ @ @ @ @ @ @ @ @ @ @ @ @ @ @ @ @ @ +                                   ",
"                                + + + + + + + + + + + + + + + + + + + + + + + + + + + + + + +                                   ",
"                                  + = = = + - - - - - - - - - - - - - - - - - - - + = = = +                                     ",
"                          . ; >   + , , , + ' ' ' ' ' ' ' ' ' ' ' ' ' ' ' ' ' ' ' + , , , +                                     ",
"                      ) ! ~ { ] ) + ^ ^ ^ + % % % % % % % % % % % % % % % % % % % + ^ ^ ^ +                                     ",
"                  . / ( _ : < [ } + ^ ^ ^ + @ @ @ @ @ @ @ @ @ @ @ @ @ @ @ @ @ @ @ + ^ ^ ^ +                                     ",
"                  | 1 2 3 4 4 5 6 + ^ ^ ^ + @ @ @ @ @ @ @ @ @ @ @ @ @ @ @ @ @ @ @ + ^ ^ ^ +                                     ",
"                  7 8 9 4 4 4 0 a + ^ ^ ^ + @ @ @ @ @ @ @ @ @ @ @ @ @ @ @ @ @ @ @ + ^ ^ ^ +                                     ",
"                  | b _ c 4 4 4 d + ^ ^ ^ + @ @ @ @ @ @ @ @ @ @ @ @ @ @ @ @ @ @ @ + ^ ^ ^ +                                     ",
"                  . / e f 3 4 4 4 + ^ ^ ^ + + + + + + + + + + + + + + + + + + + + + ^ ^ ^ +                                     ",
"                    . g h i 4 4 j + ^ ^ ^ + k k k k k k k k k + k k k k k k k k k + ^ ^ ^ +                                     ",
"                  . l m n 4 4 o 9 + ^ ^ ^ + k k k k k k k k k + k k k k k k k k k + ^ ^ ^ +                                     ",
"                  | g p 3 4 4 4 d + ^ ^ ^ + k k k k k k k k k k k k k k k k k k k + ^ ^ ^ +                                     ",
"                  7 q r 4 4 4 4 4 + + + + + k k k k k k k k k k k k k k k k k k k + + + + +                                     ",
"                  7 [ s 4 4 4 4 4 + + + + + k k k k k k + + + + + + + k k k k k k + + + + +                                     ",
"                  t u v 4 4 4 4 4 + + + + + k k k k k k + 4 0 w x > + k k k k k k + + + + +                                     ",
"                  t y 3 4 4 4 4 4 + + + + + k k k k k k + 4 4 z A ) + k k k k k k + + + + +                                     ",
"                  ; B C 4 4 4 4 4 + + + + + k k k k k k + 4 4 4 D E + k k k k k k + + + + +                                     ",
"                  > F G d 4 4 4 4 4 4 4 4 + k k k k k k + 4 4 4 H b + k k k k k k +                                             ",
"                    ) I < 4 4 4 4 4 4 4 4 + k k k k k k + 4 4 4 c J + k k k k k k +                                             ",
"                      K L 0 4 4 4 4 4 4 4 + k k k k k k + 4 4 4 4 _ + k k k k k k + . . . .                                     ",
"                      ; { M 4 4 4 4 4 4 4 + k k k k k k + 4 4 4 4 C + k k k k k k + . . . .                                     ",
"                        / N O 4 4 4 4 4 4 + k k k k k k + 4 4 4 4 4 + k k k k k k + . . . .                                     ",
"                        . } P 3 4 4 4 4 4 + k k k k k k + 4 4 4 4 4 + k k k k k k + . . . .                                     ",
"                          ; Q H 4 4 4 4 4 + k k k k k k + 4 4 4 4 4 + k k k k k k + . . . .                                     ",
"                            R S d 4 4 4 4 + k k k k k k + 4 4 4 4 4 + k k k k k k + . . . .                                     ",
"                            ; T H 4 4 4 4 + k k k k k k + 4 4 4 4 4 + k k k k k k + . . . .                                     ",
"                              U V d 4 4 4 + + + + + + + + 4 4 4 4 4 + + + + + + + + . . . .                                     ",
"                              ; { W 4 4 4 + X X X X X X + 4 4 4 4 4 + X X X X X X +                                             ",
"                                l Y C 4 4 + X X X X X X + 4 4 4 4 4 + X X X X X X +                                             ",
"                                . } Z ` f +  . . . . . .+ o 4 4 4 4 +  . . . . . .+                                             ",
"                                  ; U x x + + + + + + + + S _ ..+.: + + + + + + + +                                             ",
"                                      . .           . | t 7 @.] #.T $.A [ ~ l                                                   ",
"                                                                . ; 7 @.%./ ;                                                   ",
"                                                                        .                                                       ",
"                                                                                                                                "};
