/* XPM */
static char *player_3_resized[] = {
/* columns rows colors chars-per-pixel */
"64 64 226 2 ",
"   c #1B1B1D",
".  c #26201E",
"X  c #1D1F20",
"o  c #251D24",
"O  c #2A1E25",
"+  c #311F28",
"@  c #1B2222",
"#  c #192725",
"$  c #1A352F",
"%  c #252324",
"&  c #232F27",
"*  c #2C2829",
"=  c #322E26",
"-  c #35242D",
";  c #3A262E",
":  c #3A2A2C",
">  c #26342A",
",  c #29352B",
"<  c #293D2F",
"1  c #353027",
"2  c #36362C",
"3  c #282939",
"4  c #3B2B31",
"5  c #3A2936",
"6  c #283837",
"7  c #373634",
"8  c #442F2B",
"9  c #43342D",
"0  c #432B35",
"q  c #482D36",
"w  c #4A2F3B",
"e  c #463535",
"r  c #4E313D",
"t  c #52333F",
"y  c #5D353E",
"u  c #583B38",
"i  c #61373F",
"p  c #264638",
"a  c #3A4739",
"s  c #374A38",
"d  c #27533A",
"f  c #35573D",
"g  c #46493B",
"h  c #57443A",
"j  c #42543B",
"k  c #6A4D36",
"l  c #674938",
"z  c #6B553D",
"x  c #292D44",
"c  c #2A3348",
"v  c #383A49",
"b  c #2A3657",
"n  c #343A5A",
"m  c #263662",
"M  c #333E68",
"N  c #483A44",
"B  c #543440",
"V  c #5A3742",
"C  c #573D41",
"Z  c #5D3A43",
"A  c #633B45",
"S  c #6A3E45",
"D  c #673C48",
"F  c #6B3D49",
"G  c #743E48",
"H  c #2F4A49",
"J  c #354649",
"K  c #2D5546",
"L  c #3E5A41",
"P  c #31514B",
"I  c #3A4959",
"U  c #355652",
"Y  c #336847",
"T  c #3C6A56",
"R  c #3E4868",
"E  c #4A4847",
"W  c #435C43",
"Q  c #475848",
"!  c #575048",
"~  c #48485A",
"^  c #664145",
"/  c #6B4346",
"(  c #6B4549",
")  c #754946",
"_  c #75434C",
"`  c #7D454E",
"'  c #7B4A4C",
"]  c #74574D",
"[  c #7B5348",
"{  c #7D4550",
"}  c #456145",
"|  c #4C684A",
" . c #56674C",
".. c #526F4E",
"X. c #52704E",
"o. c #51784D",
"O. c #4E6C55",
"+. c #497956",
"@. c #716B4E",
"#. c #677755",
"$. c #454C69",
"%. c #50536B",
"&. c #444B75",
"*. c #4D5A79",
"=. c #565875",
"-. c #6D5967",
";. c #516F72",
":. c #667477",
">. c #834C4C",
",. c #87554C",
"<. c #8B5B4E",
"1. c #905C48",
"2. c #814650",
"3. c #864954",
"4. c #8C4C56",
"5. c #904D57",
"6. c #934F59",
"7. c #8D5252",
"8. c #925352",
"9. c #985756",
"0. c #9B5A56",
"q. c #96505A",
"w. c #A15C59",
"e. c #96684A",
"r. c #856757",
"t. c #956252",
"y. c #9D6655",
"u. c #947354",
"i. c #A9754E",
"p. c #AC635C",
"a. c #A8685A",
"s. c #B2685C",
"d. c #A97655",
"f. c #AD7950",
"g. c #B2755A",
"h. c #BA7A5A",
"j. c #836C72",
"k. c #8E7170",
"l. c #B86C60",
"z. c #B17264",
"x. c #C27A5E",
"c. c #C26F63",
"v. c #C87864",
"b. c #4A8059",
"n. c #5B8259",
"m. c #63835B",
"M. c #658C5F",
"N. c #798B5C",
"B. c #4C8071",
"V. c #668E61",
"C. c #698E61",
"Z. c #6A9263",
"A. c #6B9465",
"S. c #719A67",
"D. c #729B69",
"F. c #709477",
"G. c #7BA477",
"H. c #7EAB73",
"J. c #83885D",
"K. c #B6855C",
"L. c #BA945F",
"P. c #BA8865",
"I. c #AA9363",
"U. c #B98871",
"Y. c #80AE74",
"T. c #81B075",
"R. c #8BBD7E",
"E. c #C3825D",
"W. c #C58A5C",
"Q. c #CA8661",
"!. c #D48D64",
"~. c #DA8768",
"^. c #DC9267",
"/. c #DE9A64",
"(. c #C88D74",
"). c #E59669",
"_. c #EB956D",
"`. c #E49D6B",
"'. c #EB9C6B",
"]. c #E6A46C",
"[. c #ECA26A",
"{. c #F4A46D",
"}. c #F8A76E",
"|. c #FEAD6E",
" X c #FFB16F",
".X c #E8A373",
"XX c #F6A976",
"oX c #FFAE70",
"OX c #FFB373",
"+X c #FFB974",
"@X c #FBB57C",
"#X c #FFBC7B",
"$X c #8DC07F",
"%X c #545985",
"&X c #5A7586",
"*X c #64718D",
"=X c #686F90",
"-X c #877988",
";X c #71848F",
":X c #7DA485",
">X c #AD918A",
",X c #8DBE81",
"<X c #8991A8",
"1X c #9B95A0",
"2X c #9CA6B8",
"3X c #B5B7BA",
"4X c #D0A48E",
"5X c #F4B887",
"6X c #D2BAA9",
"7X c #8EC180",
"8X c #92C683",
"9X c #96CC87",
"0X c #93C689",
"qX c #97CD88",
"wX c #9ED68D",
"eX c #9FD88E",
"rX c #A1DA8F",
"tX c #A2DC91",
"yX c #A6E093",
"uX c #FFCA94",
"iX c #FAC99A",
"pX c #F3D6B3",
"aX c #FEE3BA",
"sX c #B0BAC7",
"dX c #D0D4D0",
"fX c #ECE6CD",
/* pixels */
"wXwXwXwXwXwXwXwXwXwXwXwXwXwXwXtXtXyXyXyXyXyXtXyXyXyXyXyXyXyXyXyXyXyXrXyXyXyXyXyXyXyXyXyXyXyXyXeXeXeXwXwXwXwXwXwXwXwXeXwXwXwXwXwX",
"wXwXwXwXwXwXwXwXwXwXwXwXwXwXwXwXwXwXwXwXwXwXwXwXwXwXwXwXwXwXwXwXwXwXwXwXwXwXwXwXwXwXwXwXwXwXwXwXeXwXwXwXwXwXwXeXwXwXwXwXwXwXwXwX",
"wXwXwXwXwXwXwXwXwXwXwXwXwXwXwX9X8X7XR.R.R.R.R.R.R.R.R.R.R.R.R.R.R.R.R.R.R.R.R.R.R.R.R.R.R.R.$X8X9XwXeXeXeXwXwXwXwXwXwXwXwXwXwXwX",
"wXwXwXwXwXwXwXwXwXeXrXrXtXwXwX7XH.D.Z.Z.C.Z.Z.A.Z.A.Z.Z.Z.Z.Z.Z.Z.Z.Z.Z.Z.Z.Z.Z.Z.Z.Z.Z.M.Z.S.H.$XwXeXtXeXeXwXwXwXwXwXwXwXeXwXwX",
"wXwXwXwXwXwXwXwXwXwXeXeXtXtX9XY.C.X.} W W } } } } } } } } } } W } } W } } } } L } } W W } } X.M.H.9XtXtXtXeXwXwXwXwXwXwXwXwXwXwX",
"wXwXwXwXwXwXwXwXwXwXeXeXtXwX,XD...a , > , , , > , , , , , , , , , , , , , , , , , > , & & , s X.D.$XwXtXrXeXwXwXeXwXwXwXwXwXwXwX",
"wXwXwXwXwXeXwXwXeXeXwXwX9X7XH.m.Q , X   X X X X @ o X o X % % o % % o % % % % % o o % o . % 2 Q m.H.R.9XwXwXwXeXeXwXwXwXwXwXwXwX",
"wXeXwXwXwXwXeXtXtXeXwX7XH.D.#.| a * o o o o o o o o % * - : 8 ; : 0 ; 8 : : : : 8 ; : ; ; : 7 E ..m.S.H.$XwXwXeXtXwXwXwXwXwXwXeX",
"wXwXwXwXwXwXwXrXyXeX9XH.Z.X.L a 7 4 ; - ; - ; - - ; ; q t i i A i i i i y Z y i y y y i V y Z h g W ..M.Y.9XrXyXtXwXwXwXwXwXwXwX",
"wXwXwXwXwXwXwXwXtXwX7XD.X.s < * 5 q w w w w w w w q B V S G G 2.2.` ` ` { { ` ` ` 2.` 2.2.{ G y e 2 s X.S.R.rXrXtXwXwXwXwXwXwXwX",
"wXwXwXwXwXwXwXwX9X7XH.#.Q , % * ; w B B B t t w B B V A G 2.3.3.3.3.3.3.4.4.5.6.4.4.4.6.6.6.2.A q = 2 Q m.H.$X9XwXwXwXwXeXwXwXwX",
"wXwXwXrXrXwXqX7XH.D.m.| a * + - 0 r B B B B B B B B V A F ` { 2.{ 2.2.3.5.6.6.6.q.6.q.q.q.6.3.G y q e g  .m.D.T.R.9XwXwXeXwXwXwX",
"wXwXwXtXrXwX8XH.C.X.Q a 7 5 4 0 q B B B B B B B B B B B D D F F F F G { 2.5.6.6.q.q.6.6.q.6.4.2.G A y h g Q X.C.H.8XwXeXeXeXwXwX",
"wXwXwXrXrXwX$XD...a , * 4 q w w r t B r N w B B B B B B B V V V B Z D F { 3.5.5.4.6.5.6.6.6.4.4.3.2._ V 7 2 a X.D.$XwXtXtXwXwXwX",
"wXwXwXtXtXwXR.Z.W , X o ; w t B B t t t t t B B B B B B B t t t B B B D _ 2.3.3.4.3.3.3.3.3.3.4.5.3._ u - % , W Z.R.wXtXtXwXwXwX",
"wXwXwXtXrXwXR.C.L >   o - w B B B B t t t t w B B w B B t t r r r t B A D F _ { G ` G _ G _ _ { { G S w -   & L M.R.wXtXtXeXwXwX",
"wXwXwXtXtXwXR.V.W >   o - w B B B B B t t t t t t t t t t t r t t t B B Z A A D A D A A D D D D F F V 0 O   & W C.R.wXtXrXeXwXwX",
"wXwXwXtXtXwXR.C.W >   o - w t B B B t B t t r B t t t t t t t t t t t B B V V y V V V B V V V V V V t ; O X , W Z.R.wXtXrXrXwXwX",
"wXwXrXtXtXwXR.Z.} , X o ; w B B B B r r t t B t t t t t t t t t t t t V Z V i A A A A A A Z A A D i y 0 % . , } Z.R.wXrXrXeXwXwX",
"wXwXwXtXtXwXR.Z.W , X o - w t B B r B B t B t t t t t t t t t t w t B A / _ ` ` ` { ' ' ' ' ' ` ' _ A w - X , } C.R.wXrXrXeXwXwX",
"wXwXwXrXtXwXR.C.W > @ o ; q t B B t t t t t B t B B N t t t t r w r V S 2.7.9.w.9.0.0.9.9.9.9.q.9.8.>.i : . , f Z.R.wXtXrXwXwXwX",
"wXwXwXtXtXwXR.Z.} > @ O ; w t B B t t t t t t t w B t t t t t t B B Z _ 7.w.p.p.p.p.p.p.p.p.l.p.s.p.9.G 8 % , } V.R.wXtXtXeXwXwX",
"wXwXrXrXtXwXR.Z.W > X o ; w t B B t t t N B r B B B t B t t t B V Z S ' 8.w.p.p.s.w.p.w.p.p.p.l.c.c.s.>.u . , } V.R.wXtXrXeXwXwX",
"wXwXwXrXtXwXR.C.Q , X o - w N B B t t r r r r r w B w r r t V Z S _ ' 2.>.4.8.8.8.8.9.q.8.8.0.s.v.v.h.1.u = , j V.R.wXtXtXwXeXwX",
"wXwXrXtXtXwXR.Z.W , @ o - w B B B t t t N r w w r w w B r t V / ' 4.5.3.' / F S G F G F F _ ' a.v.~.Q.e.l = , L V.R.wXtXtXwXwXwX",
"wXwXwXtXtXwXR.C.W , X o - w B B B t t t B B t B B B B B t t A _ 8.w.y.5.) Z t r w w w q q t ^ t.K.).!.i.l 1 , L V.R.wXtXrXeXwXwX",
"wXwXwXtXtXwXR.Z.W , X o ; w r B t t B Z A ^ / / ( ( A Z C t A ' 0.s.l.w.{ ^ N w N 5 5 5 - 5 C <.E.`./.f.l = , L V.R.wXtXrXeXwXwX",
"wXwXwXtXtXwXR.C.W , @ o - q B B t t Z / [ <.<.t.t.<.<.) ^ Z ^ >.a.v.Q.z.k.-.~ ~ N x x 3 3 5 N r.K.`./.f.k 1 , L V.R.wXeXtXeXwXwX",
"wXwXwXtXtXwXR.Z.} ,   O ; r r B r B A [ t.g.K.Q.Q.E.g.t.' ^ / ,.h.v.v.4X>X-X=X-.~ v x x 3 x E ] Q.`./.f.z 1 > L V.R.wXtXrXeXwXwX",
"wXwXwXtXtXwXR.Z.W , @ o - q B B r B / <.g.!.'.{.{.'.!.d.[ ^ / <.c._.XX4X>X2X<X=X%.I c x x v ~ r.P.`./.i.k 1 > L V.R.wXtXtXwXwXwX",
"wXwXwXtXtXwXR.C.W ,   o ; q B w r B S <.P.'.|.OXOX}.^.h.<.^ ( <.h.'.5X4X6X3X2X-X%X$.b x c b ~ r.P././.i.k 1 > L V.R.wXtXtXwXwXwX",
"wXwXwXtXtXwXR.C.W &   o - r B N B B / t.W.{.oXOXoX'.~.a.[ D ^ <.h.'.5XiXpXdXsX<X*XR b b m b ~ j.U.].`.f.k 1 > L M.R.wXtXrXeXwXwX",
"wXwXwXtXtXwXR.V.W # X o - w B B r B / t.Q.{.oXoX{.^.v.0.) Z ^ <.h.[.#XiXaXdXdX2X=X*.R m m M =.k.(.`./.f.k 1 > j Z.$XwXtXrXwXwXwX",
"wXwXwXtXtXwXR.Z.W , X O ; q w B r B / t.P.'.XX'._.v.l.9._ ^ / 1.h.[.5XiXaXfXdXsX<X=.R M M R =.k.(.`./.i.k = > j V.$XwXtXrXwXwXwX",
"wXwXwXtXtXwX7XD.X.s , = 4 0 w w w B ^ <.g.!.^.).~.v.l.w.,.' [ y.W.[.+XuXaXfXfX3X1X=X=.%.&.=.-.k.(.).!.i.k = , W M.R.wXtXtXwXwXwX",
"wXwXwXwXrXwX8XH.V.X.Q a 7 5 ; 5 q r A [ t.g.Q.!.~.v.Q.h.a.y.a.h.!.[.@XuXaXpXpX6X>Xk.k.:.j.j.k.U.(.^.Q.e.h = & j M.R.wXrXtXeXwXwX",
"wXwXwXrXrXwXqX7XY.D.m.| a - * - 5 t V ( ' <.y.g.!.^.).^.!.Q.Q.!.`.}.+X5XuXuXiX5X4X(.U.U.U.U.U.!.~.~.c.1.u . & f M.R.wXtXtXwXwXwX",
"wXwXwXwXwXwXwXqX9X,XH.#.W , o O ; w t V Z ^ [ y.v.).{.{.{.'.'.[.}.oXoXOX+X+X@X.XXX.X].]..X.X).^.~.v.s.) u . , W V.R.wXtXtXwXwXwX",
"wXwXwXwXwXwXwXtXtXwX7XD...a , = : r r w w B ^ <.g.!.`.{.{.{.}.}.|.|.|.OX X|.OXOXoXoX|.oXoXoX}.).v.s.9.) e 2 s X.S.7XwXrXtXwXwXwX",
"wXwXwXwXwXwXrXtXtXtXqXH.V...Q a 7 4 4 5 0 w C ' t.g.Q.~.)._.{.}.}.oX X X|.|.|. X X XOX+X+XOX}.!.z.,.) ! h | X.M.H.8XwXtXrXwXwXwX",
"wXwXwXwXwXwXrXrXtXrXqX8XY.D.m.| j 7 * - 5 w B S [ <.y.g.v.!._._.}.oXoXOXoXoX|. X XOX X+X+X X[.W.1.l h E ..n.D.H.7X9XwXeXeXwXwXwX",
"wXwXwXwXwXwXwXwXrXwXwXqX9X,XH.m.W , o * ; w t Z Z ^ ) 7.w.l.v.~._.}.|.oXoXoXoX|.OX|.|.OX X|./.f.z 9 2 W m.H.7X9XqXwXwXeXwXwXwXwX",
"wXwXwXeXwXwXwXwXwXwXrXtXtXwXR.C.W , @ o 4 e B N N B C ( 3.0.a.x.^.'.}.}.}.}.XXXX}.}.}.{.{./.W.e.z g s | S.,XwXrXrXwXwXwXwXwXeXwX",
"wXwXwXwXwXwXwXwXwXwXwXtXyXtX$XA.Q & @ @ 4 v v N v v N N ^ ^ ,.a.v.~.'._._._._._._._.^.!.W.f.J.1. .Q ..M.H.0XrXyXrXeXwXwXwXwXwXwX",
"wXwXwXeXwXwXwXwXwXwXrXtXtXrX$XA.W & # # 6 J J I J J v 7 7 e u >.a.v.~.~.~.~.~.v.v.~.v.f.e.[ z  .@.m.S.H.7XqXeXtXrXeXwXwXwXwXwXwX",
"wXwXwXwXwXwXeXwXwXwXwXrXtXrXR.C.W $ # # $ H U U U U H H , * 8 l ,.s.v.v.v.v.v.v.v.v.s.,.l 9 g } M.Y.$X$XwXwXwXeXwXeXwXwXwXwXwXwX",
"wXwXwXwXwXwXwXwXwXwXwXtXtXrXR.C.Q , # # p K U T O.O.Q J a 2 2 h ) 0.w.a.s.l.a.z.l.z.0.) 8 * , } M.$XrXtXtXwXwXwXwXwXwXwXwXwXwXeX",
"wXwXwXwXwXwXwXwXwXwXrXrXtXwXR.M.W > # # p U T O.:.#.@.@.] z z k k >.>.,.<.r.r.u.u.r.@.^ : @ & L Z.$XrXyXtXrXwXwXwXwXwXwXwXwXwXwX",
"wXeXwXwXwXeXwXwXwXwXwXtXtXwXR.V.j , @ # d Y o.n.J.I.I.K.K.i.e.1.k u h h  .X.#.n.#.#. .g > # & W Z.$XrXyXrXrXrXrXrXqXwXwXwXqXrXrX",
"wXwXwXwXwXwXwXwXwXwXwXtXtXwXR.C.j > # $ d Y o.N.I././.].[./.W.e.k 9 , p j | +.b.b.+.| d > # > W Z.$XrXrXrXrXrXqXrXrXwXwXwXrXrXqX",
"wXwXwXwXwXwXwXwXwXwXrXtXrXwX,XD...s p < d Y b.J.L.]. X+X+X|./.i.k : # $ d T T B.b.+.T K $ # > Q M.R.wXrXrXrXrXrXqXwXwXwXwXwXrXwX",
"wXwXwXwXwXwXwXwXwXwXwXrXrXwX8XY.M.o.f f d d } J.L.[.+X#X+X+X[.f.k = # $ P +.+.B.B.+.+.P > # & W M.R.rXrXrXqXrXqXrXrXwXwXwXwXwXwX",
"wXeXwXeXwXwXwXwXwXwXwXwXrXwX9X,XT.D.M.o.f s j @.K.].+X+X#X+X].i.k = # $ U ;.&X;X;X&X;.I 3 # & L M.R.rXrXrXrXrXrXwXwXwXwXwXwXwXwX",
"wXwXwXwXwXwXeXwXwXwXwXrXwXwXwXqX$X$XH.n.f p 1 k i.]. X X+X X/.i.k 1 # c R %X*X*X*X&X%XR c & , W C.R.rXtXrXrXqXrXwXwXwXwXwXwXwXwX",
"wXwXwXwXwXwXwXwXwXwXwXwXwXwXrXrXtXwX$XM.j > = h e.L./.[.[./.W.e.h 7 3 b R %X*X=X*X%X*.R J 6 a  .S.$XrXrXrXrXrXrXwXwXwXwXqXrXwXwX",
"wXwXwXwXwXwXwXwXwXwXwXwXwXwXrXtXyXrX$XZ.j & . 8 k 1.i.i.f.i.e.] h 7 x n M %X%X%X%X*.$.Q Q Q X.M.Y.$XrXrXrXqXrXqXwXwXwXrXrXrXqXrX",
"wXwXwXwXwXwXwXwXwXwXwXwXwXwXrXrXyXrX$XZ.W &   . 1 h l k k l h E v v n M &.&.&.&.n v v Q O.V.D.Y.,X9XwXrXwXrXwXwXwXwXwXwXwXwXwXwX",
"wXwXwXwXwXwXwXwXwXrXwXwXwXwXrXrXtXwXR.Z.W , X   . = 1 1 = 1 7 7 v M R &.&.&.$.n c 3 6 Q V.G.R.9XqXqXwXrXwXwXwXwXqXrXwXwXwXwXwXwX",
"wXrXwXwXwXwXwXwXwXwXwXwXwXwXwXrXrXwX$XD.X.s , & & , < , > , 6 J ~ $.*.*.*.&.%.I v < a  .S.,XrXtXtXrXwXwXwXwXwXwXrXwXwXwXrXwXwXwX",
"wXwXwXwXwXwXwXrXwXwXwXwXwXwXwXrXrXwX8XY.M.X.| W } j L } j W } O.;.F.B.;XB.F.:.;.O.| X.M.Y.0XrXtXrXrXwXwXwXwXwXwXrXwXwXwXwXwXwXwX",
"wXwXwXwXwXwXwXwXwXwXwXwXwXwXrXwXrXwX9XR.T.D.Z.V.Z.V.V.Z.M.Z.Z.F.F.:X:X:X,X<XG.F.A.A.D.Y.,XqXrXtXrXwXwXwXwXwXwXwXwXwXwXwXwXwXwXwX",
"wXwXwXwXwXwXwXwXwXwXwXwXwXwXwXwXwXwXwX9X8X$X$X$XR.R.R.R.R.R.R.,X7X0X0X8X,X,X0X7X,XR.,X8XqXqXwXwXrXwXwXwXwXwXwXwXwXwXwXwXwXwXwXwX",
"wXwXwXwXwXwXwXwXwXwXwXrXwXwXwXwXwXwXwXwXwXwXwXwXwXwXwXwXwXwXwXwXeXeXwXwXwXwXeXwXrXrXwXwXrXrXwXrXwXwXwXwXwXwXwXwXwXrXwXwXwXwXwXwX",
"wXwXwXwXwXwXwXwXwXwXwXwXwXwXwXwXwXwXwXrXrXyXyXyXtXyXyXtXyXyXyXyXrXyXtXtXtXtXrXyXtXtXtXrXrXrXwXwXwXwXwXwXwXwXwXwXwXwXwXwXwXwXwXwX"
};
