/* XPM */
static char *player_resized[] = {
/* columns rows colors chars-per-pixel */
"64 64 232 2 ",
"   c #0C0F11",
".  c #0E1315",
"X  c #171B1D",
"o  c #14241B",
"O  c #161A21",
"+  c #1C1F21",
"@  c #241C23",
"#  c #2B1E26",
"$  c #1D2324",
"%  c #1D3D31",
"&  c #252324",
"*  c #292B27",
"=  c #352A26",
"-  c #36232D",
";  c #3A262E",
":  c #26332A",
">  c #26342B",
",  c #29352C",
"<  c #363129",
"1  c #262739",
"2  c #382A35",
"3  c #273733",
"4  c #383935",
"5  c #442B35",
"6  c #432D39",
"7  c #492E3A",
"8  c #4C3434",
"9  c #44343A",
"0  c #4E313D",
"q  c #51333E",
"w  c #5E363E",
"e  c #5B393D",
"r  c #60373F",
"t  c #27463D",
"y  c #3A4739",
"u  c #384B38",
"i  c #27593A",
"p  c #3B563F",
"a  c #404333",
"s  c #584135",
"d  c #654A35",
"f  c #664836",
"g  c #67553D",
"h  c #7A583E",
"j  c #2A2E43",
"k  c #2B334A",
"l  c #363649",
"z  c #2A3657",
"x  c #3B3F5E",
"c  c #263662",
"v  c #323E68",
"b  c #493947",
"n  c #543440",
"m  c #5A3642",
"M  c #5C3942",
"N  c #543C48",
"B  c #633B45",
"V  c #6C3E48",
"C  c #344647",
"Z  c #2D5547",
"A  c #3A5844",
"S  c #3C455B",
"D  c #37684D",
"F  c #3B774D",
"G  c #3D6F5B",
"H  c #3D7954",
"J  c #3F476A",
"K  c #474549",
"L  c #435D43",
"P  c #495D45",
"I  c #45485C",
"U  c #584C52",
"Y  c #6B4345",
"T  c #75434C",
"R  c #7D464E",
"E  c #78484B",
"W  c #75594D",
"Q  c #7E4650",
"!  c #456144",
"~  c #496449",
"^  c #4E6E4E",
"/  c #536346",
"(  c #526F4E",
")  c #46774E",
"_  c #52704F",
"`  c #4E6A56",
"'  c #437A57",
"]  c #4C7A52",
"[  c #557751",
"{  c #656245",
"}  c #6A6748",
"|  c #7D6848",
" . c #796356",
".. c #657551",
"X. c #697554",
"o. c #677956",
"O. c #787659",
"+. c #464B6B",
"@. c #574F66",
"#. c #4A5371",
"$. c #4B567A",
"%. c #545977",
"&. c #665B70",
"*. c #506E6A",
"=. c #48796B",
"-. c #58767B",
";. c #707074",
":. c #834D4D",
">. c #8F574C",
",. c #895A4B",
"<. c #804752",
"1. c #864954",
"2. c #8D4C56",
"3. c #944F59",
"4. c #935454",
"5. c #995658",
"6. c #A15C59",
"7. c #826A49",
"8. c #996F4D",
"9. c #99714D",
"0. c #8B6F59",
"q. c #9B6658",
"w. c #8A715B",
"e. c #98755B",
"r. c #A5734E",
"t. c #A9744E",
"y. c #AE625D",
"u. c #AA6C5B",
"i. c #B2665D",
"p. c #B47B57",
"a. c #8D6D68",
"s. c #836C73",
"d. c #947775",
"f. c #AC6D60",
"g. c #B27266",
"h. c #B67861",
"j. c #CB795E",
"k. c #C57364",
"l. c #CC7965",
"z. c #D17F66",
"x. c #478050",
"c. c #59835A",
"v. c #64845A",
"b. c #6B895E",
"n. c #788B5A",
"m. c #658C60",
"M. c #688C63",
"N. c #679063",
"B. c #6B9263",
"V. c #6F9969",
"C. c #729B69",
"Z. c #6D8E7B",
"A. c #7EAC73",
"S. c #79A37A",
"D. c #7FB176",
"F. c #858A5E",
"G. c #B4835F",
"H. c #928E6E",
"J. c #B48668",
"K. c #AB9564",
"L. c #B88872",
"P. c #80AB73",
"I. c #81B076",
"U. c #8BBD7E",
"Y. c #C8895C",
"T. c #D4875E",
"R. c #CA8568",
"E. c #DB8368",
"W. c #D88668",
"Q. c #CA956C",
"!. c #DF9964",
"~. c #DD916B",
"^. c #C69A77",
"/. c #EB956A",
"(. c #EC966B",
"). c #E79A68",
"_. c #E39D6C",
"`. c #E4A26D",
"'. c #ECA16A",
"]. c #F6A46D",
"[. c #F9A66D",
"{. c #F5A86C",
"}. c #FDAB6F",
"|. c #E8A473",
" X c #F4AD74",
".X c #FEAD70",
"XX c #FFB472",
"oX c #FFBA75",
"OX c #FAB47B",
"+X c #FFBB7C",
"@X c #8DC07F",
"#X c #4D5284",
"$X c #575B89",
"%X c #575D90",
"&X c #5B6683",
"*X c #577882",
"=X c #5D6B92",
"-X c #666787",
";X c #62718E",
":X c #6B728D",
">X c #76748C",
",X c #626993",
"<X c #907B82",
"1X c #7D889C",
"2X c #7CA484",
"3X c #948B96",
"4X c #AB928A",
"5X c #8DBF82",
"6X c #888FA6",
"7X c #9CA6B8",
"8X c #B0B0B4",
"9X c #CFA68A",
"0X c #DCBA9A",
"qX c #8EC181",
"wX c #92C683",
"eX c #96CB86",
"rX c #92C489",
"tX c #97CD88",
"yX c #9ED68D",
"uX c #9FD88E",
"iX c #A1DA8F",
"pX c #A3DC91",
"aX c #A6E093",
"sX c #F6C390",
"dX c #FFCD92",
"fX c #FCCB98",
"gX c #E9D3B6",
"hX c #F7DAB2",
"jX c #B6BCC6",
"kX c #CED5D1",
"lX c #E1DEC9",
"zX c #F0E8CE",
/* pixels */
"yXyXyXyXyXyXyXyXyXyXyXyXyXyXiXpXiXaXaXaXaXaXaXaXaXaXaXaXpXpXaXpXaXaXpXaXaXaXaXaXpXaXaXaXaXpXaXpXuXuXyXyXyXyXuXyXyXuXyXyXyXyXyXyX",
"yXyXyXyXyXyXyXiXyXyXyXyXyXyXyXyXyXyXyXyXyXyXyXyXyXyXyXyXyXyXiXyXyXyXyXyXyXyXyXyXyXyXyXyXyXyXyXyXyXyXyXyXyXyXyXyXyXyXyXuXuXyXiXyX",
"yXuXuXyXyXyXiXyXyXyXiXyXiXyXyXeXwX@XU.U.U.U.U.U.U.U.U.U.@XU.U.U.U.U.U.U.U.U.U.U.@X@X@X@XU.@X@XwXeXyXuXuXyXyXyXyXyXuXyXyXyXyXyXyX",
"yXyXyXyXyXyXyXyXyXyXyXpXpXiXtX5XI.C.B.N.N.N.B.B.B.B.N.N.B.B.B.B.B.B.B.B.B.B.B.B.B.B.B.V.N.B.C.A.@XyXuXpXiXuXyXyXyXyXyXyXyXyXyXyX",
"yXyXuXyXyXyXyXyXyXyXuXiXpXpXeXI.N._ ! L ! ! ! ! ! ! ! ! ! ! ! ! ! ! ! ! ! ! ! ! L ! ! a L ! _ M.D.eXiXiXiXiXyXyXyXyXyXyXyXiXyXyX",
"uXyXyXyXuXyXyXyXuXyXyXiXpXyXU.C.^ u , : : : : : : : : : , , : : , : : : : : , : , : , : : , u _ C.@XyXiXiXiXyXyXiXyXyXyXyXyXyXyX",
"yXyXuXyXyXyXuXyXuXyXyXtXeX5XA.o.a y @ X + @ @ @ & & & @ & @ & @ & & @ @ & & & & # & & X X & , L v.A.U.eXtXyXyXiXyXyXyXyXiXyXyXyX",
"yXyXyXyXyXyXuXiXpXiXyXqXD.C.v.~ y = # # - = 5 ; 5 = ; 5 = 5 = 5 5 = 5 = 5 = 5 = = 5 ; - # # 2 a ~ v.V.I.@XyXiXiXiXyXyXyXyXyXyXyX",
"yXyXyXyXyXyXuXiXpXpXeXI.M.( a u 2 2 ; 5 0 w r r r w w r w r w M r r w w w w w r r r w 0 5 5 ; 2 4 L ( M.I.tXpXpXpXiXyXyXyXiXyXyX",
"yXyXuXyXyXyXyXyXiXyX5XC.( u 4 , ; 6 q M V T R <.<.<.R R R R R Q R R R R R R R <.<.R V V m 0 5 ; = , u ( C.U.yXpXiXyXyXyXyXyXyXyX",
"uXyXyXyXuXyXyXyXeXU.A.c.L , & & - n m B V 1.1.2.2.2.3.2.3.2.3.2.2.3.2.2.2.3.2.2.2.1.1.V V n 0 - & & 3 P v.A.U.eXtXyXyXyXyXiXyXyX",
"yXyXyXuXiXyXtXU.I.C.v./ y 2 # - ; n m B V <.<.1.2.2.3.3.3.3.3.3.3.3.3.3.3.3.3.2.1.1.R V B m 0 5 - - * y ~ o.C.I.@XtXyXiXiXyXyXyX",
"yXyXuXiXuXyXwXA.m.( P a 4 2 ; 5 6 n n m B V V V 1.2.3.3.3.3.3.3.3.3.3.3.3.3.2.1.R V V B m n 0 7 2 2 ; 4 y P _ m.A.wXyXiXyXyXyXyX",
"uXyXyXiXpXyXqXC.( y 3 * ; 6 7 0 7 n n n n B V V Q 1.3.3.3.2.3.2.2.3.3.2.3.2.2.1.V B m m n n 0 0 7 7 7 2 = , y ( C.U.yXpXpXyXyXyX",
"yXyXyXpXpXyXU.N.L , + # ; 7 q n n 7 n n n n m B V 1.1.1.1.1.1.1.1.1.1.2.2.3.<.V V m q 0 n 0 n n q q 0 ; @ + 3 ~ N.U.yXpXpXyXyXyX",
"yXyXyXpXpXyXU.b.L : X @ - 7 n n n n n 7 n n n B V V Q V T Q T T T T V <.V V V V m n 0 0 0 n n n m q 7 - @ o : a M.U.yXpXpXyXiXyX",
"yXyXyXpXpXyXU.m.L : X @ - 7 n n n q q q 0 0 q n M B B B B B B B B B B B B B B m n q q 7 q q q q n q 0 ; @ X * L b.U.yXpXiXuXyXyX",
"yXyXyXpXpXyXU.N.L , X # ; 7 q n n n q q q q n n e M m m M M m m M m M m M m m e n n n q q q q m n q 7 - # + > L N.U.yXpXiXuXyXuX",
"yXyXuXpXiXyXU.N.L , + @ ; 7 q n q n q m m B B B B B B r B M B B B B B B B B r Y B B M M m n m q n q 7 ; # + , L B.U.uXpXiXuXyXyX",
"uXyXuXpXiXiXU.B.L , + @ - 7 q n n q M B Y E E R E E E E R T T T T T T E T E E E E R E V B m q q n 0 0 - & X , ! N.U.yXiXiXuXyXyX",
"yXyXyXiXpXyXU.M.L , + # ; 7 n n q n M Y :.4.5.5.5.5.5.5.4.4.4.3.4.4.4.4.4.5.5.5.5.5.4.:.V B q q n q 7 - @ $ > L N.U.yXpXpXuXyXyX",
"yXyXiXiXpXyXU.B.L : $ @ - 6 n 7 q q B T 2.6.y.i.i.y.y.y.y.y.y.f.y.y.y.f.y.y.i.i.i.i.6.2.V m q q n q 0 - @ $ > ! N.U.yXpXiXyXyXyX",
"yXyXiXiXiXiXU.B.L : + @ ; 7 n n 0 q w Y 2.6.y.y.y.y.i.i.i.k.k.k.k.k.k.i.i.y.y.y.y.y.5.>.V B 7 n 0 q 7 - @ X , L N.U.yXpXpXuXyXuX",
"yXyXiXpXpXiX@XB.L : O @ - 6 n 7 7 7 q r E :.>.4.4.4.5.y.k.z.E.E.E.E.z.k.y.5.4.4.4.4.:.E B q 7 7 0 q 7 - @ X : L B.@XuXaXpXuXyXyX",
"yXyXiXpXaXiX@XB.! : X X - 7 7 7 7 5 6 0 m V V V V Y :.6.h.W.(.].].(.W.k.q.E T Y V V V r q 5 5 7 0 0 7 - @ X : L B.wXiXaXiXiXyXyX",
"yXyXiXiXiXyXU.B.! : + # ; 7 n n 7 6 5 7 7 7 0 7 7 q f >.p.).[..X.X].).p.,.Y q 8 7 7 0 7 7 5 6 7 0 0 7 ; @ o : ! N.U.yXiXiXiXiXyX",
"iXyXtXtXeX@XA.n./ 9 < ; 5 7 n n b b b b b 2 2 - 2 2 m ,.p.).}.oXXX.X_.p.,.N 2 2 2 6 2 b b n b n b n 0 5 = < y / b.P.@XeXtXyXyXyX",
"iXyXeXwXI.C.b.X.} { f f q n n N U @.@.N b l j 1 1 2 K W G._..XoXOX.X_.G.W b 2 1 1 1 l b I @.@.U N n q e f f h } X.b.C.I.U.eXyXiX",
"pXyXwXA.m.( / } 7.9.r.,.f w N @.&.>X,X-X+.l j j j j b  .h.|..XXXoX.X_.J. .K j j j j l I -X,X>X-X@.N m Y ,.8.9.7.} / _ b.A.wXyXpX",
"pXyX5XV.^ y a g 9.Y.Y.p.,.Y M &.<X6X<X>X$Xb k j j k b  .h._..XoXXX.X_.h. .N k j j k x %.>X<X<X<X&.B Y ,.p.Y.Y.9.g y u _ C.U.yXaX",
"pXyXU.m.L > < d G.!.'.Y.r.W W s.<X7X7X6X&XJ z k k z I  .J._. XXXXX.X_.J. .I z j k z +.,X6X7X8X<X;.W W u.T.'.!.t.d < , D m.U.yXaX",
"aXiXU.m.A & * d t.'.{.).j.u.a.4X8XjXjX6X;X+.z z c z I 0.J._.XXoXXXXX_.L. .I z c z c J ,X6XjXjX8X<Xe.r.j.).}.'.t.d = $ p b.U.yXaX",
"aXuX@Xm.L o = d t.'.}.[.).R.^.9XkXkXkX8X:X#.v c c v +. .L.|.XXOXoX.X`.L.;.+.v c c v $.:X7XkXkXgX9X^.R.).{.}.'.t.d = : p v.@X@XaX",
"aXtX@XN.! : = d t.!.{.}.].|.|.sXgXzXkX8X6X$X+.v v +.%.a.L._..X.XXX}.`.L.a.@.+.v v v $X6X8XkXzXhXsX9X'.{.}.{.!.t.d < : L N.@XiXaX",
"aXyX@XC.( u a g 9.Y.!.{.{.{.OXfXhXzXlXjX3X-X&.#.#.&.;.d.L.).].[.}.]._.L.d.&.%.#.%.&.>X3XjXlXzXhXdX+X{.{.'.!.Y.9.d a u ( C.@XiXaX",
"iXyX@XA.m.( / { | 9.G.Y.).}.oXdXhXhXlX0X4XH.s.;.s.s.d.d.R.W./.(./.).W.R.g.d.s.s.s.s.H.4X0XgXhXhXdXoX.X).Y.G.9.| { / ( m.D.@XyXiX",
"yXuX@X@XU.C.b...g g h r.Y.{.oXdXdXfXfX0X9X^.L.L.g.L.L.R.R.R.z.z.z.z.R.R.R.L.L.L.L.L.^.9X0XfXfXdXdXoX{.Y.r.h g g ..b.C.D.@X@XaXaX",
"yXuXuXuX@X@XA.v.! a s h p.`..XoXoXoXOX X|.|.|.(.|.|._.~.R.l.l.k.k.k.l.W.~._.|.|.`.|.|.|. XOX+XoXOX.X!.p.h s a ! v.I.@X@X@XiXiXiX",
"yXuXuXiXiXyX@XB.( u a g 9.Y.).).].[.}.}..X.X.X.X.X}. X(.W.z.k.k.k.k.l.W.(.]..X.X.X.X}.}.}.[.[.].].).Y.9.g y u ^ V.@XyXiXiXyXyXyX",
"yXuXuXiXaXaX@XA.m.( ! { 7.9.t.Y.T.E./.].}..XXXXXXXOX}.].(.E.z.z.z.E.W./.]..XXXXX.XXX}.[.].(.E.T.Y.t.9.| { / ( m.I.@XiXaXiXiXyXyX",
"yXuXuXuXiXyXtX@XI.C.b...{ g h ,.t.j.E.(.[.}.XXXXXXXX.X[.].(.(._././.(.|.}..X.XoXXXXX.X[.(.E.j.t.,.h g { ..b.C.D.@XyXiXiXiXuXyXyX",
"yXyXyXuXuXuXuXyXeX@XA.v.~ a 9 f >.i.l.~.(..X}.XX.X.X.X}.[.].].].].].].[.}..X.X.X.X.X[.(.~.z.i.>.f 8 a P v.A.@XeXyXyXyXuXuXuXyXyX",
"yXuXyXuXuXuXyXtXtXU.A.c.L > : 9 T >.h.R._.(.].[.[.[.[.}.].].[.].[.[.].].].].[.}.[.[.(._.R.i.q.Y 8 , > A c.A.@XeX@XiXiXiXuXyXuXyX",
"yXyXuXuXiXiXyX@XI.C.c.D u % 3 4 g  .e.h.R.~.(.(.(./.(.(.(.(.(.(.(.(.(.(.(.(.(.(.(.).~.R.J.e. .U 4 > % Z ~ c.C.I.@XiXiXiXiXuXyXyX",
"yXyXyXaXpXiXeXD.N.^ p u t % t C P ..O.F.h.R.E.E.E.W.E.W.W.E.W.W.E.E.E.E.E.E.E.E.z.E.R.h.e.O...P Z k % t i A ^ N.U.@XiXaXiXuXyXyX",
"yXyXyXiXpXuX@XC._ u t > k C Z D D ) ..O.e.h.k.k.k.k.k.k.k.k.k.k.k.k.k.k.k.k.k.k.k.l.g.e.O.[ ) D D Z Z t 3 , u _ C.@XyXaXiXuXuXyX",
"iXyXyXtX@X@XA.b./ y < 4 C ~ ` ' G H ] ..O.u.f.i.i.f.g.u.i.f.g.f.g.f.f.f.f.u.f.f.i.f.f.w.o.] F H G ` S A y < a / b.A.@X@XyXiXyXuX",
"iXyXtX@XI.C.b...{ g Y {  .O.o.o.] ' ) [ X.O.0.w.0.0.w.w.w.w.w.w.a.w.w.w.w.w.0.0.0.0.O.X.] x.x.x.[ O.O. .h d g { ..b.V.D.@X@XyXuX",
"iXyX@XD.m.( / { | 9.t.G.G.K.K.F.c.x.x.x.] [ o.X.X.X.o.X...X.X.X.o.X.X.X.X.X.o.o.X.o.[ x.) F ] v.F.K.K.G.p.t.9.| { / ( m.A.@XyXaX",
"aXyX@XC.( u a g 9.Y.!.'.'.`.Q.K.n.c.H F ) ] ] ' ] ] ] [ ) ) ] ] ] ] ] ) ] ] ] ' ] ] ' H H F c.n.K.Q.`.'.'.!.Y.9.g y u ^ V.@XyXaX",
"aXyX@XN.L : = d r.!..XoXXXXX`.K.F.[ H H H H ' x.' ' ' G F F F F F D F F G ' H x.=.' G H H ' m.F.K.`.}.XXXXXX!.r.d = , L m.@XyXaX",
"aXtXU.m.p & & d t.'.XXoXoXoXXXQ.H.Z.=.=.=.=.=.=.=.=.=.G D i i i i i Z D G =.=.=.=.=.=.=.=.c.M.H.^. XoXoXoXXX'.t.d & * p v.U.yXaX",
"aXyXU.v.p : = d t.'.oXoXoXXX X^.L.>X-.*X*X*X*X*X*X*X-.G Z t % % % t t i ` -.*X*X*X*X*X-.-.*X;.H.^.oXXXoXoXoX'.t.d * * p m.@XtXaX",
"aXyX@XN.L : < d t.!.}.XXXXXX X^.<X>X=X*X=X;X;X;X;X;X%.+.l 3 $ o o o : C +.&X=X=X;X;X=X=X=X,X>X3X^. X}.XXXXXX!.r.d < : L N.@XyXaX",
"aXyX@XC.) u y g 9.Y.!.).).!.Q.L.<X>X,X=X=X=X,X,X,X&X%.+.k $ X . . X $ j I %.&X,X,X,X;X=X=X,X>X<XL.Q.).).).!.Y.9.g y u ) C.@XyXaX",
"iXyX@XD.v._ / { | 9.r.t.r.r.e.w.;.$X%X%X%X%X$X#X$.#.+.k 1 X .     . O 1 k +.+.#.$X$X%X%X%X$X-X;.a.0.r.t.t.r.9.7.g / ( m.D.@XyXiX",
"uXyXeXU.A.V.b...{ g d d d d d U @.%.#X#X#X#X$.+.x z 1 1 O X .     . X O 1 j l x +.$.#X#X#X#X$.@.U d d d d d g { ..b.A.P.@X@XiXiX",
"yXyXyXyXeX@XA.b./ y < = = = 4 4 S J $.$.#XJ J J l 3 $ $ O X X X X X o + $ $ 1 k S J #.#X#XJ J J y < < = = < y / b.P.@X@XyXyXiXiX",
"yXyXyXiXiXyX@XV.( u : : : , 3 C S J *.J $X#.#.I C 3 , : > > > > > , , : > , 3 C I #.$.%.#X$.#.S C 3 : : * : u _ C.@XiXiXiXyXyXyX",
"yXyXiXiXaXiXeXA.b.^ L p p A ~ ` *.-.Z.1X1X=.c.=.` ~ ! ! ! ~ / / ~ ! ! ! ! P ^ ` *.-.Z.*XZ.-.M.*.` ~ L p p L ^ m.P.@XiXaXiXiXyXyX",
"yXyXuXiXpXpXyX@XA.V.N.v.N.N.B.V.S.S.2X2X2X3XS.S.C.V.B.B.M.B.B.B.B.B.B.B.B.B.B.C.S.2X2X2X2X2XS.S.V.B.N.M.b.N.V.D.@XtXiXiXiXyXyXyX",
"yXuXyXyXyXyXyXeXqXqXU.U.U.U.5X5XqXwXqXrXrX5X5X5X5X5XU.U.U.U.U.U.U.U.U.U.U.U.U.5XqXrX5XrXrXrX5XqX5X5X5X5XU.U.@X@XtXyXyXiXyXyXyXyX",
"yXyXyXyXyXyXyXyXyXyXyXyXyXyXyXyXyXyXyXyXyXyXiXiXiXiXyXyXiXiXiXiXiXiXiXiXiXiXiXyXyXyXyXyXyXyXyXyXyXyXtXyXyXyXyXyXyXyXyXyXyXyXiXyX",
"yXyXuXyXyXyXyXpXpXaXaXaXaXaXaXpXpXpXpXpXpXiXpXpXpXpXpXpXpXpXpXpXpXpXpXpXpXaXpXiXpXpXpXpXpXiXaXpXpXaXaXaXaXaXpXiXiXiXyXyXyXyXyXyX"
};
