/* XPM */
static char * player_2_xpm[] = {
"64 64 96 2",
"  	c #9ED68D",
". 	c #9DD58C",
"+ 	c #000000",
"@ 	c #212121",
"# 	c #B28709",
"$ 	c #464646",
"% 	c #303030",
"& 	c #9DD58D",
"* 	c #9AD28A",
"= 	c #96CE87",
"- 	c #95CD86",
"; 	c #99D189",
"> 	c #8AC27E",
", 	c #7BB473",
"' 	c #79B271",
") 	c #87BF7B",
"! 	c #92CA84",
"~ 	c #75AF6F",
"{ 	c #639E62",
"] 	c #619D61",
"^ 	c #70AA6A",
"/ 	c #8DC580",
"( 	c #7C795C",
"_ 	c #9CD48C",
": 	c #8EC681",
"< 	c #6DA768",
"[ 	c #5F9B5F",
"} 	c #67A265",
"| 	c #9BD38A",
"1 	c #93CB85",
"2 	c #7AB372",
"3 	c #66A164",
"4 	c #6BA567",
"5 	c #8DC581",
"6 	c #7AB272",
"7 	c #6AA466",
"8 	c #629E61",
"9 	c #619D60",
"0 	c #64A063",
"a 	c #6AA567",
"b 	c #8BC37E",
"c 	c #73AC6D",
"d 	c #649F62",
"e 	c #609C60",
"f 	c #B2AE84",
"g 	c #76AF6F",
"h 	c #6CA668",
"i 	c #5F9C5F",
"j 	c #629D61",
"k 	c #92CA83",
"l 	c #73AC6C",
"m 	c #354CA9",
"n 	c #98D088",
"o 	c #82BB78",
"p 	c #68A365",
"q 	c #609C5F",
"r 	c #639E61",
"s 	c #91C983",
"t 	c #84BC79",
"u 	c #69A366",
"v 	c #71AA6B",
"w 	c #253576",
"x 	c #7CB574",
"y 	c #81B977",
"z 	c #9BD38B",
"A 	c #6EA869",
"B 	c #7CB573",
"C 	c #639F62",
"D 	c #86BE7B",
"E 	c #8BC37F",
"F 	c #6FA869",
"G 	c #94CC85",
"H 	c #81B976",
"I 	c #75AE6E",
"J 	c #65A163",
"K 	c #75AF6E",
"L 	c #74AC6D",
"M 	c #65A063",
"N 	c #86BE7A",
"O 	c #64A062",
"P 	c #93CB84",
"Q 	c #6FA96A",
"R 	c #99D18A",
"S 	c #7BB472",
"T 	c #88C07D",
"U 	c #7EB776",
"V 	c #4C2B1C",
"W 	c #8FC782",
"X 	c #6D3E29",
"Y 	c #9BD28A",
"Z 	c #89C17D",
"` 	c #72AC6C",
" .	c #8AC37E",
"..	c #88C07C",
"+.	c #7FB876",
"@.	c #9CD48B",
"                                                                                                    . . . .                     ",
"                                                                                                    . . . .                     ",
"                                                                                                    . . . .                     ",
"                                                                                                    . . . .                     ",
"                                                                                                    . . . .                     ",
"                                                                                                    . . . .                     ",
"                                                                                                    . . . .                     ",
"                                                                                                    . . . .                     ",
"                                                . . .                                                                           ",
"                                                . . . + + + + + + + + + +                                                       ",
"                                                . . . + @ @ @ @ @ @ @ @ +                                                       ",
"                                                . . . + @ @ @ @ @ @ @ @ +                                                       ",
"                                                . . . + @ @ @ @ @ @ @ @ +                                                       ",
"                                                . . . + @ @ @ @ @ @ @ @ +                                                       ",
"                                                . . . + @ @ @ @ @ @ @ @ +                                                       ",
"                                  + + + + + + + + + + # # # # # # # # # # + + + + + + + + + +                                   ",
"                                  + $ $ $ $ $ $ $ $ $ @ @ @ @ @ @ @ @ @ @ $ $ $ $ $ $ $ $ $ +                                   ",
"                                  + $ $ $ $ $ $ $ $ $ % % % % % % % % % % $ $ $ $ $ $ $ $ $ +                                   ",
"                                  + $ $ $ $ $ $ $ $ $ $ $ $ $ $ $ $ $ $ $ $ $ $ $ $ $ $ $ $ +                                   ",
"                                  + $ $ $ $ $ $ $ $ $ $ $ $ $ $ $ $ $ $ $ $ $ $ $ $ $ $ $ $ +                                   ",
"                                  + $ $ $ $ $ $ $ $ $ $ $ $ $ $ $ $ $ $ $ $ $ $ $ $ $ $ $ $ +                                   ",
"                                  + $ $ $ $ $ $ $ $ $ $ $ $ $ $ $ $ $ $ $ $ $ $ $ $ $ $ $ $ +                                   ",
"                                  + $ $ $ $ $ $ $ $ $ $ $ $ $ $ $ $ $ $ $ $ $ $ $ $ $ $ $ $ +                                   ",
"                                  + $ $ $ $ $ $ $ $ $ $ $ $ $ $ $ $ $ $ $ $ $ $ $ $ $ $ $ $ +                                   ",
"                                  + $ $ $ $ $ $ $ $ $ $ $ $ $ $ $ $ $ $ $ $ $ $ $ $ $ $ $ $ +                                   ",
"                                  + $ $ $ $ $ $ $ $ $ $ $ $ $ $ $ $ $ $ $ $ $ $ $ $ $ $ $ $ +                                   ",
"                          & .     + $ $ $ $ $ $ $ $ $ $ $ $ $ $ $ $ $ $ $ $ $ $ $ $ $ $ $ $ +                                   ",
"                      . * = - ; . + $ $ $ $ $ $ $ $ $ $ $ $ $ $ $ $ $ $ $ $ $ $ $ $ $ $ $ $ +                                   ",
"                      ; > , ' ) = + + + + + + + + + + + + + + + + + + + + + + + + + + + + + +                                   ",
"                    . ! ~ { ] ^ / . + ( ( ( + @ @ @ @ @ @ @ @ @ @ @ @ @ @ @ @ @ @ + ( ( ( +                                     ",
"                    _ : < [ [ } ) | + ( ( ( + @ @ @ @ @ @ @ @ @ @ @ @ @ @ @ @ @ @ + ( ( ( +                                     ",
"                    & 1 2 3 { 4 , > + ( ( ( + % % % % % % % % % % % % % % % % % % + ( ( ( +                                     ",
"                    * 5 6 7 8 9 0 a + ( ( ( + % % % % % % % % % % % % % % % % % % + ( ( ( +                                     ",
"                  * b c d e [ [ [ [ + f f f + $ $ $ $ $ $ $ $ $ $ $ $ $ $ $ $ $ $ + f f f +                                     ",
"                & 1 g 9 [ [ [ [ [ [ + f f f + $ $ $ $ $ $ $ $ $ $ $ $ $ $ $ $ $ $ + f f f +                                     ",
"                _ : h [ [ i j e [ e + f f f + + + + + + + + + + + + + + + + + + + + f f f +                                     ",
"                . k l e [ 9 3 9 [ j + f f f + m m m m m m m m m m m m m m m m m m + f f f +                                     ",
"                  n o p q e r i [ 9 + f f f + m m m m m m m m m m m m m m m m m m + f f f +                                     ",
"                  . s g 8 i i [ [ [ + f f f + m m m m m m m m m m m m m m m m m m + f f f +                                     ",
"                    ; t u q [ [ [ [ + f f f + m m m m m m m m m m m m m m m m m m + f f f +                                     ",
"                    _ : v 9 [ [ [ [ + f f f + m w m m m m + + + + + + m m m m m m + f f f +                                     ",
"                      = x d [ [ [ i + f f f + m m m m m m + y |     + m m m m m m + f f f +                                     ",
"                      z > < i [ [ [ + + + + + m m m m m m + A 1     + m m m m m m + + + + +                                     ",
"                        - B d [ [ [ + + + + + m w m m m m + C D z   + m m m m m m + + + + +                                     ",
"                        z E F q [ [ + + + + + m m m m m m + q g G . + m m m m m m + + + + +                                     ",
"                          = H 3 [ [ + + + + + m m m m m m + [ 3 o n + m m m m m m + + + + +                                     ",
"                          _ ! I e [ + + + + + m m m m m m + [ [ 4 > + m m m m m m + + + + +                                     ",
"                            z ) J [ [ [ [ [ + m m m m m m + [ [ q K + m m m m m m +                                             ",
"                              G L i [ [ [ [ + m m m m m m + [ [ [ M + m m m m m m + . . . .                                     ",
"                              z N O [ [ [ [ + m m m m m m + [ [ [ i + m m m m m m + . . . .                                     ",
"                                P Q [ [ [ [ + m m m m m m + [ [ [ [ + m m m m m m + . . . .                                     ",
"                                R S e [ [ [ + m m m m m m + [ [ [ [ + m m m m m m + . . . .                                     ",
"                                _ T 0 [ [ [ + m m m m m m + [ [ [ [ + m m m m m m + . . . .                                     ",
"                                  1 A [ [ [ + + + + + + + + [ [ [ [ + + + + + + + + . . . .                                     ",
"                                  z U j [ [ + V V V V V V + [ [ [ [ + V V V V V V + . . . .                                     ",
"                                    W Q q [ + X X X X X X + [ [ [ [ + X X X X X X + . . . .                                     ",
"                                    Y Z ` p + X X X X X X + M 9 e 9 + X X X X X X +                                             ",
"                                      ; s  .+ + + + + + + + ..y +.+.+ + + + + + + +                                             ",
"                                          _ .           & . . @.@.z z _                                                         ",
"                                                                                                                                ",
"                                                                                                                                ",
"                                                                                                                                ",
"                                                                                                                                ",
"                                                                                                                                "};
