/* XPM */
static char * player_3_xpm[] = {
"64 64 111 2",
"  	c #9ED68D",
". 	c #9DD58C",
"+ 	c #000000",
"@ 	c #464646",
"# 	c #ED1C24",
"$ 	c #303030",
"% 	c #FFC20E",
"& 	c #212121",
"* 	c #171717",
"= 	c #565440",
"- 	c #7C795C",
"; 	c #B2AE84",
"> 	c #D1D1D1",
", 	c #FFF9BD",
"' 	c #99D189",
") 	c #95CD86",
"! 	c #9AD28A",
"~ 	c #90C782",
"{ 	c #82BA78",
"] 	c #9DD58D",
"^ 	c #97CF88",
"/ 	c #86BE7B",
"( 	c #70AA6A",
"_ 	c #6FA96A",
": 	c #85BE7A",
"< 	c #96CE88",
"[ 	c #8CC47F",
"} 	c #79B271",
"| 	c #76AF6F",
"1 	c #80B977",
"2 	c #90C882",
"3 	c #9CD48B",
"4 	c #74AE6E",
"5 	c #6BA567",
"6 	c #77B06F",
"7 	c #8BC37F",
"8 	c #9BD38A",
"9 	c #84BC7A",
"0 	c #67A264",
"a 	c #5F9B5F",
"b 	c #629D61",
"c 	c #72AC6C",
"d 	c #8DC580",
"e 	c #4D6DF3",
"f 	c #9BD38B",
"g 	c #80B876",
"h 	c #629E61",
"i 	c #73AC6D",
"j 	c #89C17D",
"k 	c #98D089",
"l 	c #81B977",
"m 	c #619C60",
"n 	c #6DA768",
"o 	c #86BF7B",
"p 	c #9CD48C",
"q 	c #88C07C",
"r 	c #66A164",
"s 	c #609C5F",
"t 	c #8CC480",
"u 	c #91C983",
"v 	c #71AA6B",
"w 	c #94CC85",
"x 	c #354CA9",
"y 	c #83BB78",
"z 	c #69A365",
"A 	c #85BD7A",
"B 	c #7FB775",
"C 	c #6AA466",
"D 	c #609C60",
"E 	c #71AB6B",
"F 	c #96CE87",
"G 	c #639E61",
"H 	c #78B170",
"I 	c #8EC680",
"J 	c #92CA83",
"K 	c #75AE6E",
"L 	c #619D60",
"M 	c #639F62",
"N 	c #73AD6E",
"O 	c #8AC27D",
"P 	c #8AC27E",
"Q 	c #6DA769",
"R 	c #70AA6B",
"S 	c #6DA668",
"T 	c #69A466",
"U 	c #98D088",
"V 	c #80B976",
"W 	c #64A062",
"X 	c #97CE87",
"Y 	c #7FB876",
"Z 	c #66A264",
"` 	c #6EA869",
" .	c #9CD38B",
"..	c #96CE86",
"+.	c #7DB573",
"@.	c #93CB85",
"#.	c #8BC37E",
"$.	c #73AC6C",
"%.	c #9AD189",
"&.	c #74AD6D",
"*.	c #649F62",
"=.	c #6CA668",
"-.	c #5F9C5F",
";.	c #9C5A3C",
">.	c #82BB78",
",.	c #84BC79",
"'.	c #97CF87",
").	c #66A163",
"!.	c #6D3E29",
"~.	c #92CA84",
"{.	c #7EB775",
"                    . . . .                                                                                                     ",
"                    . . . .                                                                                                     ",
"                    . . . .                                                                                                     ",
"                    . . . .                                                                                                     ",
"                    . . . .                                                                                                     ",
"                    . . . .                                                                                                     ",
"                    . . . .                             + + + + + + + +                                                         ",
"                    . . . .                             + @ + @ @ @ @ +                                                         ",
"                                                        + + @ @ @ @ @ +   . . .                                                 ",
"                                                        + # @ @ @ @ @ +   . . .                                                 ",
"                                                        + @ @ @ @ $ $ +   . . .                                                 ",
"                                                        + @ @ @ @ $ $ +   . . .                                                 ",
"                                                      % % % % % % % % %   . . .                                                 ",
"                                                + + + + + + + + + + + + + + + +                                                 ",
"                                                + & & & & & & & & & & & & & & +                                                 ",
"                                                + $ $ $ $ $ $ $ $ $ $ $ $ $ $ +                                                 ",
"                                                + @ @ @ @ @ @ @ @ @ $ $ $ $ $ +                                                 ",
"                                                + @ @ @ @ @ @ @ @ @ @ @ $ $ $ +                                                 ",
"                                                + @ @ @ @ @ @ @ @ @ @ @ @ @ $ +                                                 ",
"                                                + @ @ @ @ @ @ @ @ @ @ @ @ @ @ +                                                 ",
"                                                + @ @ @ @ @ @ @ @ @ @ @ @ @ @ +                                                 ",
"                                                + @ @ @ @ @ @ @ @ @ @ @ @ @ @ +                                                 ",
"                                                + + + + + + + + + + + + + + + +                                                 ",
"                                                  % + * * + = = = = + * * +                                                     ",
"                                                  % + & & + - - - - + & & +                                                     ",
"                                                  % + $ $ + ; ; ; ; + $ $ +                                                     ",
"                                                > > + @ @ + , , , , + $ $ +                                                     ",
"                                                > > + @ @ + , , , , + @ $ +                                                     ",
"                                                > > + @ @ + , , , , + @ @ +                                                     ",
"                                                    + @ @ + , , , , + @ @ +                                                     ",
"                                                    + @ @ + , , , , + @ @ +                                                     ",
"                                                    + @ @ + , , , , + @ @ +                                                     ",
"                . .                                 + @ @ + , , , , + @ @ +                                                     ",
"            . ' ) ) ' .                             + @ @ + , , , , + @ @ +                                                     ",
"            ! ~ { { ~ !                             + @ @ + , , , , + @ @ +                                                     ",
"          ] ^ / ( _ : < ]                           + @ @ + , , , , + @ @ +                                                     ",
"            ' [ } | 1 2 !                           + @ @ + , , , , + @ @ +                                                     ",
"            3 ) / 4 5 6 7 !                         + + + + + + + + + + + +                                                     ",
"              8 9 0 a b c d !                       + e e + + + + + + e e +                                                     ",
"              f g h a a h i j k                     + e e + + + + + + e e +                                                     ",
"              f l h a a a m n o !                   + e e + + + + + + e e +                                                     ",
"              p q r a a a a s _ t 3                 + e e + + + + + + e e +                                                     ",
"              ] u v s a a a a h } w .               + e e e x x x x x e e +                                                     ",
"                ! y 0 a a a a a z A k               + e e e e e e e e e e +                                                     ",
"                ] w B C b a a a D E [ !             + e e e e e e e e e e +                                                     ",
"                  p F { 0 a a a a G H I !           + e e e e e e e e e e +                                                     ",
"                    . J K L a a a a M N O '         + e e e e e e e e e e +                                                     ",
"                      ! P Q s a a a a L R P f       + e e e e e e e e e e +                                                     ",
"                        ! q S s a a a a L v [ !     + e e e e e e e e e e +                                                     ",
"                          ! / T a a a a a L K u .   + e e e e e e e e e e +                                                     ",
"                            U V r a a a a a W g U   + e e e e e e e e e e +                                                     ",
"                              X Y Z a a a a s ` [  .+ e e e e e e e e e e +                                                     ",
"                                ..+.M a a a a h } @.+ e e e e e e e e e e +                                                     ",
"                                . u N L a a a a 0 y + e e e e e e e e e e +                                                     ",
"                                  ! #.$.h a a a s _ + e e e e e e e e e e +                                                     ",
"                                    %.[ &.L a a a *.+ + + + + + + + + + + +                                                     ",
"                                      ! q =.-.a a s + ;.;.;.;.;.;.;.;.;.;.+                                                     ",
"                                        F >.C D a a + ;.;.;.;.;.;.;.;.;.;.+                                                     ",
"                                        p F ,.C -.a + ;.;.;.;.;.;.;.;.;.;.+                                                     ",
"                                          ] '.B ).-.+ ;.!.!.!.!.!.!.!.!.!.+                                                     ",
"                                            . ~.{.R + + + + + + + + + + + +                                                     ",
"                                              3 F 2 u ^ p                                                                       ",
"                                                  . .                                                                           ",
"                                                                                                                                "};
