/* XPM */
static char *player_2_resized[] = {
/* columns rows colors chars-per-pixel */
"64 64 200 2 ",
"   c #000B10",
".  c #0B1415",
"X  c #101615",
"o  c #111816",
"O  c #141B1B",
"+  c #1A1B1E",
"@  c #15241B",
"#  c #0E1A22",
"$  c #161D20",
"%  c #1C1F21",
"&  c #241C23",
"*  c #2B1E26",
"=  c #1D2123",
"-  c #1B2B25",
";  c #1D2429",
":  c #1E3629",
">  c #1B3035",
",  c #252324",
"<  c #2D2425",
"1  c #222D26",
"2  c #2E2C2C",
"3  c #312A23",
"4  c #35232D",
"5  c #3A262E",
"6  c #3A2B2D",
"7  c #26342A",
"8  c #2A352C",
"9  c #243B2E",
"0  c #353027",
"q  c #37322C",
"w  c #242B36",
"e  c #252C3C",
"r  c #3B2731",
"t  c #3A2C32",
"y  c #253832",
"u  c #383633",
"i  c #432C35",
"p  c #4A2F3B",
"a  c #532F3C",
"s  c #46343A",
"d  c #4D313D",
"f  c #52333F",
"g  c #5E363E",
"h  c #5B3B3C",
"j  c #60373F",
"k  c #234536",
"l  c #24433E",
"z  c #3D463A",
"x  c #354B3B",
"c  c #384B39",
"v  c #2C573B",
"b  c #3B563F",
"n  c #404333",
"m  c #44403D",
"M  c #5F4038",
"N  c #644736",
"B  c #694C36",
"V  c #664D39",
"C  c #67553D",
"Z  c #2E3547",
"A  c #33384B",
"S  c #323A52",
"D  c #4F3D41",
"F  c #543440",
"G  c #5A3642",
"H  c #573B42",
"J  c #643A46",
"K  c #6B3D47",
"L  c #6A3D48",
"P  c #2F4748",
"I  c #2A5548",
"U  c #395945",
"Y  c #2C6445",
"T  c #366A4B",
"R  c #36734A",
"E  c #3D744D",
"W  c #367D4D",
"Q  c #3B7D4E",
"!  c #3C7A54",
"~  c #3A4265",
"^  c #3E4771",
"/  c #4A4743",
"(  c #4A4D45",
")  c #465745",
"_  c #425D43",
"`  c #4D5256",
"'  c #6A4446",
"]  c #744C46",
"[  c #74414C",
"{  c #7C454E",
"}  c #6A5642",
"|  c #7D4550",
" . c #436249",
".. c #47674A",
"X. c #4D6E4E",
"o. c #536246",
"O. c #53664A",
"+. c #526F4E",
"@. c #4A704E",
"#. c #52704E",
"$. c #456B57",
"%. c #417953",
"&. c #417B59",
"*. c #547853",
"=. c #686546",
"-. c #766650",
";. c #667954",
":. c #76765B",
">. c #43496B",
",. c #49536B",
"<. c #585368",
"1. c #414A75",
"2. c #444D79",
"3. c #49517D",
"4. c #525779",
"5. c #466364",
"6. c #477769",
"7. c #4D7A6C",
"8. c #56747D",
"9. c #73737A",
"0. c #8B5C4D",
"q. c #804751",
"w. c #874954",
"e. c #8D4C56",
"r. c #944F59",
"t. c #96505A",
"y. c #826B4A",
"u. c #9B6D4D",
"i. c #9A724D",
"p. c #9A6654",
"a. c #9B7358",
"s. c #A5744E",
"d. c #AB764E",
"f. c #A97750",
"g. c #B27A55",
"h. c #8A6E66",
"j. c #39804E",
"k. c #3B8251",
"l. c #4A8050",
"z. c #5A835A",
"x. c #62825B",
"c. c #688659",
"v. c #6B895D",
"b. c #798B5A",
"n. c #658D60",
"m. c #688F61",
"M. c #66816C",
"N. c #679063",
"B. c #699162",
"V. c #6F9A69",
"C. c #729B69",
"Z. c #7BA670",
"A. c #7EAC73",
"S. c #878A5E",
"D. c #B5865F",
"F. c #918E6E",
"G. c #AE9068",
"H. c #80AB73",
"J. c #81B176",
"K. c #8BBD7E",
"L. c #C78B5D",
"P. c #C88661",
"I. c #D28D65",
"U. c #CD9869",
"Y. c #DE9964",
"T. c #C79C76",
"R. c #E89F66",
"E. c #E69D69",
"W. c #E4A46C",
"Q. c #EBA169",
"!. c #F7A76E",
"~. c #EAA574",
"^. c #F4AD74",
"/. c #FFAE70",
"(. c #FFB573",
"). c #FFBC77",
"_. c #8DC07F",
"`. c #4F5784",
"'. c #535A85",
"]. c #5A6388",
"[. c #597682",
"{. c #586090",
"}. c #5E6C92",
"|. c #63668A",
" X c #62718F",
".X c #75758C",
"XX c #626A93",
"oX c #647392",
"OX c #9B8783",
"+X c #8EC180",
"@X c #91C683",
"#X c #96CB86",
"$X c #97CD88",
"%X c #98CD88",
"&X c #9ED68D",
"*X c #9FD88E",
"=X c #A1DA8F",
"-X c #A2DC91",
";X c #A6E193",
":X c #A8E395",
/* pixels */
"&X&X&X&X&X*X&X&X&X&X&X&X&X&X&X=X&X&X&X&X&X&X&X*X&X&X&X&X&X&X&X&X*X&X&X&X*X&X&X&X&X&X&X&X&X&X&X&X&X&X&X&X&X&X&X*X&X&X&X&X&X&X&X&X",
"&X&X&X&X&X&X&X&X&X&X&X&X&X&X&X&X*X*X*X&X&X&X&X*X&X&X&X&X&X&X&X&X&X&X&X&X&X&X&X&X*X*X&X*X&X&X*X*X&X&X&X*X&X&X&X&X&X&X&X&X*X&X&X&X",
"*X&X&X&X&X&X*X&X=X&X&X&X&X&X&X&X*X*X*X*X*X*X*X*X*X*X*X*X*X*X*X*X*X*X*X*X&X*X*X*X*X*X*X*X*X*X*X*X&X&X&X&X*X&X&X&X&X&X*X&X&X&X&X&X",
"&X&X&X&X&X&X&X&X&X&X&X&X&X&X&X=X=X=X=X=X=X=X=X=X=X=X=X*X-X-X*X*X*X-X*X-X*X-X-X*X=X=X=X=X*X=X=X*X*X*X&X&X&X&X&X&X&X&X&X&X&X&X&X*X",
"&X&X&X*X&X&X&X&X&X&X&X&X&X&X=X=X=X=X-X=X-X=X=X=X-X-X*X-X-X-X*X-X-X-X-X-X-X-X-X-X*X=X;X=X-X-X-X-X*X*X&X&X&X&X&X&X&X&X&X&X&X*X&X&X",
"&X&X&X&X&X&X&X&X&X&X&X&X&X&X&X&X*X=X*X*X=X&X=X&X&X*X&X&X&X*X&X&X&X&X&X%X*X&X&X&X&X&X&X&X&X&X&X&X&X&X&X*X&X&X*X&X&X&X&X*X&X&X&X&X",
"&X*X&X&X&X&X*X&X=X&X&X&X=X&X&X#X_._.K.K.K.K.K.K.K._.K._.K._.K._._._._.K.K._._.K.K.K.K.K.K.K.+X@X#X&X&X*X*X*X&X&X&X*X&X&X&X&X&X&X",
"&X&X&X&X&X&X&X&X&X&X&X=X-X&X&XK.A.V.B.m.v.B.B.B.m.m.m.m.m.m.m.m.B.n.B.B.n.m.B.m.N.N.N.N.v.N.C.A._.&X*X*X*X*X&X&X&X&X&X&X&X&X*X&X",
"&X&X&X&X&X&X&X&X&X&X&X-X-X-X#XH.m.+._ _ n .._ _ _ _ ..n ..n  ._ _ _ _ _ _ _ _ _ _ _ _ _ _ _ +.v.J.#X=X;X=X*X&X&X&X&X&X&X*X&X&X&X",
"&X&X&X&X&X&X&X&X&X&X&X&X-X&X+XC.+.c 8 1 7 9 7 7 8 8 9 7 9 7 7 8 7 7 7 7 7 3 7 7 7 7 7 7 1 8 c +.C._.&X=X=X*X&X&X&X&X&X&X&X&X&X&X",
"&X&X=X&X&X&X&X&X=X&X&X&X#XK.Z.x.) 8 % + + , , , , , , , , , , , , , 1 , & & , < , & , @ + % 8 _ x.Z._.#X&X&X*X*X*X*X&X&X&X&X&X*X",
"&X&X&X&X&X&X=X=X-X=X&XK.J.C.x.O.z 2 * * 4 5 5 5 6 6 6 i 5 6 5 5 5 5 5 6 i 3 i 3 i i 5 3 * * 2 z o.x.C.J._.%X=X=X*X*X&X&X&X&X&X&X",
"&X&X&X&X&X&X=X-X-X-X$XJ.m.+._ z u 6 r i a g j j j j g j g g g g j j j g g j j j j j j a i i t u z _ +.v.J.#X=X;X=X*X&X&X&X&X*X&X",
"&X=X&X&X&X&X&X=X-X&X+XC.#.c 7 2 6 p F G j ] { q.q.q.{ { | | | q.{ { q.q.{ { q.q.q.{ q.j g a i 6 2 8 x +.C._.&X=X=X&X&X&X&X&X&X&X",
"&X&X&X&X&X&X&X$X#X+XH.x.) 8 & < 5 p g K [ q.w.e.e.e.e.e.e.e.e.e.e.e.e.e.e.e.e.e.w.w.q.[ j f d 5 * , 8 _ x.Z._.#X&X&X&X*X*X&X&X&X",
"&X&X&X=X=X&X$X+XH.C.*.O.z 2 * 4 i p F K K { q.w.e.r.t.t.t.t.t.t.t.t.t.t.r.r.r.e.w.q.[ K K g d i 4 * 2 z O.x.C.A.K.#X&X*X*X*X&X&X",
"&X&X&X=X=X&X@XA.v.+._ z u t r i p a F G J L K q.w.e.t.t.t.t.t.t.r.r.t.t.r.r.e.w.{ [ L J G F d p i 5 t u z ) +.v.A.@X*X=X=X*X&X&X",
"&X&X&X=X-X&X+XC.#.b 8 2 t i p p d f f F F G J K | w.e.r.r.e.e.e.e.e.r.r.r.r.w.{ L J G F F f f d p p p t 2 8 c +.C._.*X=X=X*X&X&X",
"&X=X&X-X-X&XK.m...9 % * 5 p f F F f f f F F G L [ q.w.w.w.w.w.w.w.w.w.w.w.w.| [ J G f f f F f F F d p 4 & = 9 ..B.K.&X=X=X&X&X&X",
"&X&X&X-X-X&XK.m.n 1 + & 4 s F F F F f f p F G G L [ [ { { { [ { [ { [ { | [ [ L G F f d f f F F F F d 4 & + 7 n B.K.&X=X=X*X&X*X",
"&X&X=X=X-X&XK.m._ 1 + & 4 p F F F f f F F F F F G L L L L L L L L L L L L L J J G F F d d F F F F F p 4 & $ 7 _ B.K.*X-X=X*X*X&X",
"&X&X=X=X-X&XK.m._ 7 % & 5 p f F F F f d F d F F G F G G G G H H G G G G G H G F F F f F f f f F F F p 6 & % 8 _ B.K.&X-X=X=X&X&X",
"&X&X=X=X=X&XK.m._ 8 = & 5 p f F F f f f d F F d f F F F f f F F F f F F f F f F F f f f f f f F F f p 4 * % 7 _ B.K.&X=X=X&X&X&X",
"&X&X=X=X-X=X+Xm._ 8 = & 4 p F F F f f F F f f F f f d d f d d f d F d d f d f d f f f f f f F F F F p 4 & % 7 _ B.K.*X=X=X*X*X&X",
"&X&X=X=X-X=XK.m.) 8 + , 4 s f F F f f f F d F d F d f d F d F d d F F d F d F d d F F f f f F F f f s 4 , % k n B.K.&X=X=X=X=X&X",
"&X&X&X=X=X=XK.m._ 8 % * 4 p f F F f f f f f f F f f F F d f f f d F d f f f F F f f f f f f d F f f p 6 * % 8  .B.K.=X=X=X=X&X&X",
"&X=X=X=X-X=X+XB._ 7 + & 5 p f F F F f f f f f f F F f f f f f f F f f f f f d F f f d F f f F F g f p 4 & % 9 _ B.K.&X=X=X&X&X&X",
"&X&X=X=X-X=X+XB._ 7 + & 4 p f F F F d F f f f f f d F f f f f F F f f f f f f F f F F f f f f F F f p 4 & O 9 ..B._.=X;X=X=X&X&X",
"&X&X=X-X-X-X+Xm.U 7 O % 4 p f F F f f f f f f f f f F F f f d F F F f f f f f f f f f f F d d F F f p 4 + + 1 n B._.=X:X-X=X&X&X",
"&X&X=X-X=X=XK.m. .7 , , 4 p f F F f f f f f f F f f d F f f F f f d F f f f d F f f f f F F F F F f p 4 * , 7  .B.K.&X=X=X=X&X=X",
"&X&X%X%X#X+XH.v.o.n q 6 i d f F F F d f f f f F f f f f f f f f f f f f f f F F f f d F d F F F F F d i 5 q n o.v.H._.#X%X&X&X&X",
"=X&X$X+XH.C.v.;.=.C B N h F f f d F F F f f F d f f f f f f f f f f f f f f f f f F F F d F F d F d h h N C C =.;.v.C.A._.$X&X=X",
"-X&X@XZ.N.*.o.=.y.i.i.0.] G F p d F f f f f f f f F F F F F F F f f F F f f f f F F F F F a F p F p G ] 0.u.i.y.-.o.#.v.A.@X&X*X",
";X&X+XV.+.n n C i.L.I.g.0.' F F F d f f f f f f f F d d F p F F f f d F f f f f F p p F F F F p F F J 0.g.L.L.i.C n c X.V._.&X;X",
";X&XK.m._ 8 0 B g.Y.E.P.p.' F p p F f f F d f f f f f F F p F p f f f F f F f f F F F F F F d F d F ' p.L.E.E.d.B 0 8  .n.K.&X;X",
";X&XK.m.b - 3 B d.Q.!.I.p.' F p p F f f F F f f f f f F F F F F f f F d f f f f F F p F d F F p p F ' p.I.!.R.d.B 3 1 b z.K.&X;X",
";X&XK.z.b - 3 B g.Q.!.I.p.' F d F F F p f F d f f f f f F a F p f D f f f f f f p F F F F p F p F F ' p.I.!.R.g.B 3 1 b N.K.&X;X",
";X&XK.N. .7 3 B d.Y.E.L.p.' f d p F F F f f F F f f F f F F F F f f f f f f f f F F F p F F F F p F ' p.P.E.Y.d.B 0 7  .N._.&X;X",
";X&X+XV.+.x n C i.L.L.g.0.' f d F p F F f f f f f f d F F p p F f f f f f f f f F F a F F F f p F F G 0.g.P.L.i.C n x @.V._.&X-X",
"-X*X+XA.v.+.o.=.y.u.u.0.] G F f F F F p f f f f f f f F F F F F f f f f f f F f p F F F F p F a F F H ] 0.u.i.y.=.o.@.v.A.@X*X*X",
"=X&X@X+XA.C.v.;.=.B N M h h f f F p F F F p F F F F F F F F F F f f f f p F F d F f f a f f f f f f h h M N C =.;.v.C.H._.#X&X=X",
"*X&X&X&X#X+XZ.c.o.z q 6 i s f f F F F F F F p F p F p F F p p F f f f f F F F F F f F F f f f f f f d i 6 q n O.c.H._.%X&X&X&X=X",
"&X&X&X=X-X&X@XC.#.c 8 2 t p p d F D D H F F F F F F F F F F F F f f f f p F F F d F F F f D D D d s p t 2 8 c #.C._.=X=X=X&X&X&X",
"&X&X*X-X-X-X#XH.N.+.) z u u t s u / / / F F p F a F a F F a p F f f f f F F a a F d F D / ( ( m u i u u z ) @.N.J.%X=X=X=X=X&X&X",
"&X&X*X=X-X-X&X+XJ.C.x.X.z t 2 y c U ) ( / F F F a F a p a f f f f a a F a F d F p F F / ( ) n b u 2 2 m O.x.V.A._.$X=X=X=X&X&X&X",
"&X&X&X&X*X&X&X%X#X_.Z.x._ 8 1 9 v T $._ ( D F p f F F F F f f F f f f f a F F F a F H (  .$.T v 9 1 k n x.Z.+X#X&X&X=X&X=X&X&X&X",
"&X&X&X*X*X&X&X%X$X_.Z.z.U 8 : 9 v R E  .) / D F D D D D D D D D D D D / F / D F D D / ) ..E R v k : 9 ) z.Z._.$X$X&X=X=X&X&X&X&X",
"&X&X*X=X-X*X&X+XJ.C.z.X.P y : k Y R ! E  .) ( ( ( ( ( ( ( ( ( / ( ( ( ( ( ( ( ( / ( )  .E Q R I k > y b X.x.C.J._.%X=X=X=X=X&X&X",
"&X*X*X-X-X=X$XH.N.#._ P k l l I Y R Q %...T  . . . . . .T _ _ _  ._ _ _  ._  ._  . .T @.! Q ! Y I l l l b U #.m.J.#X=X-X-X=X&X&X",
"&X&X&X=X=X=X_.C.#.c 8 y l P I Y T Q Q Q E %.E @.R E @.E @.%.%.%.E %.E %.E %.E %.E R @.%.Q Q R T Y I I P 9 9 c +.C.K.=X-X=X=X&X&X",
"&X&X&X%X#XK.H.c.o.z 0 z / $.$.$.! E Q Q Q W Q Q Q Q W W Q Q Q Q Q Q Q Q Q Q Q Q Q Q Q Q Q Q Q %.X.$.U P z q n o.v.H.K.#X&X%X&X=X",
"=X&X%X+XH.C.c.;.=.C B } -.:.:.;.z.%.W j.j.j.j.j.j.W j.j.k.k.k.k.k.k.k.k.k.W j.j.j.Q W W W Q &.*.;.:.:.-.C B B =.;.c.C.H.K.#X&X=X",
"-X&X@XA.m.#.o.=.-.i.s.D.D.G.G.S.x.l.j.W W j.j.j.j.j.j.k.k.k.k.k.k.k.k.k.k.k.W W j.j.Q W j.W l.n.S.G.D.D.D.s.i.-.=.o.#.v.Z.@X&X-X",
";X&X+XV.X.c n C i.L.Y.Q.Q.W.U.G.b.z.Q W W Q Q Q Q Q Q Q Q Q W W ! Q Q Q Q Q Q Q Q Q Q W W ! l.b.G.U.W.Q.Q.Y.L.i.V z c X.C.+X&X-X",
";X&XK.N.U 8 0 N s.Y./.(.(./.W.G.S.z.&.! ! &.&.&.&.&.&.! E R R T T R R ! ! ! &.&.&.! &.! ! l.z.F.G.W.(.(.(./.Y.s.N 0 7 _ m.K.&X;X",
";X&XK.z.b 1 3 N d.R.(.).).).^.T.F.M.7.6.6.7.7.7.7.7.6.$.T U v v v v U T $.7.7.7.7.7.7.6.7.7.M.F.T.^.).).).(.Q.d.N 3 1 U n.K.&X;X",
";X&XK.v.b 1 3 B d.R.(.).).(.!.T.OX.X8.8.[.8.[.[.[.8.8.5.U k k 9 : k k U ,.8.8.[. X8.8.8.[.8..XF.T.^.(.).).(.Q.d.N 3 1 b v.K.%X;X",
"-X&XK.N._ 8 3 B d.Y././.(./.~.T.OX.XoX X X XoXoXoX}.4.,.S 7 @ @ @ @ 7 P ,.8. XoXoXoX XoX X X.XOXT.W./.(.(./.Y.s.N 3 8 _ B._.&X;X",
";X&XK.C.+.x n C i.L.Y.R.R.Y.U.G.h..XXX}.}.XXXXXXoX].4.` Z 1 O X X O ; Z ` 4.].XXXXXXXXXX}.XX.Xh.G.U.Y.R.R.Y.L.i.C n c @.V._.&X;X",
"=X&X#XA.N.#.o.=.y.i.s.d.d.f.a.h.9.|.{.{.{.{.'.'.4.,.>.A w $ O . X o = w A >.,.4.'.'.'.{.{.{.|.9.h.a.s.d.d.s.i.y.=.O.#.B.A.@X&X-X",
"*X&X#X+XJ.C.v.;.=.C V B B C } ` <.4.`.`.`.`.3.1.>.S Z 2 ; $ O X o O $ ; w Z S ~ 1.3.`.`.`.`.3.<.<.} N V B B C =.;.B.C.A._.$X&X*X",
"*X*X&X%X$X_.H.v.o.n q < 3 3 2 D ~ ^ 2.3.2.2.>.~ Z w ; = O O O O O O O + $ , w A ~ ^ 2.3.2.2.>.~ D t 0 3 3 0 z o.c.A._.$X%X&X*X*X",
"&X*X*X*X=X=XK.B. .8 $ . X $ ; e S ~ 1.2.2.1.~ S e ; O O O O O O O O O o o O ; e S ~ 1.2.2.1.~ S e ; O . X O 7  .B.K.&X-X*X*X*X&X",
"&X*X*X;X:X=X@XB. .- .       # > Z ~ ^ 1.1.^ ~ Z > O X X o O O O O O O o X X # w Z ~ ^ 1.1.^ ~ Z > # .     . - _ V.@X-X:X;X*X&X&X"
};
