/* XPM */
static char * player_3_xpm[] = {
"64 64 91 1",
" 	c #9ED68D",
".	c #9DD58C",
"+	c #000000",
"@	c #464646",
"#	c #ED1C24",
"$	c #303030",
"%	c #FFC20E",
"&	c #212121",
"*	c #171717",
"=	c #565440",
"-	c #7C795C",
";	c #B2AE84",
">	c #FFF9BD",
",	c #D1D1D1",
"'	c #99D189",
")	c #98D089",
"!	c #9CD48C",
"~	c #8EC681",
"{	c #74AD6D",
"]	c #72AB6C",
"^	c #8BC37F",
"/	c #73AD6D",
"(	c #5F9B5F",
"_	c #6EA869",
":	c #96CE87",
"<	c #97CF88",
"[	c #68A365",
"}	c #8FC781",
"|	c #9BD38A",
"1	c #7FB775",
"2	c #629E61",
"3	c #609C60",
"4	c #6AA567",
"5	c #77B070",
"6	c #8DC580",
"7	c #9BD38B",
"8	c #9DD58D",
"9	c #92CA84",
"0	c #6EA86A",
"a	c #68A265",
"b	c #79B271",
"c	c #91C984",
"d	c #4D6DF3",
"e	c #99D18A",
"f	c #78B170",
"g	c #609C5F",
"h	c #91C983",
"i	c #9CD38B",
"j	c #82BA78",
"k	c #619C60",
"l	c #6CA668",
"m	c #8EC680",
"n	c #649F62",
"o	c #71AB6C",
"p	c #98D088",
"q	c #74AE6E",
"r	c #629D61",
"s	c #86BE7B",
"t	c #9CD48B",
"u	c #354CA9",
"v	c #65A063",
"w	c #67A265",
"x	c #8CC47F",
"y	c #7EB775",
"z	c #67A264",
"A	c #9AD28A",
"B	c #7CB473",
"C	c #619D60",
"D	c #5F9C5F",
"E	c #92C983",
"F	c #7AB372",
"G	c #97CF87",
"H	c #66A164",
"I	c #87BF7C",
"J	c #8CC480",
"K	c #69A466",
"L	c #86BF7B",
"M	c #66A063",
"N	c #67A365",
"O	c #79B171",
"P	c #6FA96A",
"Q	c #75AE6E",
"R	c #92CA83",
"S	c #8EC682",
"T	c #6DA768",
"U	c #9C5A3C",
"V	c #91C882",
"W	c #93CB84",
"X	c #93CB85",
"Y	c #6D3E29",
"Z	c #7BB473",
"                                                  ....          ",
"                                                  ....          ",
"                                                  ....          ",
"                                                  ....          ",
"                                                  ....          ",
"                                                  ....          ",
"                            ++++++++              ....          ",
"                            +@@@@+@+              ....          ",
"                        ... +@@@@@++                            ",
"                        ... +@@@@@#+                            ",
"                        ... +$$@@@@+                            ",
"                        ... +$$@@@@+                            ",
"                        ... %%%%%%%%%                           ",
"                        ++++++++++++++++                        ",
"                        +&&&&&&&&&&&&&&+                        ",
"                        +$$$$$$$$$$$$$$+                        ",
"                        +$$$$$@@@@@@@@@+                        ",
"                        +$$$@@@@@@@@@@@+                        ",
"                        +$@@@@@@@@@@@@@+                        ",
"                        +@@@@@@@@@@@@@@+                        ",
"                        +@@@@@@@@@@@@@@+                        ",
"                        +@@@@@@@@@@@@@@+                        ",
"                        ++++++++++++++++                        ",
"                          +**+====+**+%                         ",
"                          +&&+----+&&+%                         ",
"                          +$$+;;;;+$$+%                         ",
"                          +$$+>>>>+@@+,,                        ",
"                          +$@+>>>>+@@+,,                        ",
"                          +@@+>>>>+@@+,,                        ",
"                          +@@+>>>>+@@+                          ",
"                          +@@+>>>>+@@+                          ",
"                          +@@+>>>>+@@+                          ",
"                          +@@+>>>>+@@+                          ",
"        .')!              +@@+>>>>+@@+                          ",
"       .~{]^!             +@@+>>>>+@@+                          ",
"       '/((_:             +@@+>>>>+@@+                          ",
"       <_(([}!            +@@+>>>>+@@+                          ",
"       |123456'78         ++++++++++++                          ",
"       890(3(ab1c.        +dd++++++dd+                          ",
"        efg(((3g0h.       +dd++++++dd+                          ",
"        ijk((((((lm.      +dd++++++dd+                          ",
"        8}n(((((((op      +dd++++++dd+                          ",
"         'q(((((((rst     +dduuuuuddd+                          ",
"         8~v(((((((wxt    +dddddddddd+                          ",
"          7y((((((((l^|   +dddddddddd+                          ",
"           hv(((((((gzs7  +dddddddddd+                          ",
"           ABC((((((((l9. +dddddddddd+                          ",
"           89_DC((((((v5E.+dddddddddd+                          ",
"            'FC3g((((((kfG+dddddddddd+    ....                  ",
"            .}_3((((((((HI+dddddddddd+    ....                  ",
"             tJK((((((((g]+dddddddddd+    ....                  ",
"              7LM(((((((DN+dddddddddd+    ....                  ",
"               'Og((((((3n+dddddddddd+    ....                  ",
"               .hPg((((((P+dddddddddd+    ....                  ",
"                .hQk(((((l+dddddddddd+    ....                  ",
"                 .RP(((((3++++++++++++    ....                  ",
"                  !ST(((((+UUUUUUUUUU+                          ",
"                   !V_((((+UUUUUUUUUU+                          ",
"                    .WP(((+UUUUUUUUUU+                          ",
"                      X_Dg+YYYYYYYYYU+                          ",
"                      .9ZQ++++++++++++                          ",
"                       .':7                                     ",
"                         8                                      ",
"                                                                "};
