/* XPM */
static char *player_4_resized[] = {
/* columns rows colors chars-per-pixel */
"64 64 224 2 ",
"   c #1B1B1D",
".  c #26201E",
"X  c #1D1F20",
"o  c #251D24",
"O  c #2A1E25",
"+  c #311F28",
"@  c #1B2222",
"#  c #192725",
"$  c #1A352F",
"%  c #252324",
"&  c #232F27",
"*  c #2C2829",
"=  c #322E26",
"-  c #35242D",
";  c #3A262E",
":  c #3A2A2C",
">  c #26342A",
",  c #29352B",
"<  c #293D2F",
"1  c #353027",
"2  c #36362C",
"3  c #282939",
"4  c #3B2B31",
"5  c #3A2936",
"6  c #283837",
"7  c #373634",
"8  c #442F2B",
"9  c #43342D",
"0  c #432B35",
"q  c #482D36",
"w  c #4A2F3B",
"e  c #463535",
"r  c #4E313D",
"t  c #52333F",
"y  c #5D353E",
"u  c #583B38",
"i  c #61373F",
"p  c #264638",
"a  c #3A4739",
"s  c #374A38",
"d  c #27533A",
"f  c #35573D",
"g  c #46493B",
"h  c #57443A",
"j  c #42543B",
"k  c #6A4D36",
"l  c #674938",
"z  c #6B553D",
"x  c #292D44",
"c  c #2A3348",
"v  c #383A49",
"b  c #2A3657",
"n  c #343A5A",
"m  c #263662",
"M  c #333E68",
"N  c #483A44",
"B  c #543440",
"V  c #5A3742",
"C  c #573D41",
"Z  c #5D3A43",
"A  c #633B45",
"S  c #6A3E45",
"D  c #673C48",
"F  c #6B3D49",
"G  c #743E48",
"H  c #2F4A49",
"J  c #354649",
"K  c #2D5546",
"L  c #3E5A41",
"P  c #3A4959",
"I  c #355652",
"U  c #336847",
"Y  c #3C6A56",
"T  c #3E4868",
"R  c #4A4847",
"E  c #435C43",
"W  c #475848",
"Q  c #575048",
"!  c #48485A",
"~  c #664145",
"^  c #6B4346",
"/  c #6B4549",
"(  c #754946",
")  c #75434C",
"_  c #7D454E",
"`  c #7B4A4C",
"'  c #74574D",
"]  c #7B5348",
"[  c #7D4550",
"{  c #456145",
"}  c #4C684A",
"|  c #56674C",
" . c #526F4E",
".. c #52704E",
"X. c #51784D",
"o. c #4E6C55",
"O. c #497956",
"+. c #716B4E",
"@. c #677755",
"#. c #454C69",
"$. c #50536B",
"%. c #444B75",
"&. c #4D5A79",
"*. c #565875",
"=. c #6D5967",
"-. c #516F72",
";. c #667477",
":. c #834C4C",
">. c #87554C",
",. c #8B5B4E",
"<. c #905C48",
"1. c #814650",
"2. c #864954",
"3. c #8C4C56",
"4. c #904D57",
"5. c #934F59",
"6. c #8D5252",
"7. c #925352",
"8. c #985756",
"9. c #9B5A56",
"0. c #96505A",
"q. c #A15C59",
"w. c #96684A",
"e. c #856757",
"r. c #956252",
"t. c #9D6655",
"y. c #947354",
"u. c #A9754E",
"i. c #AC635C",
"p. c #A8685A",
"a. c #B2685C",
"s. c #A97655",
"d. c #AD7950",
"f. c #B2755A",
"g. c #BA7A5A",
"h. c #836C72",
"j. c #8E7170",
"k. c #B86C60",
"l. c #B17264",
"z. c #C27A5E",
"x. c #C26F63",
"c. c #C87864",
"v. c #4A8059",
"b. c #5B8259",
"n. c #63835B",
"m. c #658C5F",
"M. c #798B5C",
"N. c #4C8071",
"B. c #668E61",
"V. c #698E61",
"C. c #6A9263",
"Z. c #6B9465",
"A. c #719A67",
"S. c #729B69",
"D. c #709477",
"F. c #7BA477",
"G. c #7EAB73",
"H. c #B6855C",
"J. c #BA945F",
"K. c #BA8865",
"L. c #AA9363",
"P. c #B98871",
"I. c #80AE74",
"U. c #81B075",
"Y. c #8BBD7E",
"T. c #C3825D",
"R. c #C58A5C",
"E. c #CA8661",
"W. c #D48D64",
"Q. c #DA8768",
"!. c #DC9267",
"~. c #DE9A64",
"^. c #C88D74",
"/. c #D09370",
"(. c #E59669",
"). c #EB956D",
"_. c #E49D6B",
"`. c #EB9C6B",
"'. c #E6A46C",
"]. c #ECA26A",
"[. c #F4A46D",
"{. c #F8A76E",
"}. c #FEAD6E",
"|. c #FFB16F",
" X c #E8A373",
".X c #F6A976",
"XX c #FFAE70",
"oX c #FFB373",
"OX c #FFB974",
"+X c #FBB57C",
"@X c #FFBC7B",
"#X c #8DC07F",
"$X c #545985",
"%X c #5A7586",
"&X c #64718D",
"*X c #686F90",
"=X c #877988",
"-X c #71848F",
";X c #7DA485",
":X c #AD918A",
">X c #8DBE81",
",X c #8991A8",
"<X c #9CA6B8",
"1X c #B5B7BA",
"2X c #D0A48E",
"3X c #F4B887",
"4X c #D2BAA9",
"5X c #8EC180",
"6X c #92C683",
"7X c #96CC87",
"8X c #93C689",
"9X c #97CD88",
"0X c #9ED68D",
"qX c #9FD88E",
"wX c #A1DA8F",
"eX c #A2DC91",
"rX c #A6E093",
"tX c #FFCA94",
"yX c #FAC99A",
"uX c #F3D6B3",
"iX c #FEE3BA",
"pX c #B0BAC7",
"aX c #D0D4D0",
"sX c #ECE6CD",
/* pixels */
"0X0X0X0X0X0X0X0X0X0X0X0X0X0X0XeXwXrXrXrXrXrXrXrXrXrXrXrXrXrXrXeXrXrXrXrXrXwXrXrXeXrXrXeXrXrXeXeXwXwX0X0X0X0X0X0X0X0X0X0X0X0X0X0X",
"0X0X0X0X0X0X0X0X0X0X0X0X0X0X0X0X0X0X0X0X0X0X0X0X0X9X0X0X0X0X0X0X0X0X0X0X0X0X0X0X0X0XwX0X0XwX0XwX0X0X0X0X0X0X0X0X0X0X0X0X0X0X0X0X",
"0X0X0X0X0X0X0X0X0X0X0X0X0X0X0X7X6X#X#XY.Y.Y.Y.#XY.#XY.Y.Y.Y.Y.Y.Y.Y.Y.Y.Y.Y.Y.Y.Y.Y.Y.Y.Y.Y.>X6X7X0X0XwX0X0X0X0X0X0X0XqX0X0X0XqX",
"0X0X0X0X0X0X0X0X0XqXwXwXeX0X0X#XG.A.Z.Z.B.C.C.C.C.C.C.C.C.C.Z.C.C.C.C.C.Z.C.Z.Z.C.C.C.C.V.C.S.I.>X9XwXeXeX0X0X0X0X0X0X0X0X0X0X0X",
"0X0X0X0X0X0X0X0X0X0XqXeXeXeX7XI.m...{ j E E { { L { { { { { E { { { { { { { { { E } E E E } ..V.U.7XeXeXeXqX0X0X0X0X0X0X0X0X0X0X",
"0X0X0X0X0X0X0X0X0X0X0XqXeX0X>XS...s , > > > , > , , , , , , > > , , , > > > , , > > , > & , s ..S.Y.0XeXeX0X0X0X0X0XqX0X0X0XqX0X",
"0X0X0X0X0XqX0X0XqX0X0X9X7XY.G.n.W 2 % . . % O % % % % % % % % o % % . % X X X X X X X     X < W n.G.Y.7X0X0X0X0XqX0X0X0X0X0X0X0X",
"0XqX0X0X0X0XqXeXeXeX0X5XU.A.n.| R 9 ; ; ; ; ; ; : : : : ; : 8 0 ; 8 ; - * O O % o o o o o o * a | n.A.G.#X0X0XwXeXqX0X0X0X0X0X0X",
"qX0X0X0X0XqXqXeXeXeX7XU.B. .E g h C V i y i i y y y y i i i i A i i y r q 4 ; - - - - ; - - 4 7 a E  .V.U.9XeXeXeX0X0X0X0X0X0X0X",
"0X0X0X0X0X0XqXeXeX0XY.A. .s 7 e V G _ 1.1._ _ 1._ 1._ [ _ _ _ [ 1._ G S V r w q w w w r w q e 5 - , s  .S.Y.0XeXeX0X0X0X0X0X0X0X",
"0X0X0X0XqX0X0X9X7X5XG.n.E 2 * q D [ 4.0.4.4.4.4.4.4.3.3.2.2.2.2.2.2.1.G D V B r r B B B B B w 4 * o > E n.G.#X7X0X0X0X0X0X0X0X0X",
"0X0X0XqXqX0X7X#XG.S.n.| g e q y G 2.0.0.0.5.5.0.0.5.5.3.2.1.[ [ [ [ ) G A B B B B B B B B B r 0 - O - a } n.S.I.Y.7X0X0XqX0X0X0X",
"0X0XqXqXqX0X6XG.m...E R h y S ) 1.4.4.0.5.5.5.5.5.5.4.2.[ G F F F F D A V V B r B B B B B B r q 0 4 4 7 a W ..V.G.6X0XqXeX0X0X0X",
"0X0XqXqXwX0X#XS...s 2 9 V ) 1.1.2.3.4.4.5.4.5.5.5.4.2.[ F A V V V V B B B B B B r B B B B r B r w w q 4 * , s ..S.5X0XeXwX0X0X0X",
"0X0XqXwXeX0XY.C.E , % - y ) 1.3.2.2.2.2.2.2.2.2.2.2.1.G D V B t B r B B B B r r B B r r B B r B B B w - o   , E C.Y.0XeXeXqX0X0X",
"0X0XqXeXeX0XY.m.E & o + q S _ [ [ [ G [ ) ) ) ) ) [ F F V B t w B B r B B B B B r B B B r B B B B B w ; o   & E B.Y.0XeXeXqX0X0X",
"0XqXqXqXeX0XY.B.L &   O q y S F D D D A A D A D A A A V V B r t t r r t t B B r t t B t B r r B B B q - o   & E B.Y.0XeXwXqX0X0X",
"0X0XqXeXeXqXY.B.E , @ O ; t V V V V V V V V V V V V V B B B t t B t B t B r B B t t t t t B B B B B r - O   , E C.Y.0XeXwX0X0X0X",
"0X0XqXeXwX0XY.C.E , . % 0 u A A A A A Z Z Z A A A A A y V t t t r B B t r B B r t B t t t B B B B B w - o X , E C.Y.0XwXeXqX0X0X",
"0X0X0XqXeX0XY.C.E , % - q S ) _ _ ` _ ` ` ` _ _ ` ` ) S Z B t t r t r B t t B r B r t t t t t B B B r - o @ , { C.Y.0XwXwXqX0X0X",
"0X0XqXeXeX0XY.B.E , % : i :.0.8.q.8.8.9.8.8.8.9.8.8.7.1.^ B B r r B B r B r B B t B t t t t t B B B w - o X , E C.Y.0XeXeX0X0X0X",
"0X0XqXwXeXqXY.B.E , % 9 l 8.i.a.i.i.i.a.i.i.i.k.a.a.q.3.) Z B r B r t B B r r B t t t t t B t B t N w ; o X , { V.Y.0XeXwX0X0X0X",
"0X0XqXwXwX0XY.B.E , = 8 :.a.x.x.k.i.q.i.q.i.q.i.i.q.q.7.` F Z B B B B r B B B B w B t t B t t B t t w ; o X , E C.Y.0XeXeXqX0X0X",
"0X0XqXeXeX0X#XB.j , = u <.x.E.c.k.q.7.7.8.7.7.0.7.6.3.:.:.` ) F A V B r w N w w B B w r r t t B B t w - o @ > E C.Y.0XeXeX0XqX0X",
"0X0XqXqXwX0X>XB.L > = h w.R.Q.z.q.:.^ S F F F S S i ( ` 2.6.6.` S V r r r r w w r r r r r t t B B t w 4 o X , { C.Y.0XeXwX0X0X0X",
"0X0XqXeXwX0XY.B.L > 1 k u.W.(.z.8.~ t q 0 B t r r t i ( 7.9.q.7._ V B r B B B B t t t t t B t B B t w - o X , E V.Y.0XeXwX0X0X0X",
"0X0XqXwXrX0XY.B.L , 1 k d.~.(.T.e.C 5 5 5 5 5 0 N B Z ' p.k.a.q.` A B y C ~ ~ / ~ ^ ~ A C C t B B r q - o @ , E C.Y.0XeXeX0X0X0X",
"0X0XqXwXwX9XY.B.L , 1 k d.~._.K.,.N 5 3 3 5 v v N $.=.j.l.c.z.p.:.~ Z ~ ] ,.r.r.r.r.,.` ^ V t t B B r - o X , { C.Y.0XwXeXwX0X0X",
"qX0X0XwXeX0XY.B.L , 1 z d.(._.K.' R x x x x v #.*.*X=X=X2Xc.W.a.,.~ ~ ( r.f.E.E.E.H.f.t.` A B B r B q - o X > E V.Y.0XeXeX0X0X0X",
"0X0XqXeXeX0XY.B.L , 1 k u.~._.K.e.! x x x x P $.*X,X<X:X3X.X(.z.,.~ ~ >.s.W._.'.].`.W.f.,.A r w B r r - o X , E C.Y.0XeXwX0X0X0X",
"0X0XqXeXeX0XY.B.L , 1 k d.~._.K.e.! v b x b T $X=X<XpX4X3X3Xc.z.,.~ / >.f.!.{.XXoX}.`.H.r.~ B N B r r - o   > E V.Y.0XeXeXwX0X0X",
"0X0XqXqXeX0XY.B.L , 1 k d.~.'.K.h.! b b m b T &X,XpXaXuXyX3X).c.,.~ ~ ] a.Q.`.XXoXoX[.E.r.^ B w B B r - o   > E V.Y.0XeXeX0X0X0X",
"0X0XwXwXeX0XY.B.j > = k s.~. X^.h.$.M m m T $X*X<XaXaXiXyX+X].g.,.~ Z ` t.x.Q.[.XXXX[.E.r.~ B B B B 0 - o   & E B.Y.0XeXeX0X0X0X",
"0X0X0XwXeX9XY.B.j > 1 k u.!._.P.j.$.%.M M #.$X-XpXaXsXiXyX+X].z.,./ A ( 8.k.c.(.[.[._.E.r.~ B w w B w - o % > E C.Y.0XeXeX0X0X0X",
"0X0X0XwXeX0XY.B.L < = k u.W. X^.j.=.*.$.$.*.*X,X1XsXsXiXyXtX].T.t.] ( 2.q.k.c.Q.(.(.W.f.,.~ B N w w 0 5 * , s ..S.5X0XeXeX0X0X0X",
"0X0XwXwXeX0XY.m.f > = i w.E.!./.l.l.j.h.;.h.L.:X4XuXiXyXtXOX].W.g.p.t.s.g.c.Q.Q.E.E.f.r.] A B 0 5 ; 5 7 a W ..B.G.6X0XeX0X0X0X0X",
"0X0XwXwXeX0XY.m.f > % u <.g.c.Q.2XP.P.P.P.P.^.2X3XyXyXtX3XoX{.`.!.E.E.W.(.).Q.E.g.t.,.] ^ Z r 4 - O * g } @.S.G.>X7X0XeXwX0X0X0X",
"0XqX0XwXeX0XY.B.{ , = 8 :.a.c.Q.Q.). X X X'. X X X3X@XOXoXXXXX{.'.`.`.].[.[.!.E.t.` ~ Z C t r 4 * o > W b.G.>X9X0X0X0XqX0X0X0X0X",
"0X0X0XwXeX0X#XA. .a 9 u ^ <.a.c.(.{..XXX|.oX}.}.|.}.|.|.XXXXXXXXXX{.[.[.[.`.W.f.,.~ B w w w w 4 - , s  .S.5X0XeX0X0X0X0X0X0X0X0X",
"0X0X0XwXwX0X6XG.m. .} g ~ ( <.u.W.{.oXOXOX|.|.|.|.|.}.|.}.XXXXXX[.[.`.(.W.E.f.r.) A w 0 5 4 4 7 a E  .V.U.9XwXeXeX0X0X0X0X0X0X0X",
"0X0X0XqXwX0X7X>XG.S.n.| g h l w.z.[.|.OXOX|.|.|.XX}.}.}.oX}.}.{.).).Q.c.f.t.,.` ~ B w 5 - - 3 g } n.S.U.#X0XeXeXwX0X0X0X0X0X0X0X",
"0XqX0XwX0X0X0X9X7X#XG.n.W 7 9 z d._.}.|.|.|.|.|.XXXXXXXXXXXX{.`.Q.c.k.q.6.( ~ Z V B w 4 * % , E @.G.Y.7X0X0X0X0X0X0X0X0X0X0X0XqX",
"0X0X0X0X0X0X0XwXwX0X#XA. .s g z w.R.~.].[.[.{.{.{.{.{..X{.{.`.!.c.p.9.2.^ C B N B N w - o @ > E C.Y.0XeX0X0X0X0X0X0X0X0X0X0X0X0X",
"0X0X0X0X0X0XwXeXrXwX7XG.m.} { z +.u.H.T.W.(.).).).).).).`.).Q.c.p.>.~ ~ C v v v R R 7 3 @ @ > { Z.5XeXrXeX0X0X0X0X0X0X0X0X0X0X0X",
"0X0X0X0X0X0X0XwXwXwX9X#XG.A.n.@.| z ] <.p.c.Q.Q.Q.Q.Q.Q.Q.Q.z.i.] u e 7 v J H J J J J 3 # # > { Z.5XwXrXeXwX0X0X0X0X0X0X0X0XqX0X",
"0X0X0X0X0X0X0XwX0XwX0X9X#XY.I.m.j g 9 l <.a.x.c.c.k.x.c.c.c.a.7.l 8 * , 6 H P I I I H $ # # > E C.Y.qXeXeX0X0X0X0X0X0X0X0X0X0X0X",
"0X0X0X0X0X0X0X0X0X0XwXwXrXwX#XV.{ 2 * 9 ( t.a.a.l.l.a.p.a.q.9.z u 9 2 a W W o.o.Y I I p # # # E C.Y.0XeXeX0X0XqX0X0XqX0X0X0X0X0X",
"0X0X0X0X0X0X0X0X0X0XwXeXrXwX#XC.f > @ : Q +.e.y.y.y.e.,.>.:.` ( l l z ' +.+.;.@.o.Y I p $ # & W m.Y.0XeXeXqX0X0X0X0X0X0X0X0X0X0X",
"0X0X0X0X0X0X0X0X0X0XwXeXrXwX5XC.E & @ , j | @.n.@.@.+.| h h u k <.w.u.H.L.J.L.M.m.Y U d $   & E m.Y.wXwXwXwX0X0X0X0X0X0X0X0X0X0X",
"0X0X0X0X0X0X0X0X0X0X0XwXeX0X>XB.E > # > d } v.v.v.X.} f p , 9 k w.R.~.].].'.J.L.M.O.U d $ # > E C.Y.0XeXwX0X0X0X0X0X0X0X0X0X0X0X",
"0X0X0X0X0X0X0X0X0X0XwXeXeX0X>XB.E > # $ f Y Y v.v.v.U f $ # 2 k H.~.|.OXOX|.'.J.M.X.U d < < s  .A.Y.0XwXwXwX0X0X0X0X0X0X0X0X0X0X",
"0X0XwX0X0X0X0X0X0X0X0XeXeX0XY.B.L > @ 6 H O.-.N.N.-.Y K $ # = k H.~.OX@XOX|.].J.y.} f d f L  .B.I.6XwXwXwX0X0X0X0X0X0X0X0X0X0XwX",
"0X0X0X0X0X0X0X0X0X0XwXwXeX0XY.m.j > @ 6 I -.%X%X-X-.-.I $ # = k u.~.OXOXOX|.].H.+.j d f o.m.S.I.Y.9X0XwXwX0X0X0X0XwX0X0X0X0X0X0X",
"0X0X0X0X0X0X0X0X0X0X0XwXeX0XY.V.E , # c T $X&X*X&X%X$XT b $ = k u.~.|.OX|.|.~.H.k < 1 f X.G.Y.7X9X0X0X0X0X0X0X0X0X0X0X0X0X0X0X0X",
"0X0X0X0X0X0XwX0X0X0X0XwXwX0XY.A. .s 6 J #.*.&X*X&X&X$XT b # 3 h w.R.~.].].~.R.w.h = > L m.Y.0XeXwXwXwX0X0X0X0X0X0X0X0X0X0X0X0X0X",
"0X0X0X0X0X0X0X0X0X0XwXwXwX0X6XI.V...W L ! #.%.&.$X$X$X%.m x 7 C z w.u.d.u.u.w.k 1 . & L V.6XwXrXeXwX0X0X0X0X0X0X0X0X0X0X0X0X0X0X",
"0X0X0X0X0X0X0X0X0X0X0XwXwX0X7XY.G.S.n.o.W v c n #.%.%.#.M b n N g l l k k l h 8 .   & E C.Y.wXeXwXwX0X0X0X0X0X0X0X0X0X0X0X0X0X0X",
"0X0X0X0XwX0X0X0X0X0X0X0X0X0X0X9X7X#XG.n.E v 6 x n %.%.%.%.T P J 7 2 1 1 1 = = .     , E C.Y.wXeXwX0X0X0X0X0XwX0X0X0X0X0X0X0X0X0X",
"0X0X0X0X0X0X0X0X0X0X0XwX0X0XwXwXwX0X#XA. .s 6 v P &.&.&.&.&.*.! J 6 6 , > < > & & , s | S.#XwXwXwXwX0X0X0X0X0X0X0X0X0X0X0X0XwX0X",
"0X0X0X0X0X0X0X0X0X0X0X0X0X0X0XeXrXwX7XG.m. .} o.o.;.-XN.-X;.N.-.o.{ E L L L E L E } ..V.I.6X0XwXwX0X0X0X0X0X0X0X0X0X0X0X0X0X0X0X",
"0X0X0X0X0X0X0X0X0X0X0X0X0X0XwXwXeXwX0XY.G.S.Z.Z.F.;X;X;X;X;X;XD.S.C.B.m.B.B.B.C.V.V.S.I.>X9X0X0XwX0X0X0X0X0X0X0X0X0X0X0X0X0X0X0X",
"0X0X0X0X0X0X0X0X0X0X0X0X0X0X0X0XqX0X0X8X6X5X>X>X5X8X8X>X8X6X8X5X>X#XY.Y.#XY.Y.#XY.>X>X8X9X9X0XwX0X0X0X0X0X0X0X0X0X0XwX0X0X0X0X0X",
"0X0XwX0X0X0X0X0X0X0X0X0X0X0X0X0X0X0X0X0X0X0X0X0X0X0X0X0X0X0X0X0X0X0X0X0X0X0X0X0XwXwX0X0XwX0X0X0X0X0X0X0X0X0X0X0X0X0X0X0X0X0X0X0X",
"0X0X0X0X0X0X0X0X0XwX0X0X0X0X0X0X0X0XwXeXeXeXrXrXeXeXwXwXeXeXeXeXrXeXrXrXrXrXrXeXeXeXeXwXwXwX0X0X0X0X0X0X0X0X0X0X0X0X0X0X0X0X0X0X"
};
