/* XPM */
static char * bush_xpm[] = {
"64 64 95 2",
"  	c #9ED68D",
". 	c #9DD58C",
"+ 	c #000000",
"@ 	c #22B14C",
"# 	c #23B24D",
"$ 	c #177B35",
"% 	c #24B14E",
"& 	c #23B14C",
"* 	c #22B24D",
"= 	c #23B04C",
"- 	c #22B24C",
"; 	c #23B34C",
"> 	c #23B24B",
", 	c #22B14D",
"' 	c #24B24D",
") 	c #3BE36B",
"! 	c #22B14B",
"~ 	c #22B04C",
"{ 	c #24AF4C",
"] 	c #23B14B",
"^ 	c #22B14A",
"/ 	c #21B14C",
"( 	c #22B24B",
"_ 	c #22AF4C",
": 	c #20AF4C",
"< 	c #9C5A3C",
"[ 	c #ED1C24",
"} 	c #A51319",
"| 	c #22B34C",
"1 	c #730D11",
"2 	c #22B04B",
"3 	c #21B04B",
"4 	c #21B04C",
"5 	c #20B24A",
"6 	c #21B24C",
"7 	c #20B24D",
"8 	c #22B14E",
"9 	c #21B14D",
"0 	c #21B24D",
"a 	c #105625",
"b 	c #9AD28A",
"c 	c #98D089",
"d 	c #97CF88",
"e 	c #96CE87",
"f 	c #94CC86",
"g 	c #88BF7D",
"h 	c #74AB6E",
"i 	c #6BA369",
"j 	c #679F66",
"k 	c #659D64",
"l 	c #6FA76C",
"m 	c #9BD38B",
"n 	c #8FC682",
"o 	c #77AE71",
"p 	c #619962",
"q 	c #56905B",
"r 	c #538D59",
"s 	c #528C59",
"t 	c #81B878",
"u 	c #5F9761",
"v 	c #538D5A",
"w 	c #528D59",
"x 	c #59925D",
"y 	c #548D5A",
"z 	c #58915C",
"A 	c #57915C",
"B 	c #548E5A",
"C 	c #56905C",
"D 	c #679E66",
"E 	c #58925C",
"F 	c #351E13",
"G 	c #89BF7D",
"H 	c #669E65",
"I 	c #57905C",
"J 	c #538E5A",
"K 	c #558E5A",
"L 	c #4C2B1C",
"M 	c #8DC481",
"N 	c #72A96D",
"O 	c #5C955F",
"P 	c #96CD87",
"Q 	c #84BB7A",
"R 	c #6EA56B",
"S 	c #649C63",
"T 	c #6D3E29",
"U 	c #9CD38B",
"V 	c #5A935E",
"W 	c #72A86D",
"X 	c #95CD86",
"Y 	c #639B63",
"Z 	c #98D088",
"` 	c #69A168",
" .	c #6DA46A",
"..	c #90C782",
"+.	c #69A167",
"                                                                                                    . . . .                     ",
"                                                                                                    . . . .                     ",
"                                                                                                    . . . .                     ",
"                                                                                                    . . . .                     ",
"                                                                                                    . . . .                     ",
"                                                          + + + + + + + + +                         . . . .                     ",
"                                                  + + + + @ @ @ @ @ @ @ @ @ + + + + +               . . . .                     ",
"                                              + + @ @ @ @ @ @ @ @ @ @ @ @ @ @ @ @ # @ +             . . . .                     ",
"                                          + + $ @ @ @ @ @ @ @ @ @ @ @ @ @ @ @ % & @ @ * + +                                     ",
"                                      + + $ @ @ @ @ @ @ @ @ @ @ @ @ @ @ @ @ = & @ @ @ - ; @ + +                                 ",
"                                    + $ $ @ @ @ @ @ @ @ @ @ @ @ @ @ @ @ @ > @ @ @ @ @ @ , @ @ @ +                               ",
"                                  + $ $ @ @ @ @ @ @ @ @ @ @ @ @ @ @ @ ' & @ @ @ @ @ @ @ @ @ @ @ @ +                             ",
"                                + $ $ @ @ @ @ @ @ @ @ @ @ @ @ @ @ @ & & @ @ ) ) ) @ @ @ @ ! ~ @ @ @ +                           ",
"                              + $ $ $ @ @ @ @ @ @ @ @ @ @ @ @ @ { ] @ @ @ ) ) ) ) ) @ @ @ @ @ ^ @ @ @ +                         ",
"                            + $ $ $ $ @ @ @ @ @ @ @ @ @ @ @ @ ' = @ @ @ @ ) ) ) ) ) ) ) @ @ @ @ @ @ @ @ +                       ",
"                          + $ $ $ $ $ @ @ @ @ @ @ @ @ @ @ @ @ @ / @ @ @ @ ) ) ) ) ) ) ) ) @ @ @ ( @ @ @ @ +                     ",
"                          + $ $ $ $ @ @ @ @ @ @ @ @ @ @ @ @ @ @ @ ] @ @ @ @ ) ) ) ) ) ) ) @ @ @ ~ _ @ @ @ +                     ",
"                        + $ $ $ $ @ @ @ @ @ @ @ @ @ @ @ @ @ @ @ @ : @ @ @ @ ) ) ) ) ) ) ) ) @ @ @ ~ @ @ @ @ +                   ",
"                      + $ $ $ $ $ @ @ @ @ @ @ @ @ < @ @ @ @ @ @ @ @ @ @ @ @ ) ) ) ) ) ) ) ) ) @ @ @ @ @ @ @ @ +                 ",
"                      + $ $ $ $ @ @ @ @ @ @ @ @ [ [ [ @ @ @ @ @ @ @ @ @ @ @ @ ) ) ) ) ) ) ) ) ) @ @ @ ! @ @ @ +                 ",
"                    + $ $ $ $ $ @ @ @ @ @ @ @ } [ [ [ [ @ @ @ @ @ @ @ @ @ @ @ @ ) ) ) ) ) ) ) ) @ @ @ @ | @ @ @ +               ",
"                    + $ $ $ $ @ @ @ @ @ @ @ @ 1 } [ [ [ @ @ @ @ @ @ @ @ @ / @ @ ) ) ) ) ) ) ) ) @ @ @ @ 2 @ @ @ +               ",
"                    + $ $ $ $ @ @ @ @ @ @ @ @ 1 1 } [ [ @ @ @ @ @ @ @ @ @ 3 @ @ @ ) ) ) ) ) ) ) @ @ @ @ @ ~ @ @ +               ",
"                  + $ $ $ $ $ @ @ @ @ @ @ @ @ @ 1 1 } @ @ @ @ @ @ @ @ @ @ @ 4 @ @ @ ) ) ) ) ) ) ) @ @ @ @ @ ^ @ @ +             ",
"                  + $ $ $ $ $ @ @ @ @ @ @ @ @ @ @ @ @ @ @ @ @ @ @ @ @ @ @ @ 5 - @ @ ) ) ) ) ) ) ) @ @ @ @ @ @ @ @ +             ",
"                  + $ $ $ $ $ @ @ @ @ @ @ @ @ @ @ @ @ @ @ @ @ @ @ @ @ @ @ @ @ / @ @ @ @ ) ) ) ) ) @ @ @ @ @ @ ( @ +             ",
"                + $ $ $ $ $ $ @ @ @ @ @ @ @ @ @ @ @ @ @ @ @ @ @ @ @ @ @ @ @ @ @ 6 @ @ @ @ ) ) ) @ @ @ @ @ @ ( | @ @ +           ",
"                + $ $ $ $ $ $ @ @ @ @ @ @ @ @ @ @ @ @ @ @ @ @ @ @ @ @ @ @ @ @ @ 7 , @ @ @ @ @ @ @ @ @ @ @ ~ @ @ @ @ +           ",
"                + $ $ $ $ $ $ @ @ @ @ @ @ @ @ @ @ @ @ @ @ @ @ @ @ @ @ @ @ @ @ @ @ / @ @ @ @ @ @ @ @ @ @ 8 @ @ @ @ @ +           ",
"                + $ $ $ $ $ $ @ @ @ @ @ @ @ @ @ @ @ @ @ @ @ @ @ @ @ @ @ @ @ @ @ @ @ 9 @ @ @ @ @ @ @ ( @ @ @ @ @ @ @ +           ",
"                + $ $ $ $ $ $ @ @ @ @ @ @ @ @ @ @ @ @ @ @ @ @ @ @ @ @ @ @ < @ @ @ @ @ 6 @ @ @ @ - | @ @ @ @ @ @ @ @ +           ",
"                + $ $ $ $ $ $ @ @ @ @ @ @ @ @ @ @ @ @ @ @ @ @ @ @ @ @ @ [ [ [ @ @ @ @ 0 @ @ @ @ @ @ @ @ @ @ @ @ @ @ +           ",
"                + $ $ $ $ $ $ @ @ @ @ @ @ @ @ @ @ @ @ @ @ @ @ @ @ @ @ 1 [ [ [ [ @ @ @ @ / @ 8 @ @ @ @ @ @ @ @ @ @ @ +           ",
"                + $ $ $ $ $ $ $ @ @ @ @ @ @ @ @ @ @ @ @ @ @ @ @ @ @ @ 1 } } [ [ @ @ @ @ @ | @ @ @ @ @ @ @ @ @ @ @ @ +           ",
"                + $ $ $ $ $ $ $ @ @ @ @ @ @ @ @ @ @ @ @ @ @ @ @ @ @ @ 1 1 1 [ [ @ @ @ @ @ @ @ @ @ @ @ @ @ @ @ @ @ @ +           ",
"                + $ $ $ $ $ $ $ @ @ @ @ @ @ @ @ @ @ @ @ @ @ @ @ @ @ @ @ 1 1 1 @ @ @ @ @ @ @ @ @ @ @ @ @ @ @ @ @ @ @ +           ",
"                + $ $ $ $ $ $ $ @ @ @ @ @ @ @ @ @ @ @ @ @ @ @ @ @ @ @ @ @ @ @ @ @ @ @ @ @ @ @ @ @ @ @ @ @ @ @ @ @ @ +           ",
"                  + $ $ $ $ $ $ @ @ @ @ @ @ @ @ @ @ @ @ @ @ @ @ @ @ @ @ @ @ @ @ @ @ @ @ @ @ @ @ @ @ @ @ @ @ @ @ @ +             ",
"                  + a $ $ $ $ $ @ @ @ @ @ @ @ @ @ @ @ @ @ @ @ @ @ @ @ @ @ @ @ @ @ @ @ @ @ @ @ @ @ < @ @ @ @ @ @ @ +             ",
"                  + a $ $ $ $ $ @ @ @ @ @ @ @ @ @ @ @ @ @ @ @ @ @ @ @ @ @ @ @ @ @ @ @ @ @ @ @ @ [ [ [ @ @ @ @ @ @ +             ",
"        . b c d e c + $ $ $ $ $ @ @ @ @ @ @ @ @ @ @ @ @ @ @ @ @ @ @ @ @ @ @ @ @ @ @ @ @ @ @ @ [ [ [ [ [ @ @ @ @ +               ",
"  . b f g h i j k l + a $ $ $ $ $ @ @ @ @ @ @ @ @ < @ @ @ @ @ @ @ @ @ @ @ @ @ @ @ @ @ @ @ @ @ 1 } [ [ [ @ @ @ @ +               ",
"m n o p q r s s s r + $ $ $ $ $ $ @ @ @ @ @ @ @ [ [ [ @ @ @ @ @ @ @ @ @ @ @ @ @ @ @ @ @ @ @ @ 1 1 } [ [ @ @ @ @ +               ",
"t u v s s s s s s s w + a $ $ $ $ $ @ @ @ @ @ [ [ [ [ [ @ @ @ @ @ @ @ @ @ @ @ @ @ @ @ @ @ @ @ @ 1 1 } @ @ @ @ +                 ",
"x s s s s s s s s s s + $ $ $ $ $ $ @ @ @ @ @ } } [ [ [ @ @ @ @ @ @ @ @ @ @ @ @ @ @ @ @ @ @ @ @ @ @ @ @ @ @ @ +                 ",
"s s s s s s s s s s s w + a $ $ $ $ $ @ @ @ @ 1 1 } [ [ @ @ @ @ @ @ @ @ @ @ @ @ @ @ @ @ @ @ @ @ @ @ @ @ @ @ +                   ",
"r s s r s s s s s s s s s + a $ $ $ $ $ @ @ @ @ 1 1 } @ @ @ @ @ @ @ @ @ @ @ @ @ @ @ @ @ @ @ @ @ @ @ @ @ @ +                     ",
"y s s s s s s s s s s s s + $ a $ $ $ $ $ @ @ @ @ @ @ @ @ @ @ @ @ @ @ @ @ @ @ @ @ @ @ @ @ @ @ @ @ @ @ @ @ +                     ",
"w s s s s s s s s s s s s s + a $ $ $ $ $ @ @ @ @ @ @ @ @ @ @ @ @ @ @ @ @ @ @ @ @ @ @ @ @ @ @ @ @ @ @ @ +                       ",
"s s s s s s s s s s s s s s z + a $ $ $ $ $ $ @ @ @ @ @ @ @ @ @ @ @ @ @ @ @ @ @ @ @ @ @ @ @ @ @ @ @ @ +                         ",
"s r r s s s s s s s s s s s x A + $ $ $ $ $ $ @ @ @ @ @ @ @ @ @ @ @ @ @ @ @ @ @ @ @ @ @ @ @ @ @ @ @ +                           ",
"s B B s s s s s s s s s s s r s s + $ $ $ $ $ $ @ @ @ @ @ @ @ @ @ @ @ @ @ @ @ @ @ @ @ @ @ @ @ @ @ +                             ",
"s s s s s s s s s s s s s s s s s s + $ $ $ $ $ $ @ @ @ @ @ @ @ @ @ @ @ @ @ @ @ @ @ @ @ @ @ @ @ +                               ",
"r w s s s s s s s s s s s s s s s s s + + $ $ $ $ $ @ @ @ @ @ @ @ @ @ @ @ @ @ @ @ @ @ @ @ @ + +                                 ",
"C r B r s s s s s s s s s s s s s s s s i + + $ $ $ $ @ @ @ @ @ @ @ @ @ @ @ @ @ @ @ @ @ + + +                                   ",
"D B z A r s s s s s s s s s s s s s s s E + F + + $ $ $ @ @ @ @ @ @ @ @ @ @ @ @ @ @ + + < < +                                   ",
"G H I y J K B s s s s s s s s s s s s s z + L F F + + + + @ @ @ @ @ @ @ @ @ + + + + < < < < +                                   ",
"m M N O v B s s s s s s s s s s B s s s + + L L L F F F F + + + + + + + + + < < < < < < < < +                                   ",
"  . P Q R S r s s s s s s s s s x x s + + T T T T L L L L < < < < < < < < < < < < < < < < < + +                                 ",
"      U d g V s s s s s s s s s z W + + T T T T T T T T < < < < < < < < < + + < < < < < < < < + +                               ",
"          X Y s s s s s s s r r + + + T T T T L < < < < < < < < < < < + + + < < < < < < < < < < + + + + +                       ",
"          Z ` s s s s s + + + + + T T T < < < < < < < < < < < < < < + + < < < < < < < < < < < < < < < < + + +                   ",
"          c  .s s B + + T T T T T T T < < < < < < < < < < < < < < < < < < < < < < < < < < < < < < < < < < < + +                 ",
"        . ..+.B + + T T < < < < < < < < < < < < < < < < < < < < < < < < < < < < < < < < < < < < < < < < < < < < + +             "};
